<svg xmlns="http://www.w3.org/2000/svg" xmlns:xlink="http://www.w3.org/1999/xlink" viewBox="0 0 24.1 24.09"><defs><style>.cls-1{fill:#d7bfd4;}.cls-2{fill:url(#linear-gradient);}.cls-3{fill:#fff;}</style><linearGradient id="linear-gradient" x1="7550.79" y1="9005.2" x2="7551.79" y2="9005.2" gradientTransform="matrix(22.68, 0, 0, -22.68, -171227.64, 204220.5)" gradientUnits="userSpaceOnUse"><stop offset="0" stop-color="#7c7c7b"/><stop offset="1" stop-color="#575756"/></linearGradient><symbol id="_3.03_Hlađenje_na_-15oC" data-name="3.03 Hlađenjena -15oC" viewBox="0 0 24.09 24.09"><rect class="cls-1" x="1.42" y="1.42" width="22.68" height="22.68"/><rect class="cls-2" width="22.68" height="22.68"/><path class="cls-3" d="M19.72,13.56l-.41-.25.4-.23-.56-.34-.42.22-.2-.12.69-.4-.56-.33-.71.38-.33-.2v-.64l.76-.28L17.62,11v-.66l.33-.19.71.39.56-.34-.69-.39.21-.12.41.22.56-.34-.4-.23.41-.25.12-.46-.44-.12L19,8.79V8.31l-.56.34,0,.48-.21.12,0-.82-.56.34,0,.83-.38.21-.51-.3.16-.86-.69.54-.51-.31V8.44L16.38,8V7.32l-.68.43V7.5l.39-.25V6.57l-.39.25v-.5L15.37,6l-.32.34v.5l-.39-.25v.68l.39.25v.25l-.68-.43V8l.68.44v.47l-.5.31-.66-.59.11.92-.47.28-.41-.23,0-.83-.56-.34,0,.82-.21-.12,0-.48-.56-.34v.48l-.42-.25-.44.12.12.46.41.25L11,9.6l.57.34L12,9.72l.2.12-.69.39.56.34.71-.39.38.22V11l-.81.29.81.37v.57l-.38.23-.71-.38-.57.33.7.4L12,13l-.41-.22-.57.34.4.23-.41.24-.12.47.44.12.42-.25v.48l.56-.34,0-.48.21-.13,0,.83.56-.34,0-.83.35-.21.54.32-.16.85.68-.53.52.31v.42l-.68.44v.67l.68-.43v.25l-.39.26v.68l.39-.25v.5l.32.34.33-.34v-.5l.39.25v-.68l-.39-.26v-.25l.68.43v-.67l-.68-.44v-.39l.55-.33.61.55-.1-.86.55-.32.32.19,0,.83.56.34,0-.83.21.13,0,.48.56.34v-.48l.42.25.44-.12M15.7,9.59l.94.57-.57.32-.37-.23Zm-.65,0v.67l-.08.05-.26.15-.57-.32Zm-1.28,1.11.55.31v.54l-.55.33Zm1.28,2.38-1-.59.55-.33.44.26ZM15.4,12l-.5-.3v-.6l.3-.18.2-.12.5.3v.6Zm.3.51.48-.29.55.34-1,.61ZM17,11.93l-.55-.34V11L17,10.7Zm-9.9-.55A.57.57,0,0,1,7.26,11a.45.45,0,0,1,.33-.14.48.48,0,0,1,.24.06A.42.42,0,0,1,8,11.1a.64.64,0,0,1,0,.54.37.37,0,0,1-.17.18.44.44,0,0,1-.23.06.48.48,0,0,1-.24-.06.49.49,0,0,1-.16-.19A.54.54,0,0,1,7.13,11.38Zm.13,0a.44.44,0,0,0,.1.29.29.29,0,0,0,.23.1.31.31,0,0,0,.24-.1.45.45,0,0,0,.09-.3.51.51,0,0,0,0-.22A.41.41,0,0,0,7.76,11a.31.31,0,0,0-.17,0,.3.3,0,0,0-.23.1A.45.45,0,0,0,7.26,11.38ZM2.83,12.66v-.24h.73v.24Zm2,.61H4.55V11.7a1.05,1.05,0,0,1-.22.17,1.51,1.51,0,0,1-.25.13v-.24a1.45,1.45,0,0,0,.35-.24,1.5,1.5,0,0,0,.21-.26h.15Zm.75-.53.25,0a.43.43,0,0,0,.13.28.3.3,0,0,0,.24.1A.35.35,0,0,0,6.44,13a.5.5,0,0,0,.12-.35.49.49,0,0,0-.11-.33.41.41,0,0,0-.3-.12.35.35,0,0,0-.2.05.5.5,0,0,0-.15.14l-.22,0,.19-1h1v.24H6l-.11.53a.65.65,0,0,1,.37-.12.58.58,0,0,1,.42.18.68.68,0,0,1,.17.47.78.78,0,0,1-.15.47.59.59,0,0,1-.5.24.61.61,0,0,1-.43-.15A.66.66,0,0,1,5.54,12.74Zm4.22-.18.25.07a.89.89,0,0,1-.29.5.76.76,0,0,1-.5.17.88.88,0,0,1-.51-.13.86.86,0,0,1-.29-.38,1.4,1.4,0,0,1-.1-.54,1.35,1.35,0,0,1,.11-.55.86.86,0,0,1,.33-.35.9.9,0,0,1,.46-.12.73.73,0,0,1,.76.58l-.25.06a.59.59,0,0,0-.19-.31.49.49,0,0,0-.32-.1.58.58,0,0,0-.58.4,1.32,1.32,0,0,0-.06.39,1.16,1.16,0,0,0,.07.44.55.55,0,0,0,.22.29.63.63,0,0,0,.33.09.52.52,0,0,0,.36-.13A.66.66,0,0,0,9.76,12.56Z"/></symbol></defs><title>15HLADJENJE</title><g id="Layer_2" data-name="Layer 2"><g id="Layer_1-2" data-name="Layer 1"><use width="24.1" height="24.09" xlink:href="#_3.03_Hlađenje_na_-15oC"/></g></g></svg>