<svg xmlns="http://www.w3.org/2000/svg" xmlns:xlink="http://www.w3.org/1999/xlink" viewBox="0 0 24.1 24.09"><defs><style>.cls-1{fill:#d7bfd4;}.cls-2{fill:url(#linear-gradient);}.cls-3{fill:#fff;}</style><linearGradient id="linear-gradient" x1="7549.49" y1="9005.19" x2="7550.49" y2="9005.19" gradientTransform="matrix(22.68, 0, 0, -22.68, -171204.99, 204228.26)" gradientUnits="userSpaceOnUse"><stop offset="0" stop-color="#7c7c7b"/><stop offset="1" stop-color="#575756"/></linearGradient><symbol id="_3.02_Grejanje_na_-20oC" data-name="3.02 Grejanjena -20oC" viewBox="0 0 24.09 24.09"><rect class="cls-1" x="1.42" y="1.42" width="22.68" height="22.68"/><rect class="cls-2" width="22.68" height="22.68"/><path class="cls-3" d="M15.43,9.5a1.84,1.84,0,1,0,1.77,1.84A1.8,1.8,0,0,0,15.43,9.5m0,2.76a.92.92,0,1,1,.88-.92A.9.9,0,0,1,15.43,12.26Zm0-3.68a.45.45,0,0,0,.44-.46V7.19a.44.44,0,1,0-.88,0v.93A.45.45,0,0,0,15.43,8.58Zm2.19.94a.48.48,0,0,0,.31-.13l.62-.66a.48.48,0,0,0,0-.65.42.42,0,0,0-.62,0l-.63.65a.49.49,0,0,0,0,.66A.48.48,0,0,0,17.62,9.52Zm1.78,1.36h-.88a.46.46,0,0,0,0,.92h.88a.46.46,0,0,0,0-.92Zm-1.47,2.41a.43.43,0,0,0-.63,0,.48.48,0,0,0,0,.65l.63.66a.4.4,0,0,0,.31.13.43.43,0,0,0,.31-.13.49.49,0,0,0,0-.66Zm-2.5.81a.45.45,0,0,0-.44.46v.92a.44.44,0,1,0,.88,0v-.92A.45.45,0,0,0,15.43,14.1Zm-2.5-.81-.62.65a.47.47,0,0,0,0,.66.42.42,0,0,0,.31.13.43.43,0,0,0,.31-.13l.62-.66a.46.46,0,0,0,0-.65A.42.42,0,0,0,12.93,13.29Zm-.15-1.95a.45.45,0,0,0-.44-.46h-.88a.45.45,0,0,0-.45.46.46.46,0,0,0,.45.46h.88A.45.45,0,0,0,12.78,11.34Zm.15-2a.44.44,0,0,0,.31.14.45.45,0,0,0,.32-.14.48.48,0,0,0,0-.65l-.63-.65a.42.42,0,0,0-.62,0,.48.48,0,0,0,0,.65Zm-5.63,2a.56.56,0,0,1,.14-.4A.47.47,0,0,1,8,10.9a.45.45,0,0,1,.17.19.68.68,0,0,1,0,.56.37.37,0,0,1-.18.19.48.48,0,0,1-.24.07.52.52,0,0,1-.25-.07.55.55,0,0,1-.17-.2A.58.58,0,0,1,7.3,11.38Zm.14,0a.4.4,0,0,0,.1.3.32.32,0,0,0,.48,0,.43.43,0,0,0,.1-.31.48.48,0,0,0,0-.22A.36.36,0,0,0,8,11,.35.35,0,0,0,7.78,11a.33.33,0,0,0-.24.1A.45.45,0,0,0,7.44,11.38Zm-4.6,1.34v-.26h.75v.26Zm2.39.38v.24H3.91a.57.57,0,0,1,0-.18,1,1,0,0,1,.16-.27,3.19,3.19,0,0,1,.32-.32,2.53,2.53,0,0,0,.44-.44.53.53,0,0,0,.12-.3.35.35,0,0,0-.11-.26.36.36,0,0,0-.27-.1.34.34,0,0,0-.28.11.41.41,0,0,0-.11.3l-.25,0a.6.6,0,0,1,.65-.61.61.61,0,0,1,.45.17.57.57,0,0,1,.17.41.74.74,0,0,1-.05.25.85.85,0,0,1-.17.25,4.18,4.18,0,0,1-.37.37L4.35,13a.71.71,0,0,0-.1.14Zm.42-.78a2,2,0,0,1,.07-.6.7.7,0,0,1,.22-.34.48.48,0,0,1,.36-.13.64.64,0,0,1,.28.07.55.55,0,0,1,.2.2,1,1,0,0,1,.12.3,2.2,2.2,0,0,1,0,.5,2.32,2.32,0,0,1-.07.59.7.7,0,0,1-.22.34.57.57,0,0,1-.81-.09A1.33,1.33,0,0,1,5.65,12.32Zm.25,0A1.46,1.46,0,0,0,6,13a.36.36,0,0,0,.29.17A.35.35,0,0,0,6.58,13a1.32,1.32,0,0,0,.12-.68,1.34,1.34,0,0,0-.12-.69.33.33,0,0,0-.28-.16.29.29,0,0,0-.27.14A1.32,1.32,0,0,0,5.9,12.32Zm4.13.29.27.07a1,1,0,0,1-.3.52.81.81,0,0,1-.53.18A.91.91,0,0,1,9,13.24a.79.79,0,0,1-.31-.4,1.46,1.46,0,0,1-.11-.55,1.26,1.26,0,0,1,.12-.57A.94.94,0,0,1,9,11.35a1,1,0,0,1,.49-.12.79.79,0,0,1,.5.16.8.8,0,0,1,.28.44L10,11.9a.54.54,0,0,0-.2-.33.52.52,0,0,0-.33-.11.6.6,0,0,0-.38.12.54.54,0,0,0-.22.31,1.27,1.27,0,0,0-.06.39,1.33,1.33,0,0,0,.07.47.57.57,0,0,0,.23.29.61.61,0,0,0,.34.1A.52.52,0,0,0,9.82,13,.62.62,0,0,0,10,12.61Z"/></symbol></defs><title>20GREJANJE</title><g id="Layer_2" data-name="Layer 2"><g id="Layer_1-2" data-name="Layer 1"><use width="24.1" height="24.09" xlink:href="#_3.02_Grejanje_na_-20oC"/></g></g></svg>