<svg xmlns="http://www.w3.org/2000/svg" xmlns:xlink="http://www.w3.org/1999/xlink" viewBox="0 0 24.09 24.09"><defs><style>.cls-1{fill:#d7bfd4;}.cls-2{fill:url(#linear-gradient);}.cls-3{fill:#fff;}</style><linearGradient id="linear-gradient" x1="7554.72" y1="9005.2" x2="7555.72" y2="9005.2" gradientTransform="matrix(22.68, 0, 0, -22.68, -171316.92, 204220.5)" gradientUnits="userSpaceOnUse"><stop offset="0" stop-color="#7c7c7b"/><stop offset="1" stop-color="#575756"/></linearGradient><symbol id="_3.15_360o_Protok_vazduha" data-name="3.15 360oProtok vazduha" viewBox="0 0 24.09 24.09"><rect class="cls-1" x="1.42" y="1.42" width="22.68" height="22.68"/><rect class="cls-2" width="22.68" height="22.68"/><path class="cls-3" d="M12,6.69v.6c0,.17,0,.33-.05.5-.09.66-.17,1.32-.28,2H11c-.1-.66-.18-1.32-.27-2,0-.17,0-.33,0-.5s0-.33,0-.49V6.69l-1.22.52,1.85-4.37,1.84,4.37Zm7.88,4.65L15.47,9.49,16,10.71h-.61l-.49,0-2,.27v.59c.66.11,1.32.19,2,.28l.49.05H16l-.52,1.22ZM12,16v-.6c0-.17,0-.33-.05-.5-.09-.66-.17-1.32-.28-2H11c-.1.66-.18,1.32-.27,2,0,.17,0,.33,0,.5s0,.33,0,.49V16l-1.22-.52,1.85,4.37,1.84-4.37ZM7.79,10.77l-.5,0h-.6l.52-1.22L2.83,11.34l4.38,1.84L6.69,12h.6l.5-.05c.66-.09,1.32-.17,2-.28V11Zm3.55-.34a.91.91,0,1,0,.91.91A.91.91,0,0,0,11.34,10.43Zm5.15-3.87,0,0-.15.15-.17.13-.68.52-.18-.18.52-.69a1.83,1.83,0,0,1,.13-.16l.15-.15,0,0L15.58,6l1.89-.77-.76,1.89Zm1,10.92-.76-1.89-.22.52,0,0-.15-.15a1.09,1.09,0,0,0-.17-.13l-.68-.52-.18.18.52.68a1.09,1.09,0,0,0,.13.17l.15.15,0,0-.53.22Zm-10.91-1,0,0,.14-.15a1.15,1.15,0,0,0,.14-.17l.52-.68-.18-.18-.69.52-.16.13-.15.15,0,0L6,15.59,5.2,17.48l1.89-.77Zm.32-10-.14-.16L6.6,6.22l0,0L7.09,6,5.2,5.2,6,7.09l.21-.53,0,0,.15.15.16.13.69.52.18-.18Z"/></symbol></defs><title>360PROTOK</title><g id="Layer_2" data-name="Layer 2"><g id="Layer_1-2" data-name="Layer 1"><use width="24.09" height="24.09" xlink:href="#_3.15_360o_Protok_vazduha"/></g></g></svg>