<svg xmlns="http://www.w3.org/2000/svg" xmlns:xlink="http://www.w3.org/1999/xlink" viewBox="0 0 24.1 24.09"><defs><style>.cls-1{fill:#d7bfd4;}.cls-2{fill:url(#linear-gradient);}.cls-3{fill:#fff;}</style><linearGradient id="linear-gradient" x1="7550.79" y1="9005.2" x2="7551.79" y2="9005.2" gradientTransform="matrix(22.68, 0, 0, -22.68, -171227.64, 204220.5)" gradientUnits="userSpaceOnUse"><stop offset="0" stop-color="#7c7c7b"/><stop offset="1" stop-color="#575756"/></linearGradient><symbol id="_3.01_8_oC_Grejanje" data-name="3.01 8 oC Grejanje" viewBox="0 0 24.09 24.09"><rect class="cls-1" x="1.42" y="1.42" width="22.68" height="22.68"/><rect class="cls-2" width="22.68" height="22.68"/><path class="cls-3" d="M7.41,15.68A1.25,1.25,0,0,1,7,13.54a1.8,1.8,0,0,1,1.13-.36,1.74,1.74,0,0,1,1.12.34,1.1,1.1,0,0,1,.43.92,1.31,1.31,0,0,1-.92,1.24h0a1.47,1.47,0,0,1,.77.5,1.21,1.21,0,0,1,.28.79,1.27,1.27,0,0,1-.48,1.07A2.1,2.1,0,0,1,8,18.43a1.76,1.76,0,0,1-1.16-.38,1.2,1.2,0,0,1-.46-1,1.41,1.41,0,0,1,1-1.35m.68.41a.94.94,0,0,0-.71.88.61.61,0,0,0,.22.48.85.85,0,0,0,1.06,0A.62.62,0,0,0,8.87,17C8.87,16.58,8.61,16.29,8.09,16.11Zm.66-1.58a.58.58,0,0,0-.17-.43A.61.61,0,0,0,8.15,14a.63.63,0,0,0-.44.16.55.55,0,0,0-.18.43c0,.33.2.58.61.75A.84.84,0,0,0,8.75,14.53Zm2.5.67a.9.9,0,0,1-.68-.29,1,1,0,0,1-.28-.71,1,1,0,0,1,.28-.71.93.93,0,0,1,1.37,0,1,1,0,0,1,0,1.42.94.94,0,0,1-.69.29m0-1.49a.43.43,0,0,0-.33.15.45.45,0,0,0-.13.34.48.48,0,0,0,.13.33.44.44,0,0,0,.33.14.42.42,0,0,0,.32-.14.49.49,0,0,0,.14-.33.5.5,0,0,0-.14-.35A.45.45,0,0,0,11.26,13.71Zm4.93,4.43a3.23,3.23,0,0,1-1.43.28,2.35,2.35,0,0,1-1.81-.7,2.47,2.47,0,0,1-.67-1.81,2.67,2.67,0,0,1,.75-2A2.57,2.57,0,0,1,15,13.18a3.54,3.54,0,0,1,1.24.2v1A2.43,2.43,0,0,0,15,14.12a1.64,1.64,0,0,0-1.22.47,1.67,1.67,0,0,0-.46,1.24A1.66,1.66,0,0,0,13.78,17a1.56,1.56,0,0,0,1.16.44,2.55,2.55,0,0,0,1.25-.32Zm.75-6.43a.37.37,0,0,0,0-.73H5.74a.37.37,0,0,0,0,.73h11.2M6,10.62a.27.27,0,0,0,.13,0c1.26-.51,1.9-1.1,2-1.81a1.72,1.72,0,0,0-.76-1.43h0c-.47-.47-.66-.88-.58-1.23.14-.62,1.1-1,1.45-1.16a.38.38,0,0,0,.24-.46A.35.35,0,0,0,8,4.27c-.17.05-1.67.55-1.93,1.69a2.14,2.14,0,0,0,.82,2s.55.38.51.79c0,.23-.25.68-1.52,1.2a.37.37,0,0,0-.2.47.33.33,0,0,0,.32.23m4.4,0a.25.25,0,0,0,.12,0c1.26-.51,1.9-1.1,2-1.81a1.72,1.72,0,0,0-.77-1.43h0c-.46-.47-.66-.88-.58-1.23.15-.62,1.1-1,1.46-1.16a.37.37,0,0,0,.23-.46.35.35,0,0,0-.44-.24c-.17.05-1.67.55-1.93,1.69a2.13,2.13,0,0,0,.83,2s.54.38.5.79c0,.23-.25.68-1.52,1.2a.37.37,0,0,0-.2.47.33.33,0,0,0,.33.23m4.19,0a.25.25,0,0,0,.12,0c1.26-.51,1.9-1.1,2-1.81a1.72,1.72,0,0,0-.77-1.43h0c-.46-.47-.66-.88-.58-1.23.15-.62,1.1-1,1.46-1.16A.37.37,0,0,0,17,4.51a.35.35,0,0,0-.44-.24c-.17.05-1.67.55-1.93,1.69a2.13,2.13,0,0,0,.83,2s.54.38.5.79c0,.23-.25.68-1.52,1.2a.37.37,0,0,0-.2.47.34.34,0,0,0,.33.23"/></symbol></defs><title>8GREJANJE</title><g id="Layer_2" data-name="Layer 2"><g id="Layer_1-2" data-name="Layer 1"><use width="24.1" height="24.09" xlink:href="#_3.01_8_oC_Grejanje"/></g></g></svg>