<svg xmlns="http://www.w3.org/2000/svg" xmlns:xlink="http://www.w3.org/1999/xlink" viewBox="0 0 24.1 24.09"><defs><style>.cls-1{fill:#816daf;}.cls-2{fill:url(#linear-gradient);}.cls-3{fill:#fff;}</style><linearGradient id="linear-gradient" x1="7549.49" y1="9005.19" x2="7550.49" y2="9005.19" gradientTransform="matrix(22.68, 0, 0, -22.68, -171204.99, 204228.26)" gradientUnits="userSpaceOnUse"><stop offset="0" stop-color="#7c7c7b"/><stop offset="1" stop-color="#575756"/></linearGradient><symbol id="_7.06_Automatski_defrost" data-name="7.06 Automatski defrost" viewBox="0 0 24.09 24.09"><rect class="cls-1" x="1.42" y="1.42" width="22.68" height="22.68"/><rect class="cls-2" width="22.68" height="22.68"/><path class="cls-3" d="M19.61,10.27h-2.2l1.06-1.85L18,7.94l-.63-.15L16,10.27H12.42L14.2,7.16H17l.26-.62L17,5.91H14.93L16,4l-.42-.52L15,3.36,13.85,5.27l-1-1.85-.63.15-.46.48,1.41,2.48L11.34,9.61,9.58,6.51,11,4.05l-.46-.48-.62-.15L8.86,5.26,7.77,3.33l-.66.11L6.68,4l1.1,1.92H5.66l-.26.64.26.63H8.5l1.76,3.13H6.72L5.31,7.75l-.67.08-.42.54,1,1.9H3.07l-.23.63h.47l-.4.71a8.55,8.55,0,0,0,.37,1.89l1.45-2.6H6L3.82,14.78A8.37,8.37,0,0,0,4.58,16L7.41,10.9H8.67l-3.34,6a8.41,8.41,0,0,0,1,.82l3.79-6.79h1.25L7.22,18.29a7.76,7.76,0,0,0,1.13.53l4.42-7.92H14l-4.6,8.25a9.64,9.64,0,0,0,1.31.2l4.72-8.45H16.7L12,19.35a9.89,9.89,0,0,0,1.57-.27l4.57-8.18h1.25l-4.23,7.57a8.48,8.48,0,0,0,2.48-1.88l1.88-3.37a8.5,8.5,0,0,0,.33-2.32Z"/></symbol></defs><title>ADEFROST</title><g id="Layer_2" data-name="Layer 2"><g id="Layer_1-2" data-name="Layer 1"><use width="24.1" height="24.09" xlink:href="#_7.06_Automatski_defrost"/></g></g></svg>