<svg xmlns="http://www.w3.org/2000/svg" xmlns:xlink="http://www.w3.org/1999/xlink" viewBox="0 0 24.09 24.09"><defs><style>.cls-1{fill:#86bb50;}.cls-2{fill:url(#linear-gradient);}.cls-3{fill:#fff;}</style><linearGradient id="linear-gradient" x1="7553.42" y1="9005.19" x2="7554.42" y2="9005.19" gradientTransform="matrix(22.68, 0, 0, -22.68, -171291.11, 204224.81)" gradientUnits="userSpaceOnUse"><stop offset="0" stop-color="#7c7c7b"/><stop offset="1" stop-color="#575756"/></linearGradient><symbol id="_2.02_Aktiv_karbon_filter" data-name="2.02 Aktiv karbon filter" viewBox="0 0 24.09 24.09"><rect class="cls-1" x="1.42" y="1.42" width="22.68" height="22.68"/><rect class="cls-2" width="22.68" height="22.68"/><path class="cls-3" d="M18.11,7.42H17.6V6.84a.32.32,0,0,0-.32-.33h-.84V5.66a.31.31,0,0,0-.31-.32H4.56a.31.31,0,0,0-.31.32v9.27a.32.32,0,0,0,.31.33h.85v.84a.32.32,0,0,0,.31.33h.51V17a.32.32,0,0,0,.32.33H18.11a.33.33,0,0,0,.32-.33V7.75A.33.33,0,0,0,18.11,7.42Zm-.31.92h-.2V8.07h.2Zm-10,8.35v-.25H8v.25ZM17,8.07v.27h-.26V8.07ZM8,9.92v.28H7.78V9.92Zm-.26-.65V9H8v.28ZM8,10.85v.28H7.78v-.28Zm0,.93v.28H7.78v-.28Zm0,.94V13H7.78v-.28Zm0,.93v.28H7.78v-.28Zm0,.93v.28H7.78v-.28Zm.63,1.2v-.27h.27v.27Zm.27-5.86v.28H8.67V9.92Zm-.27-.65V9h.27v.28Zm.27,1.58v.28H8.67v-.28Zm0,.93v.28H8.67v-.28Zm0,.94V13H8.67v-.28Zm0,.93v.28H8.67v-.28Zm0,.93v.28H8.67v-.28Zm.62,1.2v-.27h.27v.27Zm.27-5.86v.28H9.56V9.92Zm-.27-.65V9h.27v.28Zm.27,1.58v.28H9.56v-.28Zm0,.93v.28H9.56v-.28Zm0,.94V13H9.56v-.28Zm0,.93v.28H9.56v-.28Zm0,.93v.28H9.56v-.28Zm.63,1.2v-.27h.26v.27Zm.26-5.86v.28h-.26V9.92Zm-.26-.65V9h.26v.28Zm.26,1.58v.28h-.26v-.28Zm0,.93v.28h-.26v-.28Zm0,.94V13h-.26v-.28Zm0,.93v.28h-.26v-.28Zm0,.93v.28h-.26v-.28Zm.63,1.2v-.27h.27v.27Zm.27-5.86v.28h-.27V9.92Zm-.27-.65V9h.27v.28Zm.27,1.58v.28h-.27v-.28Zm0,.93v.28h-.27v-.28Zm0,.94V13h-.27v-.28Zm0,.93v.28h-.27v-.28Zm0,.93v.28h-.27v-.28Zm.62,1.2v-.27h.27v.27Zm.27-5.86v.28h-.27V9.92Zm-.27-.65V9h.27v.28Zm.27,1.58v.28h-.27v-.28Zm0,.93v.28h-.27v-.28Zm0,.94V13h-.27v-.28Zm0,.93v.28h-.27v-.28Zm0,.93v.28h-.27v-.28Zm.63,1.2v-.27h.26v.27Zm.26-5.86v.28h-.26V9.92Zm-.26-.65V9h.26v.28Zm.26,1.58v.28h-.26v-.28Zm0,.93v.28h-.26v-.28Zm0,.94V13h-.26v-.28Zm0,.93v.28h-.26v-.28Zm0,.93v.28h-.26v-.28Zm.63,1.2v-.27h.27v.27Zm.27-5.86v.28H14V9.92ZM14,9.27V9h.27v.28Zm.27,1.58v.28H14v-.28Zm0,.93v.28H14v-.28Zm0,.94V13H14v-.28Zm0,.93v.28H14v-.28Zm0,.93v.28H14v-.28Zm.62,1.2v-.27h.27v.27Zm.27-5.86v.28h-.27V9.92Zm-.27-.65V9h.27v.28Zm.27,1.58v.28h-.27v-.28Zm0,.93v.28h-.27v-.28Zm0,.94V13h-.27v-.28Zm0,.93v.28h-.27v-.28Zm0,.93v.28h-.27v-.28Zm.63,1.2v-.27h.26v.27Zm.26-5.86v.28h-.26V9.92Zm-.26-.65V9h.26v.28Zm.26,1.58v.28h-.26v-.28Zm0,.93v.28h-.26v-.28Zm0,.94V13h-.26v-.28Zm0,.93v.28h-.26v-.28Zm0,.93v.28h-.26v-.28Zm.63,1.2v-.27H17v.27Zm0-.92v-.28H17v.28Zm0-.93v-.28H17v.28Zm0-.93v-.28H17V13Zm0-.94v-.28H17v.28Zm0-.93v-.28H17v.28Zm0-.93V9.92H17v.28Zm0-.93V9H17v.28Zm-.63-1.2v.27h-.26V8.07Zm-.89,0v.27h-.27V8.07Zm-.89,0v.27H14V8.07Zm-.9,0v.27h-.26V8.07Zm-.89,0v.27h-.27V8.07Zm-.89,0v.27h-.27V8.07Zm-.9,0v.27h-.26V8.07Zm-.89,0v.27H9.56V8.07Zm-.89,0v.27H8.67V8.07Zm-.9,0v.27H7.78V8.07Zm0,7.44v.27H7.78v-.27Zm.63,1.18v-.25h.27v.25Zm.89,0v-.25h.27v.25Zm.9,0v-.25h.26v.25Zm.89,0v-.25h.27v.25Zm.89,0v-.25h.27v.25Zm.9,0v-.25h.26v.25Zm.89,0v-.25h.27v.25Zm.89,0v-.25h.27v.25Zm.9,0v-.25h.26v.25Zm.89,0v-.25H17v.25ZM6.86,8.07h.29v.27H6.86Zm0,.92h.29v.28H6.86Zm0,.93h.29v.28H6.86Zm0,.93h.29v.28H6.86Zm0,.93h.29v.28H6.86Zm0,.94h.29V13H6.86Zm0,.93h.29v.28H6.86Zm0,.93h.29v.28H6.86Zm0,.93h.29v.27H6.86Zm.29.93v.25H6.86v-.25Zm10.45.25v-.25h.2v.25Zm0-.9v-.28h.2v.28Zm0-.93v-.28h.2v.28Zm0-.93v-.28h.2v.28Zm0-.93v-.28h.2V13Zm0-.94v-.28h.2v.28Zm0-.93v-.28h.2v.28Zm0-.93V9.92h.2v.28Zm0-.93V9h.2v.28ZM4.88,14.6V6H15.82v.52H5.72a.32.32,0,0,0-.31.33V14.6ZM6,15.78v-.85H6V7.16H17v.26H6.55a.32.32,0,0,0-.32.33v8Z"/></symbol></defs><title>AKFILTER</title><g id="Layer_2" data-name="Layer 2"><g id="Layer_1-2" data-name="Layer 1"><use width="24.09" height="24.09" xlink:href="#_2.02_Aktiv_karbon_filter"/></g></g></svg>