<svg xmlns="http://www.w3.org/2000/svg" xmlns:xlink="http://www.w3.org/1999/xlink" viewBox="0 0 24.09 24.09"><defs><style>.cls-1{fill:none;}.cls-2{fill:#ea5d29;}.cls-3{fill:url(#linear-gradient);}.cls-4{isolation:isolate;}.cls-5{clip-path:url(#clip-path);}.cls-6{fill:#fff;}</style><linearGradient id="linear-gradient" x1="7554.72" y1="9005.2" x2="7555.72" y2="9005.2" gradientTransform="matrix(22.68, 0, 0, -22.68, -171316.92, 204220.5)" gradientUnits="userSpaceOnUse"><stop offset="0" stop-color="#7c7c7b"/><stop offset="1" stop-color="#575756"/></linearGradient><clipPath id="clip-path"><polygon class="cls-1" points="6.62 15.55 4.46 12.03 17.47 8.54 19.63 12.07 6.62 15.55"/></clipPath><symbol id="_4.12_Aluminijumski_izmenjvač_sa_hidrof_ilnim_slojem" data-name="4.12 Aluminijumskiizmenjvač sahidrof ilnimslojem" viewBox="0 0 24.09 24.09"><rect class="cls-2" x="1.42" y="1.42" width="22.68" height="22.68"/><rect class="cls-3" width="22.68" height="22.68"/><g class="cls-4"><g class="cls-5"><path class="cls-6" d="M8.12,14.61A1,1,0,0,1,7,14.3c-.18-.29,0-.61.47-.73a1,1,0,0,1,1.1.31c.18.29,0,.61-.47.73M10.48,14a1,1,0,0,1-1.1-.31c-.18-.29,0-.61.47-.73a1,1,0,0,1,1.1.31c.18.28,0,.61-.47.73m2.36-.64a1,1,0,0,1-1.1-.3c-.18-.29,0-.62.47-.73a1,1,0,0,1,1.1.3c.18.29,0,.62-.47.73m2.36-.63a1,1,0,0,1-1.1-.31c-.18-.28,0-.61.47-.73a1.05,1.05,0,0,1,1.1.31c.18.29,0,.62-.47.73m2.36-.63a1,1,0,0,1-1.1-.31c-.18-.29,0-.61.47-.73a1,1,0,0,1,1.1.31c.18.29,0,.61-.47.73m-10.39,1a1,1,0,0,1-1.11-.31c-.17-.28,0-.61.47-.72a1.05,1.05,0,0,1,1.11.3c.17.29,0,.62-.47.73m2.36-.63a1,1,0,0,1-1.11-.31c-.17-.28,0-.61.47-.73a1.05,1.05,0,0,1,1.11.31c.17.29,0,.61-.47.73m2.36-.63a1.05,1.05,0,0,1-1.11-.31c-.17-.29,0-.61.47-.73a1,1,0,0,1,1.11.31c.17.28,0,.61-.47.73m2.36-.63a1.07,1.07,0,0,1-1.11-.31c-.17-.29,0-.61.47-.73a1,1,0,0,1,1.11.31c.17.28,0,.61-.47.73m2.36-.64a1,1,0,0,1-1.11-.31c-.17-.28,0-.61.47-.72a1,1,0,0,1,1.11.3c.17.29,0,.62-.47.73m.86-2L4.46,12l2.16,3.52,13-3.48L17.47,8.54"/></g></g></symbol></defs><title>ALUIZM</title><g id="Layer_2" data-name="Layer 2"><g id="Layer_1-2" data-name="Layer 1"><use width="24.09" height="24.09" xlink:href="#_4.12_Aluminijumski_izmenjvač_sa_hidrof_ilnim_slojem"/></g></g></svg>