<svg xmlns="http://www.w3.org/2000/svg" xmlns:xlink="http://www.w3.org/1999/xlink" viewBox="0 0 24.09 24.09"><defs><style>.cls-1{fill:#eadee9;}.cls-2{fill:url(#linear-gradient);}.cls-3{fill:#fff;}</style><linearGradient id="linear-gradient" x1="7557.35" y1="9005.2" x2="7558.35" y2="9005.2" gradientTransform="matrix(22.68, 0, 0, -22.68, -171379.63, 204223.96)" gradientUnits="userSpaceOnUse"><stop offset="0" stop-color="#7c7c7b"/><stop offset="1" stop-color="#575756"/></linearGradient><symbol id="_3.13_Nisko_ambijentalno_hlađenje" data-name="3.13 Niskoambijentalnohlađenje" viewBox="0 0 24.09 24.09"><rect class="cls-1" x="1.42" y="1.42" width="22.68" height="22.68"/><rect class="cls-2" width="22.68" height="22.68"/><path class="cls-3" d="M16.74,12.72,16,12V10.36H14.7v.28L12.59,8.47c-.1-.12-.34-.08-.34-.08s-.24,0-.34.08-4.14,4.25-4.14,4.25-.3.38,0,.67a.32.32,0,0,0,.44,0V16.6a1.24,1.24,0,0,0,1.11,1.33h5.87a1.24,1.24,0,0,0,1.12-1.33V13.44a.31.31,0,0,0,.43,0c.29-.29,0-.67,0-.67m-1.55,4.67H9.32a.74.74,0,0,1-.66-.79V13l3.59-3.68,2.45,2.51.67.69.49.49v3.6a.74.74,0,0,1-.67.79M9.35,9.06,9,9.26V9.18L9.35,9V8.72L9,8.92V8.83l.34-.2V8.21l-.27.16v.16L9,8.57V8.41l-.14.08V8.41L9,8.33V8l-.35.21v.4l-.07,0V8.28l-.22.13V8.8l-.07,0v-.4l-.36.21,0-.06.36-.21-.34-.2.07,0,.34.19.23-.13L8.19,8l.08,0,.34.2L9,8,8.71,7.8l-.14.09-.08,0,.14-.08L8.5,7.69l.07-.05.14.08L9,7.57l-.36-.21-.34.2-.08,0,.34-.2-.22-.13L8,7.39l-.08,0,.34-.2-.36-.21,0-.06.36.21v-.4l.07,0v.4l.23.13v-.4l.07,0v.4L9,7.51V7.2l-.14-.08V7L9,7.11V7l.07,0v.15l.26.15V6.89L9,6.7V6.61l.34.2V6.55L9,6.35V6.27l.35.19V6h.07v.42l.34-.2v.09l-.34.2v.26l.35-.2v.08l-.35.2v.42l.27-.15V7l.08,0v.16L9.89,7v.09l-.13.08v.3l.36-.21V6.9l.08-.05v.4l.22-.13v-.4l.07,0v.39l.37-.21,0,.07-.37.21.35.19-.08,0-.34-.2-.23.13.35.2-.07,0-.35-.19-.36.21.27.15.14-.08.07,0-.14.08.14.08-.08,0-.13-.07L9.8,8l.36.2L10.5,8l.07,0-.34.2.23.13.34-.2.07,0-.34.2.36.21,0,.06-.37-.2v.39l-.08,0V8.4l-.23-.13v.39l-.08,0v-.4L9.76,8v.31l.14.08v.08l-.14-.08v.16l-.08,0V8.37l-.26-.15v.41l.35.2v.08l-.35-.19V9l.34.19v.09l-.34-.2v.42H9.36ZM9.08,8v.31l.27-.16v-.3Zm.34.16.26.15V8l-.26-.15Zm-.64-.38.27.15.26-.15L9,7.61Zm.68,0,.27.16L10,7.76l-.27-.15Zm-.38-.21.27.15V7.39l-.26-.15Zm.34-.15v.3l.27-.16v-.3Zm5.08.71-.09.05v0l.09-.06V8l-.09.05v0L14.5,8V7.88l-.07,0V8h0v0l0,0v0l0,0V7.83l-.1.06V8h0V7.9l-.06,0V8h0V7.94L14.12,8V8l.09-.05-.09,0,0,0,.09.06.06,0-.09,0h0l.09,0,.1-.06-.07,0,0,0h0l0,0,0,0h0l0,0,.07,0-.1,0-.09,0h0l.09,0-.06,0-.09,0h0l.09-.05-.09-.06h0l.1,0v-.1h0v.1l.06,0V7.52h0v.11l.1.05V7.61l0,0v0l0,0v0h0v0l.07,0V7.53l-.1,0v0l.1,0V7.44l-.1-.05v0l.1,0V7.3h0v.12l.09-.06v0l-.09.05v.07l.09-.06v0l-.09,0v.11l.07,0v0h0v0l0,0v0l0,0v.08l.09-.05V7.53h0v.11l.06,0v-.1l0,0v.11l.1-.06v0l-.1.06.09.05h0l-.09,0-.06,0,.09.06h0l-.09-.06-.09.06.07,0,0,0h0l0,0,0,0h0l0,0-.07,0,.09.06.09-.06,0,0-.1,0,.06,0,.09,0h0l-.09,0,.1.06V8l-.1-.06v.11h0V7.93l-.06,0V8h0V7.88l-.09,0v.08l0,0V8l0,0V8h0v0l-.07,0V8l.09.06v0L14.52,8v.06l.09.06v0l-.09-.05v.11h0Zm-.07-.29V7.9l.07,0V7.78Zm.09,0,.07,0V7.82l-.07,0Zm-.17-.1.07,0,.07,0-.07,0Zm.18,0,.07,0,.07,0-.07,0Zm-.1,0,.07,0V7.66l-.07,0Zm.09,0v.08l.07,0V7.62ZM6,11.51l-.14.08v0L6,11.47v-.1l-.13.08v0L6,11.33v-.17l-.1.07v.06l0,0v-.07l-.06,0v0l.06,0v-.12l-.14.08v.16l0,0v-.16l-.09.05v.16l0,0v-.16l-.14.08,0,0,.15-.09-.14-.08h0l.14.08.09-.06-.14-.08h0l.13.08.15-.09L5.69,11l-.05,0,0,0,0,0,0,0,0,0,.05,0,.11-.06-.15-.08-.13.08,0,0,.13-.08-.09-.05-.14.08h0l.14-.09-.14-.08v0l.15.09v-.16l0,0v.16l.09,0v-.16h0v.16l.15.09v-.13l-.06,0v0l.06,0v-.06h0v.07l.1.06v-.17l-.14-.08v0L6,10.6v-.11l-.14-.08v0l.14.08v-.17H6v.17l.14-.09v0L6,10.49v.11l.14-.09v0L6,10.63v.17l.11-.06v-.07l0,0v.07l0,0v0l0,0v.12l.14-.08v-.16l0,0v.16l.09,0v-.16l0,0v.16l.15-.08v0l-.14.09.14.08,0,0-.14-.08-.09.05.14.08,0,0-.14-.08-.15.08.11.06.06,0,0,0-.06,0,.06,0,0,0-.06,0-.1.06.14.08.14-.08,0,0-.14.08.09.05.14-.08,0,0-.14.08.15.08,0,0-.14-.09v.16h0v-.16l-.09-.05v.16l0,0v-.16l-.15-.09v.13l.06,0v0l-.06,0v.07l0,0v-.06L6,11.17v.16l.14.08v0L6,11.37v.1l.13.08v0L6,11.51v.17H6Zm-.12-.44v.12l.1-.06V11Zm.14.06.11.06v-.12L6,11ZM5.72,11l.11.06L5.94,11l-.11-.06ZM6,11l.11.06.1-.06-.11-.06Zm-.15-.08L6,11v-.13l-.1-.06ZM6,10.83V11l.11-.07v-.12ZM18,12l-.16.1v0L18,12v-.12l-.17.09v0l.17-.1v-.2l-.13.08v.08l0,0v-.08l-.06,0v0l.06,0V11.5l-.17.1v.19l0,0v-.19l-.11.07v.19l0,0v-.19l-.17.1,0,0,.18-.1-.17-.1,0,0,.16.1.11-.07-.17-.09,0,0,.16.09.18-.1-.13-.07-.07,0,0,0,.06,0-.06,0,0,0,.06,0,.12-.08-.17-.09-.16.09,0,0,.17-.09-.11-.07-.16.1,0,0,.16-.1-.17-.1,0,0,.17.1v-.19l0,0v.19l.11.07V11l0,0v.19l.18.1v-.15l-.06,0v0l.06,0V11l0,0v.08l.13.07V11l-.16-.09v0l.16.09V10.8l-.16-.1v0l.16.09v-.2h0v.2l.16-.09v0l-.16.1v.12l.16-.1v0L18,11v.2l.13-.07V11l0,0v.08l.07,0v0l-.06,0v.14l.17-.1V11l0,0v.19l.11-.06v-.19l0,0v.19l.17-.1,0,0-.18.1.17.09,0,0-.16-.09-.11.06.16.1,0,0-.17-.1-.17.1.13.08.07,0,0,0-.07,0,.07,0,0,0-.06,0-.13.07.18.1.16-.1,0,0-.16.1.11.06.16-.1,0,0-.17.1.18.1,0,0-.17-.1v.19l0,0v-.19l-.11-.06v.19l0,0V11.6l-.18-.1v.15l.07,0v0l-.07,0v.07l0,0v-.07L18,11.6v.19l.17.1v0L18,11.84V12l.16.09v0L18,12v.2h0Zm-.13-.52v.15l.13-.08v-.14Zm.16.08.13.07v-.15L18,11.41Zm-.31-.18.13.07.13-.07-.13-.08Zm.33,0,.13.07.12-.07-.13-.08Zm-.18-.1.13.07V11.2l-.13-.07ZM18,11.2v.15l.13-.08v-.14ZM6.8,17.86,6.65,18v0l.15-.09v-.12l-.15.09v0l.15-.09v-.19l-.12.07v.08l0,0v-.08l-.06,0v0l.06,0V17.4l-.16.09v.18l0,0v-.18l-.1.06v.18l0,0v-.18l-.16.09,0,0,.16-.1-.15-.09,0,0,.16.09.1-.06-.16-.08,0,0,.16.08.16-.09-.12-.07-.06,0,0,0,.07,0-.06,0,0,0,.06,0,.12-.07-.16-.09-.16.09,0,0,.15-.09-.09,0-.16.09,0,0L6.3,17l-.16-.1v0l.17.09V16.8l0,0V17l.1.05v-.17l0,0v.17l.17.1V17l-.06,0v0l.06,0v-.07l0,0V17l.12.07v-.19l-.16-.09v0l.16.08v-.11l-.16-.09v0l.16.09v-.19h0v.19L7,16.61v0l-.15.09v.11L7,16.76v0l-.15.09v.19L7,17v-.07l0,0V17L7,17v0L7,17v.13l.16-.09v-.18l0,0v.18l.1-.06v-.18h0V17l.16-.09,0,0L7.32,17l.16.09,0,0L7.29,17l-.1.06.16.09,0,0-.15-.09L7,17.19l.12.07.06,0,0,0-.06,0,.06,0,0,0-.06,0L7,17.37l.16.09.16-.09,0,0-.15.09.1.06.15-.09,0,0-.15.08.16.1v0l-.17-.1v.18l0,0v-.18l-.1,0v.17h0v-.18L7,17.4v.13l.07,0v0l-.07,0v.07l0,0v-.07l-.12-.06v.18l.16.09v0l-.16-.09v.12l.16.08v0l-.16-.09v.19h0Zm-.12-.48v.14l.12-.08v-.13Zm.15.07.12.07v-.14l-.12-.07Zm-.28-.17.12.07.11-.07-.12-.07Zm.3,0,.12.07.12-.07L7,17.21Zm-.17-.09.12.06v-.14l-.12-.06Zm.15-.07v.13L7,17.18v-.13Zm10.92,0-.2.11v-.05l.2-.11V17l-.2.11V17l.2-.11v-.25l-.16.09v.1l0,0v-.09l-.08,0v-.05l.08,0v-.18l-.21.12v.23l0,0V16.7l-.13.08V17l0,0V16.8l-.21.12,0,0,.21-.13-.2-.11.05,0,.2.12.13-.08-.2-.11,0,0,.2.12.21-.13-.16-.09-.08,0,0,0,.08-.05-.08,0,.05,0,.07,0,.16-.08-.21-.12-.2.11-.05,0,.2-.12-.13-.07-.2.11,0,0,.2-.12-.21-.12,0,0,.21.13v-.23l0,0V16l.13.07v-.23l.05,0v.23l.21.12v-.18L17.47,16v0l.08,0v-.09l0,0v.09l.16.08v-.24l-.21-.11v0l.2.11v-.15l-.2-.11v-.05l.2.11V15.4h0v.24l.19-.11v0l-.2.12v.15l.2-.11v0l-.2.11v.25l.16-.09V16l0,0V16l.08,0v0l-.08.05v.18l.21-.13v-.23l0,0v.23l.13-.08v-.23l0,0V16l.21-.13,0,0-.22.13.2.11,0,0-.2-.11-.13.08.2.11,0,0-.2-.12-.21.13.15.09.09-.05,0,0-.08,0,.08,0-.05,0-.08,0-.15.08.21.12.2-.11,0,0-.2.12.13.07.2-.12.05,0-.2.11.21.13,0,0-.21-.12V17l0,0v-.23l-.13-.08v.23l0,0v-.23L18,16.55v.18l.08.05v0l-.08,0v.09l0,0v-.09l-.16-.08v.24L18,17v.05l-.2-.11v.15l.21.11v.05l-.21-.11v.24h-.05Zm-.16-.63v.17l.16-.09v-.17Zm.2.09.16.08v-.18l-.15-.08Zm-.37-.22.16.09.15-.09-.16-.09Zm.39,0,.16.09.15-.09L18,16.31Zm-.22-.12.16.08v-.18l-.16-.09Zm.2-.09v.17l.16-.09V16.1ZM6.13,16.07l-.08.05v0l.08-.05V16l-.08,0v0l.08,0v-.09l-.06,0v0h0v0H6v0l0,0v-.06l-.08,0V16H6v-.09l0,0V16h0v-.09L5.81,16h0l.08-.05-.08-.05h0l.07.05.06,0-.08-.05h0l.08,0,.09,0-.07,0,0,0h0l0,0,0,0H6l0,0,.06,0-.08,0-.08,0h0l.07,0-.05,0-.07,0h0l.08,0-.09-.05h0l.09,0v-.09h0v.09l0,0v-.09H6v.09l.08.05v-.07l0,0v0l0,0v0h0v0l.06,0v-.09l-.08-.05h0l.08,0V15.5l-.08,0v0l.08,0v-.09h0v.09l.08,0v0l-.08,0v.06l.08,0h0l-.08.05v.1l.07,0v0h0v0l0,0v0l0,0v.07l.08-.05v-.09h0v.09l0,0v-.09h0v.09l.08,0v0l-.09.05.08,0h0l-.08,0,0,0,.08,0h0l-.08,0-.08,0,.06,0,0,0h0l0,0h0l-.06,0,.08,0,.08,0h0l-.08.05,0,0,.08-.05h0l-.07.05.08,0v0l-.08-.05V16h0v-.09l0,0V16h0v-.09l-.09-.05v.08h0v0h0v0h0v0l0,0V16l.07,0v0l-.07,0v.06l.07.05v0l-.07-.05v.1h0Zm-.06-.24v.07l.06,0v-.07Zm.08,0,0,0v-.07l0,0ZM6,15.78l.06,0,.06,0-.06,0Zm.15,0,.07,0,0,0-.06,0Zm-.08,0,.06,0v-.07l-.06,0Zm.07,0v.07l.06,0v-.07Zm5.56-1.62,0,0a.64.64,0,0,1-.11-.16H13a.91.91,0,0,1-.11.16l0,0H11.7m-.32-.18h0a1,1,0,0,0,.1.17h-.89V13.9h.79m1.66.18a.69.69,0,0,0,.1-.17h.79v.16H13m1-1.13a.09.09,0,0,1,.08.08v1a.08.08,0,0,1-.08.08H14V13.9a0,0,0,0,0,0,0h-.77a.92.92,0,0,0,.07-.26v0h-.17v0a.77.77,0,0,1-.08.27H11.55l-.06-.15.08.06.08-.11-.29-.2-.2.28.11.08.05-.08a1.12,1.12,0,0,0,0,.13H10.6a0,0,0,0,0,0,0v.17h-.1a.08.08,0,0,1-.08-.08V13a.09.09,0,0,1,.08-.08h1a1,1,0,0,0-.17.47v0l.17,0v0a.75.75,0,0,1,.21-.46l0,0h1.11s0,0,0,0a.72.72,0,0,1,.19.34L13,13.24l-.08.11.19.14.09.07.19-.27v0l-.1-.07-.06.07a1,1,0,0,0-.16-.33h1m-.95.41a.87.87,0,0,0-.21-.43.81.81,0,0,0-.65-.26.86.86,0,0,0-.58.26.88.88,0,0,0-.22.48h-.07a1,1,0,0,1,.17-.44.91.91,0,0,1,.69-.37A1,1,0,0,1,13,13a1.13,1.13,0,0,1,.17.39v.05l.1-.13,0,0-.15.21-.2-.15,0,0,.13.1v-.06m-.78,1a.83.83,0,0,0,.57-.27A.59.59,0,0,0,13,13.9h0a.79.79,0,0,0,.08-.26h.08a1.09,1.09,0,0,1-.07.24h0l-.09.18a.93.93,0,0,1-.7.37h0a.91.91,0,0,1-.73-.37,1.74,1.74,0,0,1-.11-.18h0a.76.76,0,0,1-.06-.18v-.06l-.09.13,0,0,.14-.21.21.15,0,0-.14-.1v.06a.79.79,0,0,0,.08.23h0a.76.76,0,0,0,.12.19.86.86,0,0,0,.66.27"/></symbol></defs><title>AMBHLADJENJE</title><g id="Layer_2" data-name="Layer 2"><g id="Layer_1-2" data-name="Layer 1"><use width="24.09" height="24.09" xlink:href="#_3.13_Nisko_ambijentalno_hlađenje"/></g></g></svg>