<svg xmlns="http://www.w3.org/2000/svg" xmlns:xlink="http://www.w3.org/1999/xlink" viewBox="0 0 24.09 24.09"><defs><style>.cls-1{fill:#d7bfd4;}.cls-2{fill:url(#linear-gradient);}.cls-3{fill:#fff;}</style><linearGradient id="linear-gradient" x1="7554.72" y1="9005.2" x2="7555.72" y2="9005.2" gradientTransform="matrix(22.68, 0, 0, -22.68, -171316.92, 204220.5)" gradientUnits="userSpaceOnUse"><stop offset="0" stop-color="#7c7c7b"/><stop offset="1" stop-color="#575756"/></linearGradient><symbol id="_3.12_Automatsko_otapanje" data-name="3.12 Automatsko otapanje" viewBox="0 0 24.09 24.09"><rect class="cls-1" x="1.42" y="1.42" width="22.68" height="22.68"/><rect class="cls-2" width="22.68" height="22.68"/><path class="cls-3" d="M16,11.17h1.45V10.6H16l1.16-1.12-.39-.41L15.16,10.6H12.74L14.44,9h2.24V8.38H15l1-1-.4-.4-1,1V6.39h-.56V8.55l-1.72,1.66V7.86L13.9,6.34l-.39-.41L12.33,7.08V5.66h-.56V7.08L10.59,5.93l-.4.41,1.58,1.52v2.35L10.05,8.55V6.39H9.48V8l-1-1-.39.4,1,1H7.42V9H9.65l1.7,1.65H8.93L7.36,9.07,7,9.48,8.12,10.6H6.67v.57H16Z"/><path class="cls-3" d="M9.38,11.85s-1.74,2.79,0,2.79,0-2.79,0-2.79"/><path class="cls-3" d="M11.89,13.61s-3,4.83,0,4.83,0-4.83,0-4.83"/><path class="cls-3" d="M14.71,13.58s-1.74,2.79,0,2.79,0-2.79,0-2.79"/><polyline class="cls-3" points="4.93 11.43 19.16 11.43 19.16 11.07 4.93 11.07"/></symbol></defs><title>AOTAPANJE</title><g id="Layer_2" data-name="Layer 2"><g id="Layer_1-2" data-name="Layer 1"><use width="24.09" height="24.09" xlink:href="#_3.12_Automatsko_otapanje"/></g></g></svg>