<svg xmlns="http://www.w3.org/2000/svg" xmlns:xlink="http://www.w3.org/1999/xlink" viewBox="0 0 24.1 24.09"><defs><style>.cls-1{fill:#d7bfd4;}.cls-2{fill:url(#linear-gradient);}.cls-3{fill:#fff;fill-rule:evenodd;}</style><linearGradient id="linear-gradient" x1="7550.79" y1="9005.2" x2="7551.79" y2="9005.2" gradientTransform="matrix(22.68, 0, 0, -22.68, -171227.64, 204220.5)" gradientUnits="userSpaceOnUse"><stop offset="0" stop-color="#7c7c7b"/><stop offset="1" stop-color="#575756"/></linearGradient><symbol id="_3.05_Automatski_režim" data-name="3.05 Automatski režim" viewBox="0 0 24.09 24.09"><rect class="cls-1" x="1.42" y="1.42" width="22.68" height="22.68"/><rect class="cls-2" width="22.68" height="22.68"/><path class="cls-3" d="M15.9,13.11l0,0c1.37-1.91-.72-4.68-.72-4.68L15.91,7a6.08,6.08,0,0,1,1.67,6.66l.85.42-2.44,1-.9-2.34m-5.2,2.28-2.32.69.68,2.63.49-.83a5.44,5.44,0,0,0,6.52-1l-1.2-.85s-2.86,1.86-4.53.24l0,0m-2-6.16L6.73,7.32l-2.48.85.82.46a6.08,6.08,0,0,0,1.34,6.74l.75-1.29s-1.94-2.89-.48-4.72l0,0m5.84-1.78L14.91,7l-.55-2.66-.53.79a5.45,5.45,0,0,0-6.56.67l1.15.92S11.37,5,13,6.71l0,0"/></symbol></defs><title>AUTOREZIM</title><g id="Layer_2" data-name="Layer 2"><g id="Layer_1-2" data-name="Layer 1"><use width="24.1" height="24.09" xlink:href="#_3.05_Automatski_režim"/></g></g></svg>