<svg xmlns="http://www.w3.org/2000/svg" xmlns:xlink="http://www.w3.org/1999/xlink" viewBox="0 0 24.09 24.09"><defs><style>.cls-1{fill:#79b0e0;}.cls-2{fill:url(#linear-gradient);}.cls-3{fill:#fff;}</style><linearGradient id="linear-gradient" x1="7553.42" y1="9005.19" x2="7554.42" y2="9005.19" gradientTransform="matrix(22.68, 0, 0, -22.68, -171291.11, 204224.81)" gradientUnits="userSpaceOnUse"><stop offset="0" stop-color="#7c7c7b"/><stop offset="1" stop-color="#575756"/></linearGradient><symbol id="_6.02_Brzo_grejanje_i_hlađenje" data-name="6.02 Brzo grejanje i hlađenje" viewBox="0 0 24.09 24.09"><rect class="cls-1" x="1.42" y="1.42" width="22.68" height="22.68"/><rect class="cls-2" width="22.68" height="22.68"/><path class="cls-3" d="M18.82,11.81H17.56l.8-.79a.24.24,0,0,0,0-.33.22.22,0,0,0-.33,0L16.9,11.81H13.76L15.33,9.1l1.54-.42A.24.24,0,0,0,17,8.4a.24.24,0,0,0-.29-.17l-1.09.29.63-1.09a.23.23,0,0,0-.08-.32.22.22,0,0,0-.32.09l-.63,1.09L15,7.2A.24.24,0,0,0,14.68,7a.23.23,0,0,0-.17.28l.42,1.54-1.78,3.07h0a1798185920703.89,1798185920703.89,0,0,1,0,.06v.05h0v0a1978004512772.83,1978004512772.83,0,0,1,0,.06h0l1.78,3.07-.42,1.54a.24.24,0,0,0,.17.29h.06a.24.24,0,0,0,.23-.18l.29-1.08.63,1.09a.24.24,0,0,0,.2.12.19.19,0,0,0,.12,0,.23.23,0,0,0,.08-.32l-.63-1.09,1.09.29h.06A.25.25,0,0,0,17,15.7a.24.24,0,0,0-.17-.29L15.33,15l-1.57-2.72H16.9L18,13.41a.24.24,0,0,0,.16.07.28.28,0,0,0,.17-.07.24.24,0,0,0,0-.33l-.8-.8h1.26a.23.23,0,0,0,.24-.23A.24.24,0,0,0,18.82,11.81Z"/><path class="cls-3" d="M9.18,17.71,8.07,16.6l-1.52-.41-.4-1.52L5,13.56l.4-1.51L5,10.53,6.15,9.42l.4-1.52,1.52-.4L9.18,6.39l1.58.42a.23.23,0,0,1-.13.45L9.32,6.91l-1,1-1.37.37L6.57,9.66l-1,1,.37,1.38-.37,1.37,1,1,.37,1.38,1.37.37,1,1,1.31-.35a.24.24,0,0,1,.29.17.22.22,0,0,1-.16.28Z"/><path class="cls-3" d="M12,18.58a.23.23,0,0,1-.24-.23V5.74A.23.23,0,0,1,12,5.51a.23.23,0,0,1,.23.23V18.35A.23.23,0,0,1,12,18.58Z"/><path class="cls-3" d="M10.68,16a4,4,0,1,1,0-8,.26.26,0,0,1,.26.25.25.25,0,0,1-.29.24,3.5,3.5,0,0,0,0,7,.26.26,0,0,1,.26.25.25.25,0,0,1-.24.25Z"/></symbol></defs><title>BRZOGH</title><g id="Layer_2" data-name="Layer 2"><g id="Layer_1-2" data-name="Layer 1"><use width="24.09" height="24.09" xlink:href="#_6.02_Brzo_grejanje_i_hlađenje"/></g></g></svg>