<svg xmlns="http://www.w3.org/2000/svg" xmlns:xlink="http://www.w3.org/1999/xlink" viewBox="0 0 24.1 24.09"><defs><style>.cls-1{fill:#816daf;}.cls-2{fill:url(#linear-gradient);}.cls-3{fill:#fff;}</style><linearGradient id="linear-gradient" x1="7549.49" y1="9005.19" x2="7550.49" y2="9005.19" gradientTransform="matrix(22.68, 0, 0, -22.68, -171204.99, 204228.26)" gradientUnits="userSpaceOnUse"><stop offset="0" stop-color="#7c7c7b"/><stop offset="1" stop-color="#575756"/></linearGradient><symbol id="_7.05_Detekcija_curenja_gasa" data-name="7.05 Detekcija curenja gasa" viewBox="0 0 24.09 24.09"><rect class="cls-1" x="1.42" y="1.42" width="22.68" height="22.68"/><rect class="cls-2" width="22.68" height="22.68"/><path class="cls-3" d="M9.48,15.33a1.14,1.14,0,0,1-1,1.22,1.13,1.13,0,0,1-1-1.22,7.45,7.45,0,0,1,1-2.4,8.35,8.35,0,0,1,1,2.4M7.53,13.55a6.15,6.15,0,0,0-.76-1.76A5.38,5.38,0,0,0,6,13.55a.83.83,0,0,0,.75.89.83.83,0,0,0,.76-.89m3.39.25A6.19,6.19,0,0,0,10.17,12a5.44,5.44,0,0,0-.76,1.76.84.84,0,0,0,.76.9.84.84,0,0,0,.75-.9M9.48,11.86A4,4,0,0,0,9,10.71a3.57,3.57,0,0,0-.49,1.15.54.54,0,0,0,.49.59.55.55,0,0,0,.5-.59M4.25,10.31h8.86V10.2H4.25m14.18,7.18a.27.27,0,0,1-.26.27H12.36a.26.26,0,0,1-.22-.14.26.26,0,0,1,0-.27L15,12a.26.26,0,0,1,.44,0l2.87,5.19A.26.26,0,0,1,18.43,17.38Zm-2.75-.46a.44.44,0,0,0-.12-.3.39.39,0,0,0-.56,0,.44.44,0,0,0-.11.3.44.44,0,0,0,.11.29.39.39,0,0,0,.56,0A.4.4,0,0,0,15.68,16.92Zm0-3.39a.3.3,0,0,0-.09-.24.52.52,0,0,0-.32-.07.51.51,0,0,0-.31.07.29.29,0,0,0-.09.23.72.72,0,0,0,0,.13v0l.3,2.58h.19l.3-2.58v0A.85.85,0,0,0,15.69,13.53ZM5.29,10a.22.22,0,0,1,.19-.17l1.37-.39a.1.1,0,0,0,.07-.08.1.1,0,0,0,0-.11l-.68-.4,0,0h0l-1.31.36H4.75A.23.23,0,0,1,4.52,9a.29.29,0,0,1,0-.18.26.26,0,0,1,.14-.11l.67-.19a.11.11,0,0,0,.08-.09.12.12,0,0,0-.05-.1l-.8-.48a.24.24,0,0,1,.12-.45.15.15,0,0,1,.11,0l.8.47,0,0,.06,0a.11.11,0,0,0,0-.11l-.18-.71a.23.23,0,0,1,0-.18.18.18,0,0,1,.13-.11H5.8A.23.23,0,0,1,6,7l.35,1.37a.09.09,0,0,0,0,.06l.68.41h.05l.06,0a.12.12,0,0,0,0-.11L6.88,7.3a.26.26,0,0,1,0-.28L7,7a.23.23,0,0,1,.3.07l1,1a.09.09,0,0,0,.07,0h0A.1.1,0,0,0,8.45,8V7.2a.11.11,0,0,0,0-.07l-1-1a.25.25,0,0,1,0-.34.22.22,0,0,1,.32,0l.5.51a.09.09,0,0,0,.07,0h0a.13.13,0,0,0,.06-.1v-1A.23.23,0,0,1,8.68,5a.24.24,0,0,1,.23.24v1a.11.11,0,0,0,.06.1H9a.11.11,0,0,0,.07,0l.49-.51a.22.22,0,0,1,.17-.07.21.21,0,0,1,.16.07.25.25,0,0,1,0,.34l-1,1a.11.11,0,0,0,0,.07V8A.09.09,0,0,0,9,8.11H9a.11.11,0,0,0,.07,0l1-1A.24.24,0,0,1,10.26,7h.06l.06,0,0,0a.25.25,0,0,1,.05.27l-.36,1.42a.11.11,0,0,0,0,.11.07.07,0,0,0,.06,0h.05l.68-.41A.1.1,0,0,0,11,8.36L11.33,7a.22.22,0,0,1,.22-.18h.06a.19.19,0,0,1,.14.11.23.23,0,0,1,0,.18l-.18.71a.1.1,0,0,0,0,.11.08.08,0,0,0,.06,0h.05l.79-.48a.19.19,0,0,1,.12,0,.25.25,0,0,1,.2.12.25.25,0,0,1-.09.33L12,8.35a.11.11,0,0,0,0,.19l.68.19a.24.24,0,0,1,.16.29.23.23,0,0,1-.22.18h-.06l-1.32-.36h0l-.05,0-.68.4a.14.14,0,0,0-.05.11.11.11,0,0,0,.08.08l1.35.38a.26.26,0,0,1,.21.18v.06H10.66a.12.12,0,0,0-.07-.1l-.84-.23H9.68L9.29,10a.12.12,0,0,0,0,.09H8.12a.12.12,0,0,0,0-.09l-.39-.23H7.6L6.76,10a.12.12,0,0,0-.07.1H5.28Z"/></symbol></defs><title>CURENJEGASA</title><g id="Layer_2" data-name="Layer 2"><g id="Layer_1-2" data-name="Layer 1"><use width="24.1" height="24.09" xlink:href="#_7.05_Detekcija_curenja_gasa"/></g></g></svg>