<svg xmlns="http://www.w3.org/2000/svg" xmlns:xlink="http://www.w3.org/1999/xlink" viewBox="0 0 24.09 24.09"><defs><style>.cls-1{fill:#ea5d29;}.cls-2{fill:url(#linear-gradient);}.cls-3{fill:#fff;}</style><linearGradient id="linear-gradient" x1="7553.42" y1="9005.19" x2="7554.42" y2="9005.19" gradientTransform="matrix(22.68, 0, 0, -22.68, -171291.11, 204224.81)" gradientUnits="userSpaceOnUse"><stop offset="0" stop-color="#7c7c7b"/><stop offset="1" stop-color="#575756"/></linearGradient><symbol id="_4.13_DC_Inverter_motor" data-name="4.13 DC Inverter motor" viewBox="0 0 24.09 24.09"><rect class="cls-1" x="1.42" y="1.42" width="22.68" height="22.68"/><rect class="cls-2" width="22.68" height="22.68"/><path class="cls-3" d="M9.32,12.5a1.5,1.5,0,0,1,1.42-1,1.52,1.52,0,0,1,1.43,1h-.25a1.26,1.26,0,0,0-2.35,0Zm7.2.46a5.78,5.78,0,1,1-5.78-5.77A5.78,5.78,0,0,1,16.52,13ZM11,9.51A3.45,3.45,0,0,1,13.62,11l1.6-.92A5.32,5.32,0,0,0,11,7.66Zm-.47.22v.92H11V9.73Zm-4.24.38,1.6.92a3.45,3.45,0,0,1,2.64-1.52V7.66A5.32,5.32,0,0,0,6.27,10.11Zm4.24,6.3a3.45,3.45,0,0,1-2.64-1.52l-1.6.92a5.3,5.3,0,0,0,4.24,2.46Zm.47-.22v-.92h-.47v.92Zm4.24-.38-1.6-.92A3.45,3.45,0,0,1,11,16.41v1.86A5.3,5.3,0,0,0,15.22,15.81Zm.23-.4a5.3,5.3,0,0,0,0-4.9l-1.6.93a3.69,3.69,0,0,1,.3.94H12.5a1.85,1.85,0,0,0-3.51,0H7.34a3,3,0,0,1,.3-.94L6,10.51a5.3,5.3,0,0,0,0,4.9l1.6-.92a3.19,3.19,0,0,1-.3-1H9a1.85,1.85,0,0,0,3.51,0h1.65a3.89,3.89,0,0,1-.3,1Zm-.78-7.58a4,4,0,0,0,.65,0,1.84,1.84,0,0,0,1.16-.31,1.22,1.22,0,0,0,.42-1,1.07,1.07,0,0,0-.44-.94,1.73,1.73,0,0,0-1-.24,5.78,5.78,0,0,0-.78,0Zm.66-1.93a.69.69,0,0,1,.2,0,.64.64,0,0,1,.68.71.69.69,0,0,1-.75.78h-.13ZM19,7.27a1.35,1.35,0,0,1-.44.07.66.66,0,0,1-.71-.72.66.66,0,0,1,.7-.72A1,1,0,0,1,19,6l.13-.52a1.53,1.53,0,0,0-.61-.11,1.26,1.26,0,0,0-1.36,1.3,1.18,1.18,0,0,0,1.32,1.22,1.49,1.49,0,0,0,.61-.1Z"/></symbol></defs><title>DCINVMOTOR</title><g id="Layer_2" data-name="Layer 2"><g id="Layer_1-2" data-name="Layer 1"><use width="24.09" height="24.09" xlink:href="#_4.13_DC_Inverter_motor"/></g></g></svg>