<svg xmlns="http://www.w3.org/2000/svg" xmlns:xlink="http://www.w3.org/1999/xlink" viewBox="0 0 24.09 24.09"><defs><style>.cls-1{fill:#ea5d29;}.cls-2{fill:url(#linear-gradient);}.cls-3{fill:#fff;}</style><linearGradient id="linear-gradient" x1="7554.72" y1="9005.2" x2="7555.72" y2="9005.2" gradientTransform="matrix(22.68, 0, 0, -22.68, -171316.92, 204220.5)" gradientUnits="userSpaceOnUse"><stop offset="0" stop-color="#7c7c7b"/><stop offset="1" stop-color="#575756"/></linearGradient><symbol id="_4.11_DC_Inverter_kompresor" data-name="4.11 DC Inverter kompresor" viewBox="0 0 24.09 24.09"><rect class="cls-1" x="1.42" y="1.42" width="22.68" height="22.68"/><rect class="cls-2" width="22.68" height="22.68"/><path class="cls-3" d="M15.63,16.36v.14a1.39,1.39,0,0,1-1.39,1.39H11.87a1.39,1.39,0,0,1-1.39-1.39v-.14Zm0-8V8.26a1.4,1.4,0,0,0-1.16-1.37V6.26a.35.35,0,0,0-.35-.34H13.7a.35.35,0,0,0-.35.34v.61h0V5.25a.2.2,0,0,0,0-.11h.1V5h-.63v.14h.1a.2.2,0,0,0,0,.11V6.87h-.1V6.55a.24.24,0,0,0-.05-.14v-.6a.25.25,0,0,0-.25-.25h-.19a.25.25,0,0,0-.25.25v.6a.24.24,0,0,0-.05.14v.32h-.05a1.39,1.39,0,0,0-1.39,1.39V8.4Zm-5.15.2v6.58H9.7a.14.14,0,0,0-.14.11,1.55,1.55,0,0,1-.66-.14c-.15-.1-.22-.33-.23-.86h.18a.9.9,0,0,0,.89-.89V10a.9.9,0,0,0-.89-.9H8.67V8.42a.27.27,0,0,0,0-.12h.1V8.17H8.1V8.3h.1a.53.53,0,0,0,0,.12v.64H8a.9.9,0,0,0-.89.9V13.4a.9.9,0,0,0,.89.89h.18c0,.57.09,1,.46,1.26a1.8,1.8,0,0,0,.92.22.13.13,0,0,0,.14.13h.78v.26h5.15V8.6Zm5.11,8.6a1.52,1.52,0,0,1-1.35.83H11.87a1.52,1.52,0,0,1-1.35-.83H9.12v.44c1.17,0,2.11.65,2.11,1.45h.32c0-.15.68-.26,1.51-.26s1.5.11,1.5.26h.32c0-.8.94-1.45,2.11-1.45V17.2ZM10.4,10.32H9.8l0,.22a3,3,0,0,1,0,.6l0,.22h.6l0-.26a2.26,2.26,0,0,1,0-.52Z"/></symbol></defs><title>DCINVKOMP</title><g id="Layer_2" data-name="Layer 2"><g id="Layer_1-2" data-name="Layer 1"><use width="24.09" height="24.09" xlink:href="#_4.11_DC_Inverter_kompresor"/></g></g></svg>