<svg xmlns="http://www.w3.org/2000/svg" xmlns:xlink="http://www.w3.org/1999/xlink" viewBox="0 0 24.1 24.09"><defs><style>.cls-1{fill:#816daf;}.cls-2{fill:url(#linear-gradient);}.cls-3{fill:#fff;}</style><linearGradient id="linear-gradient" x1="7550.79" y1="9005.2" x2="7551.79" y2="9005.2" gradientTransform="matrix(22.68, 0, 0, -22.68, -171227.64, 204220.5)" gradientUnits="userSpaceOnUse"><stop offset="0" stop-color="#7c7c7b"/><stop offset="1" stop-color="#575756"/></linearGradient><symbol id="_7.04_Auto_dijagnostika" data-name="7.04 Auto dijagnostika" viewBox="0 0 24.09 24.09"><rect class="cls-1" x="1.42" y="1.42" width="22.68" height="22.68"/><rect class="cls-2" width="22.68" height="22.68"/><path class="cls-3" d="M13.71,17.76a3.48,3.48,0,0,1-2.53-1.1,3.82,3.82,0,0,1,0-5.26,3.48,3.48,0,0,1,5.06,0,3.86,3.86,0,0,1,.7,4.22,3.73,3.73,0,0,1-.72,1.07L17.47,18l-.42.44-1.28-1.35a3.49,3.49,0,0,1-2.06.68m0-.62a2.88,2.88,0,0,0,1-.18,2.8,2.8,0,0,0,.88-.52,3.21,3.21,0,0,0,.8-1.08A3.31,3.31,0,0,0,16.7,14a3.17,3.17,0,0,0-.88-2.2,2.9,2.9,0,0,0-4.22,0,3.19,3.19,0,0,0,0,4.4A2.92,2.92,0,0,0,13.71,17.14Zm-3.85.29v-.62H6.38A.56.56,0,0,1,6,16.63H6a.6.6,0,0,1-.17-.43V6.56A.61.61,0,0,1,6,6.13H6A.56.56,0,0,1,6.38,6H8.44V5.89h.34V5a.17.17,0,0,1,.05-.12.14.14,0,0,1,.1,0h3.53a.13.13,0,0,1,.1,0,.21.21,0,0,1,0,.13v1.2a.22.22,0,0,1,0,.14.18.18,0,0,1-.1,0H9.27V7h3.19A.71.71,0,0,0,13,6.8a.82.82,0,0,0,.21-.56V6H15a.6.6,0,0,1,.42.18.62.62,0,0,1,.18.43V9.77h.59V6.56a1.21,1.21,0,0,0-.36-.86A1.12,1.12,0,0,0,15,5.34H13.2V5A.82.82,0,0,0,13,4.49a.71.71,0,0,0-.53-.24H8.93a.73.73,0,0,0-.53.24A.84.84,0,0,0,8.19,5v.3H6.38a1.17,1.17,0,0,0-.83.36h0a1.25,1.25,0,0,0-.34.86V16.2a1.26,1.26,0,0,0,.34.87h0a1.17,1.17,0,0,0,.83.36H9.72"/></symbol></defs><title>DIJAGNOSTIKA</title><g id="Layer_2" data-name="Layer 2"><g id="Layer_1-2" data-name="Layer 1"><use width="24.1" height="24.09" xlink:href="#_7.04_Auto_dijagnostika"/></g></g></svg>