<svg xmlns="http://www.w3.org/2000/svg" xmlns:xlink="http://www.w3.org/1999/xlink" viewBox="0 0 24.1 24.09"><defs><style>.cls-1{fill:#eb5e29;}.cls-2{fill:url(#linear-gradient);}.cls-3{fill:#fff;}</style><linearGradient id="linear-gradient" x1="7549.49" y1="9005.19" x2="7550.49" y2="9005.19" gradientTransform="matrix(22.68, 0, 0, -22.68, -171204.99, 204228.26)" gradientUnits="userSpaceOnUse"><stop offset="0" stop-color="#7c7c7b"/><stop offset="1" stop-color="#575756"/></linearGradient><symbol id="_4.04_Dvostruka_drenaza" data-name="4.04 Dvostruka drenaza" viewBox="0 0 24.09 24.09"><rect class="cls-1" x="1.42" y="1.42" width="22.68" height="22.68"/><rect class="cls-2" width="22.68" height="22.68"/><path class="cls-3" d="M15.72,12.67v-4h.77v3.57h1.44l0,.42M14.07,11l-.58-1.73L12.9,11Zm.57,1.72-.45-1.35-1.43,0-.46,1.32h-.49l1.51-4,.74-.13,1.4,4.09ZM12,11.26a1.47,1.47,0,0,1-.11.56,1.38,1.38,0,0,1-.87.78,2.19,2.19,0,0,1-.75.12,2.48,2.48,0,0,1-.63-.07,1.32,1.32,0,0,1-.49-.24A1.2,1.2,0,0,1,8.86,12a1.78,1.78,0,0,1-.1-.65V8.68h.77v2.71a1.6,1.6,0,0,0,.05.48.61.61,0,0,0,.16.27.49.49,0,0,0,.25.12,1.94,1.94,0,0,0,.36,0,1.73,1.73,0,0,0,.42,0,1.4,1.4,0,0,0,.3-.14.41.41,0,0,0,.15-.28,2.76,2.76,0,0,0,0-.44V8.68H12ZM5.23,8.71l.29,0,.34,0,.37,0h.34a3.11,3.11,0,0,1,.84.11,1.74,1.74,0,0,1,.65.33,1.55,1.55,0,0,1,.42.58,2.26,2.26,0,0,1,.15.87,3.16,3.16,0,0,1-.12.9,1.77,1.77,0,0,1-.37.69,1.74,1.74,0,0,1-.66.44,2.78,2.78,0,0,1-1,.15H6.17l-.34,0-.33,0-.27,0ZM6,12.27l.09,0H6.4a3,3,0,0,0,.57,0,.85.85,0,0,0,.4-.17.69.69,0,0,0,.17-.17,1,1,0,0,0,.13-.28,2,2,0,0,0,.09-.43,3.77,3.77,0,0,0,0-.63,2.31,2.31,0,0,0-.11-.76,1.27,1.27,0,0,0-.3-.47A1,1,0,0,0,7,9.11,1.9,1.9,0,0,0,6.41,9H6Zm13.82,3.52H18.43V13.44h1.34l0,.24H18.9v.76h.8l0,.22H18.9v.85l.94,0m-2.1-.68-.51,0,0-.19h1v1l-.19.07-.25.06-.28.05-.28,0a1.08,1.08,0,0,1-.46-.09.84.84,0,0,1-.31-.25,1.15,1.15,0,0,1-.17-.39,1.93,1.93,0,0,1-.05-.5,1.26,1.26,0,0,1,.09-.49,1,1,0,0,1,.26-.37,1.06,1.06,0,0,1,.41-.24,1.72,1.72,0,0,1,.52-.08h.15l.17,0,.16,0,.13,0-.08.34-.15,0-.19,0-.2,0h-.17a.93.93,0,0,0-.24,0,.4.4,0,0,0-.2.09.19.19,0,0,0-.09.12.87.87,0,0,0-.05.19,1.64,1.64,0,0,0,0,.23,1.93,1.93,0,0,0,0,.24,1.73,1.73,0,0,0,.12.72.41.41,0,0,0,.38.25h.28l.14,0,.1,0Zm-2.28-.11-.35-1-.37,1Zm.34,1L15.53,15h-.87l-.28.78h-.3L15,13.46l.45-.08.86,2.41Zm-1.91,0-1.64-1.65h0c0,.14,0,.26,0,.38v1.26H12V13.42h.2l1.64,1.64V13.44h.28V15.8Zm-2.16,0h-.47V13.44h.47Zm-1.3-1-.35-1-.36,1Zm.34,1L10.5,15H9.63l-.28.78h-.3L10,13.46l.46-.08.85,2.41Zm-2.72-1.2.18,0a.3.3,0,0,0,.15-.06l0,0a.56.56,0,0,0,.05-.08l0-.12a.81.81,0,0,0,0-.17.68.68,0,0,0,0-.21.38.38,0,0,0-.09-.13.4.4,0,0,0-.13-.07l-.19,0H8v.92Zm.07.23H8v1H7.49V13.44l.32,0h.35a1.08,1.08,0,0,1,.63.16.55.55,0,0,1,.22.49.62.62,0,0,1,0,.25.61.61,0,0,1-.09.2.57.57,0,0,1-.14.13l-.17.1.2.34a1.52,1.52,0,0,0,.19.28.85.85,0,0,0,.19.19.31.31,0,0,0,.2.07h0v.15l-.13,0H9.08a.82.82,0,0,1-.23,0,.5.5,0,0,1-.19-.1,1.06,1.06,0,0,1-.18-.22,4.33,4.33,0,0,1-.23-.41ZM5.23,13.46l.18,0,.2,0h.44a2,2,0,0,1,.51.06,1,1,0,0,1,.4.2.8.8,0,0,1,.25.34,1.29,1.29,0,0,1,.09.51,1.79,1.79,0,0,1-.07.53,1,1,0,0,1-.22.41,1.2,1.2,0,0,1-.41.26,1.7,1.7,0,0,1-.59.09H5.6l-.2,0H5.23Zm.47,2.09h.24l.35,0a.63.63,0,0,0,.25-.1.36.36,0,0,0,.1-.11.48.48,0,0,0,.08-.16c0-.07,0-.15.06-.25s0-.23,0-.37a1.32,1.32,0,0,0-.07-.45.85.85,0,0,0-.18-.28.7.7,0,0,0-.27-.14,1.15,1.15,0,0,0-.33,0H5.7ZM3.36,14.06s-.71,1.07,0,1.58c0,0-.48-.48,0-1.58m.27-.94c-.15.63-.57.92-.74,1.47a.92.92,0,0,0,.77,1.26.92.92,0,0,0,.72-1.29c-.15-.44-.4-.63-.66-1.23Zm15-2s-.71,1.07,0,1.58c0,0-.48-.48,0-1.58m.27-.94c-.15.63-.56.92-.74,1.47a.92.92,0,0,0,.77,1.26.92.92,0,0,0,.73-1.29c-.16-.44-.41-.63-.67-1.23ZM19,6.83H3.68a.58.58,0,0,0-.63.5v5.3H4.31V7.82h14v2h1.26V7.33a.58.58,0,0,0-.63-.5"/></symbol></defs><title>DVDREN</title><g id="Layer_2" data-name="Layer 2"><g id="Layer_1-2" data-name="Layer 1"><use width="24.1" height="24.09" xlink:href="#_4.04_Dvostruka_drenaza"/></g></g></svg>