<svg xmlns="http://www.w3.org/2000/svg" xmlns:xlink="http://www.w3.org/1999/xlink" viewBox="0 0 24.09 24.09"><defs><style>.cls-1{fill:#eb5e29;}.cls-2{fill:url(#linear-gradient);}.cls-3{fill:#fff;}</style><linearGradient id="linear-gradient" x1="7554.72" y1="9005.2" x2="7555.72" y2="9005.2" gradientTransform="matrix(22.68, 0, 0, -22.68, -171316.92, 204220.5)" gradientUnits="userSpaceOnUse"><stop offset="0" stop-color="#7c7c7b"/><stop offset="1" stop-color="#575756"/></linearGradient><symbol id="_4.16_Dvostrana_montaža" data-name="4.16 Dvostrana montaža" viewBox="0 0 24.09 24.09"><rect class="cls-1" x="1.42" y="1.42" width="22.68" height="22.68"/><rect class="cls-2" width="22.68" height="22.68"/><path class="cls-3" d="M17.5,7.63H5.17V4.55H17.5Zm-.26,1.18h-12v-.6h12Zm.4-4.7H5a.67.67,0,0,0-.67.67V8.35A.67.67,0,0,0,5,9H17.64a.67.67,0,0,0,.67-.67V4.78a.67.67,0,0,0-.67-.67m-.36.5H5.37V7.56H17.28Z"/><path class="cls-3" d="M6.73,16.1s-1.54,2.47,0,2.47,0-2.47,0-2.47"/><path class="cls-3" d="M7.61,13.92l-.87,1-1-.87a.23.23,0,1,0-.3.34l1.13,1,.17.06.16-.07,1-1.14a.23.23,0,0,0,0-.32.22.22,0,0,0-.32,0"/><path class="cls-3" d="M7,15.22V14.3a.23.23,0,1,0-.45,0v.92a.22.22,0,0,0,.23.22A.22.22,0,0,0,7,15.22m0-1.83v-.92a.23.23,0,1,0-.45,0v.92a.22.22,0,0,0,.23.22A.22.22,0,0,0,7,13.39m0-1.83v-.31l-.06-.17L6.76,11H6.15a.22.22,0,0,0-.22.23.22.22,0,0,0,.22.22h.38v.09a.23.23,0,1,0,.45,0M5.24,11H4.33a.23.23,0,1,0,0,.45h.91a.23.23,0,1,0,0-.45M3.41,11H3.29v-.34a.23.23,0,0,0-.23-.23.23.23,0,0,0-.23.23v.57l.07.16.16.06h.35a.23.23,0,1,0,0-.45M3.29,9.76V8.85a.23.23,0,0,0-.23-.23.24.24,0,0,0-.23.23v.91a.23.23,0,0,0,.23.23.23.23,0,0,0,.23-.23m0-1.82V7.7h.22a.23.23,0,0,0,.22-.23.22.22,0,0,0-.22-.23H3.06L2.9,7.3l-.07.17v.47a.23.23,0,0,0,.23.22.22.22,0,0,0,.23-.22M4.42,7.7h.09a.23.23,0,0,0,.22-.23.22.22,0,0,0-.22-.23H4.42a.23.23,0,0,0-.23.23.24.24,0,0,0,.23.23"/><path class="cls-3" d="M15.94,16.1s1.54,2.47,0,2.47,0-2.47,0-2.47"/><path class="cls-3" d="M14.73,14.23l1,1.14.16.07.16,0,1.14-1a.22.22,0,0,0,0-.32.23.23,0,0,0-.32,0l-1,.87-.87-1a.23.23,0,1,0-.34.3"/><path class="cls-3" d="M16.15,15.21V14.3a.23.23,0,0,0-.23-.23.23.23,0,0,0-.23.23v.91a.23.23,0,0,0,.23.23.23.23,0,0,0,.23-.23m0-1.82v-.92a.23.23,0,0,0-.23-.23.23.23,0,0,0-.23.23v.92a.23.23,0,0,0,.23.22.22.22,0,0,0,.23-.22m0-1.83v-.09h.37a.22.22,0,0,0,.23-.22.23.23,0,0,0-.23-.24h-.6l-.16.07-.07.17v.31a.24.24,0,0,0,.23.23.23.23,0,0,0,.23-.23m1.29-.09h.91a.22.22,0,0,0,.23-.22.23.23,0,0,0-.23-.24h-.91a.23.23,0,0,0-.23.24.22.22,0,0,0,.23.22m1.83,0h.34l.17-.07.06-.15v-.57a.23.23,0,0,0-.23-.23.23.23,0,0,0-.23.23V11h-.11a.23.23,0,0,0-.23.24.22.22,0,0,0,.23.22m.57-1.71V8.85a.23.23,0,0,0-.23-.23.23.23,0,0,0-.23.23v.91a.23.23,0,0,0,.23.23.23.23,0,0,0,.23-.23m0-1.82V7.47l-.06-.17-.17-.06h-.44a.23.23,0,0,0-.23.23.23.23,0,0,0,.23.23h.21v.24a.23.23,0,0,0,.23.22.22.22,0,0,0,.23-.22m-1.59-.7h-.08a.23.23,0,0,0-.23.23.23.23,0,0,0,.23.23h.08a.23.23,0,0,0,.23-.23.23.23,0,0,0-.23-.23"/></symbol></defs><title>DVOSTRANA</title><g id="Layer_2" data-name="Layer 2"><g id="Layer_1-2" data-name="Layer 1"><use width="24.09" height="24.09" xlink:href="#_4.16_Dvostrana_montaža"/></g></g></svg>