<svg xmlns="http://www.w3.org/2000/svg" xmlns:xlink="http://www.w3.org/1999/xlink" viewBox="0 0 24.1 24.09"><defs><style>.cls-1{fill:#f3bb00;}.cls-2{fill:url(#linear-gradient);}.cls-3{fill:#fff;}</style><linearGradient id="linear-gradient" x1="7549.49" y1="9005.19" x2="7550.49" y2="9005.19" gradientTransform="matrix(22.68, 0, 0, -22.68, -171204.99, 204228.26)" gradientUnits="userSpaceOnUse"><stop offset="0" stop-color="#7c7c7b"/><stop offset="1" stop-color="#575756"/></linearGradient><symbol id="_5.03_ECO_Režim" data-name="5.03 ECO Režim" viewBox="0 0 24.09 24.09"><rect class="cls-1" x="1.42" y="1.42" width="22.68" height="22.68"/><rect class="cls-2" width="22.68" height="22.68"/><path class="cls-3" d="M5.5,6.17H7.2c.24,0,.36,0,.45.09a.37.37,0,0,1,.11.26.38.38,0,0,1-.11.25c-.09.1-.22.11-.45.11H5.5V8.2H7.42c.22,0,.3,0,.4,0A.37.37,0,0,1,8,8.55a.36.36,0,0,1-.13.28.71.71,0,0,1-.45.08H5.36c-.4,0-.47,0-.61-.13s-.13-.26-.13-.64v-3c0-.42,0-.5.13-.64s.23-.14.61-.14h2c.25,0,.38,0,.47.1a.39.39,0,0,1,0,.52c-.09.1-.22.1-.47.1H5.5m7.31,2.42a.39.39,0,0,0-.39-.41c-.26,0-.34.22-.41.41a1.05,1.05,0,0,1-1,.78,1.07,1.07,0,0,1-.8-.32,1.74,1.74,0,0,1-.38-1.26C9.79,5.48,10.34,5,11,5a1,1,0,0,1,.92.57c.19.36.25.48.48.48a.39.39,0,0,0,.39-.39A1.67,1.67,0,0,0,11,4.25,2.13,2.13,0,0,0,8.89,6.63a2.63,2.63,0,0,0,.55,1.7A1.84,1.84,0,0,0,11,9a1.78,1.78,0,0,0,1.13-.33,1.67,1.67,0,0,0,.68-1.19M15.91,5c-.33,0-1.24.15-1.24,1.63a2.22,2.22,0,0,0,.21,1,1.16,1.16,0,0,0,1,.61c.28,0,1.25-.14,1.25-1.63,0-.9-.38-1.63-1.25-1.63m2.15,1.62a2.16,2.16,0,1,1-4.29,0,2.16,2.16,0,1,1,4.29,0ZM16.48,15.8A3.71,3.71,0,0,1,13,13.55c-1.38-2.5-4.17-3.77-6.1-.88a15.73,15.73,0,0,1-1.5-2l-.7.58s4.65,5.7,9.83,4.91c0,0-2.72,2.27-8.14-1.85,0,0-.43,3.57,3.7,4a7.15,7.15,0,0,0,6.35-2.58"/></symbol></defs><title>ECO</title><g id="Layer_2" data-name="Layer 2"><g id="Layer_1-2" data-name="Layer 1"><use width="24.1" height="24.09" xlink:href="#_5.03_ECO_Režim"/></g></g></svg>