<svg xmlns="http://www.w3.org/2000/svg" xmlns:xlink="http://www.w3.org/1999/xlink" viewBox="0 0 24.09 24.09"><defs><style>.cls-1{fill:#86bb50;}.cls-2{fill:url(#linear-gradient);}.cls-3,.cls-4,.cls-6,.cls-7,.cls-8{fill:#fff;}.cls-3,.cls-4,.cls-7,.cls-8{fill-rule:evenodd;}.cls-4{opacity:0.3;}.cls-5{fill:none;}.cls-7{opacity:0.8;}.cls-8{opacity:0.6;}</style><linearGradient id="linear-gradient" x1="7554.72" y1="9005.2" x2="7555.72" y2="9005.2" gradientTransform="matrix(22.68, 0, 0, -22.68, -171316.92, 204220.5)" gradientUnits="userSpaceOnUse"><stop offset="0" stop-color="#7c7c7b"/><stop offset="1" stop-color="#575756"/></linearGradient><symbol id="_2.04_Filter_za_prašinu" data-name="2.04 Filter za prašinu" viewBox="0 0 24.09 24.09"><rect class="cls-1" x="1.42" y="1.42" width="22.68" height="22.68"/><rect class="cls-2" width="22.68" height="22.68"/><path class="cls-3" d="M4,9.79a.44.44,0,1,1-.43.44A.44.44,0,0,1,4,9.79"/><path class="cls-3" d="M3.92,11.29a.35.35,0,0,1,0,.7.35.35,0,0,1,0-.7"/><path class="cls-3" d="M5.74,10.09a.35.35,0,1,1-.35.35.35.35,0,0,1,.35-.35"/><path class="cls-3" d="M5.24,12.66a.35.35,0,1,1-.35.35.35.35,0,0,1,.35-.35"/><path class="cls-3" d="M4.77,11.29a.2.2,0,0,1,0,.4.2.2,0,0,1,0-.4"/><path class="cls-3" d="M5.72,11.76a.2.2,0,0,1,0,.4.2.2,0,0,1,0-.4"/><path class="cls-3" d="M4.34,13.43a.2.2,0,1,1-.2.2.2.2,0,0,1,.2-.2"/><path class="cls-3" d="M4.65,9.21a.2.2,0,1,1-.19.2.2.2,0,0,1,.19-.2"/><path class="cls-4" d="M17.7,11.11a.25.25,0,1,1,0,.5.25.25,0,0,1,0-.5"/><path class="cls-4" d="M17.29,10.21a.2.2,0,1,1-.2.19.2.2,0,0,1,.2-.19"/><rect class="cls-5" x="18.44" y="9.7" width="0.39" height="0.39"/><path class="cls-4" d="M18.77,10.62a.35.35,0,0,1,.35.35.35.35,0,0,1-.35.34.34.34,0,0,1-.34-.34.35.35,0,0,1,.34-.35"/><path class="cls-4" d="M18.39,11.93a.43.43,0,0,1,0,.86.43.43,0,0,1,0-.86"/><path class="cls-6" d="M8.36,12.08h.08l.28,0v-.3l-.29,0H8.36Zm-.47,0H8l.29,0v-.3L8,11.8H7.89Zm-.46,0h.08l.29,0v-.31l-.3,0H7.43Zm-.46,0h.08l.28,0v-.31l-.29,0H7Zm1.39.34h.09l.27,0v-.33l-.28,0H8.36Zm-.47.05H8l.28,0v-.35L8,12.2H7.89Zm-.46,0h.09l.28,0v-.37l-.28,0H7.43Zm-.46,0h.09l.27,0v-.38l-.28,0H7Zm1.39.28h.1l.26,0v-.31l-.26,0h-.1ZM7.89,13H8l.27,0v-.33l-.27,0h-.1Zm-.46.07.1,0,.27,0v-.35l-.27,0h-.1ZM7,13.14h.1l.26,0v-.37l-.26,0H7Zm1.39.23.11,0,.25,0V13l-.25,0-.11,0Zm-.47.09.11,0,.26,0v-.34l-.25,0-.12,0Zm-.46.08.11,0,.26,0v-.36l-.26,0H7.43ZM7,13.63l.11,0,.25,0v-.37l-.25,0H7Zm1.39.13.12,0,.24-.06V13.4l-.23,0h0l-.13,0Zm-.47.11.12,0,.25-.06v-.3l-.24,0-.13,0ZM7.43,14l.12,0,.25-.06v-.33l-.24,0-.13,0ZM7,14.1l.12,0L7.33,14v-.35l-.24,0-.12,0Zm1.39.09.13,0,.23-.07v-.32l-.22.06-.14,0Zm-.47.13.13,0,.24-.07v-.33l-.22,0-.15,0Zm-.46.13.13,0,.24-.06V14l-.23.05-.14,0ZM7,14.58l.13,0,.23-.06v-.37l-.22.05L7,14.2Zm1.39.06.14-.05.22-.07v-.33l-.21.06-.15,0Zm-.47.16L8,14.75l.23-.08v-.35l-.21.06-.16,0ZM7.43,15l.14-.05.23-.08v-.38l-.21.06-.16,0ZM7,15.12l.14,0L7.33,15v-.41l-.21.05-.15,0Zm.36-4.58-.33,0H7v.32H7l.31,0Zm.47,0-.34,0h0v.31h.05l.32,0Zm.46,0-.33,0h0v.31H8l.31,0Zm.46,0-.33,0h0v.3h.05l.31,0Zm-1.39-.57L7,10H7v.39H7l.32,0Zm.47,0-.35,0h0v.37h0l.33,0Zm.46,0-.35,0h0v.37h.05l.32,0Zm.46.05-.34,0h0v.35h0l.32,0ZM7.33,9.6,7,9.55H7v.38H7l.33,0Zm.47.07-.36-.05h0V10h0l.34,0Zm.46.07L7.9,9.68h0V10h0l.34,0Zm.46.06-.36-.05h0v.33h0l.33,0ZM7.33,9.13,7,9.06v.39H7l.34.05Zm.47.09-.37-.07v.37h0l.35.05Zm.46.08-.37-.07v.36h0l.35.05Zm.46.09-.36-.07v.33h0l.34.05ZM7.33,8.68,7,8.6V9H7L7.33,9Zm.47.11-.37-.08v.34h0l.36.06Zm.46.11-.37-.08v.32h0l.36.06ZM8.72,9l-.36-.09v.29h0l.35.07Zm-1.39-.8L7,8.11V8.5H7l.36.09Zm.47.12-.37-.1v.37h0l.37.09Zm.46.13-.37-.1v.35h0l.37.09Zm.46.13-.36-.1v.33h0l.36.09ZM7.33,7.7,7,7.57V8l.36.1Zm.47.16-.37-.13v.41l.37.1ZM8.26,8l-.37-.13v.38l.37.1Zm.46.16-.36-.13V8.4l.36.1Zm-.36,3.11h.36V11L8.4,11h0Zm-.47,0h.37V11l-.32,0H7.89Zm-.46,0H7.8V11l-.32,0H7.43Zm-.46,0h.36V11l-.32,0H7Zm.36.1H7v.37H7l.29,0Zm.47,0H7.43v.35H7.5l.3,0Zm.46,0H7.89v.32h.37Zm.46,0H8.36v.29h.07l.29,0Zm.45-.33-.3,0h0v.25h.35Zm0-.38-.32,0h0V11h0l.3,0Zm0-.42-.33,0h0v.34h0l.31,0Zm0-.39-.34,0h0v.31h0l.32,0Zm0-.4L8.82,9.4v.32h0l.33,0Zm0-.35L8.82,9v.27h0l.34.06Zm0-.4-.35-.09v.31L9.17,9Zm0-.39-.35-.12v.32l.35.09Zm-.35-.51v.29l.35.12V8Zm-.46-.17V8l.36.13V7.79Zm-.47-.17v.31l.37.13V7.61ZM7.43,7.3v.33l.37.13V7.44ZM7,7.13v.34l.36.13V7.27Zm-.51.17.41.14V7.09l-.41-.15Zm0,.58L6.87,8V7.54L6.46,7.4Zm0,.5.41.09V8.09L6.46,8Zm0,.5L6.87,9V8.57l-.41-.1Zm0,.5.41.06V9.05L6.46,9Zm0,.5.41,0V9.53l-.41-.06Zm0,.5.41,0V10l-.41,0Zm0,.42.41,0v-.32l-.41,0Zm0,.49h.41v-.37l-.41,0Zm0,.5.41,0v-.38H6.46Zm0,.43.41,0v-.33l-.41,0Zm0,.5.41,0v-.4l-.41,0Zm0,.5.41-.06v-.39l-.41,0Zm0,.5.41-.08v-.38l-.41.06Zm0,.5.41-.1v-.38l-.41.08Zm0,.5.41-.11v-.39l-.41.1Zm0,.57.41-.14V14.7l-.41.12Zm.41.29v-.33l-.41.14v.34Zm.46-.17V15.1l-.19.06L7,15.22v.32Zm.47-.17v-.3L7.6,15l-.17.06v.31Zm.46-.18v-.28l-.2.06-.17.06v.3Zm.46-.17v-.27l-.19.06-.17.06V15Zm.45-.43L9,14.52l-.17.06v.27l.35-.13Zm0-.39-.19,0H9l-.16.05v.31L9,14.43l.21-.07Zm0-.4L9,13.72l-.14,0v.32L9,14,9.17,14Zm0-.35-.22,0-.13,0v.26l.12,0,.23,0Zm0-.4-.24,0-.11,0v.32l.11,0h0l.24,0Zm0-.39-.25,0h-.1v.3h.1l.25,0Zm0-.42-.26,0H8.82v.33h.09l.26,0Zm0-.38H8.82V12H8.9l.27,0Zm0-.34H8.82v.26h.07l.28,0ZM6.37,6.8l.06,0,2.81,1h0v6.9h0l-2.81,1-.06,0Z"/><path class="cls-6" d="M12.78,12.07h.08l.21,0v-.3l-.22,0h-.07Zm-.4,0h.08l.22,0v-.3l-.22,0h-.08Zm-.39,0h.08l.22,0v-.31l-.23,0H12Zm-.4,0h.08l.22,0v-.31h-.3Zm1.19.34h.09l.2,0v-.33h-.29Zm-.4.05.09,0,.21,0v-.35l-.21,0h-.09Zm-.39,0h.09l.21,0v-.36l-.22,0H12Zm-.4.05h.09l.21,0v-.38l-.21,0h-.09Zm1.19.28.1,0,.19,0v-.31l-.19,0h-.1Zm-.4.07.1,0,.2,0v-.33l-.2,0h-.1Zm-.39.06h.1l.2,0v-.34l-.2,0H12Zm-.4.07h.1l.2,0v-.37l-.2,0h-.1Zm1.19.23.11,0,.18,0V13l-.18,0-.11,0Zm-.4.08.11,0,.19,0v-.33l-.18,0-.12,0Zm-.39.09.11,0,.19,0v-.36l-.19,0-.11,0Zm-.4.08.11,0,.19,0v-.37l-.18,0-.12,0Zm1.19.14.11,0,.18-.05v-.27l-.16,0-.13,0Zm-.4.11.12,0,.18-.05v-.3l-.17,0-.13,0ZM12,14l.11,0,.19,0v-.32l-.17,0-.13,0Zm-.4.11.12,0,.18-.05v-.35l-.17,0-.13,0Zm1.19.1.12,0,.17-.06v-.31l-.15,0-.14,0Zm-.4.13.13,0,.17-.06v-.33l-.15,0-.15,0Zm-.39.13.12,0h0l.17-.05V14l-.16,0-.14,0Zm-.4.12.13,0,.17,0v-.37l-.15,0-.15,0Zm1.19.07.13-.06.16-.06V14.2l-.14,0-.15,0Zm-.4.16.14-.06.16-.06v-.36l-.14,0-.16.05ZM12,15l.14-.06.16-.06v-.39l-.15.05-.15.05Zm-.4.16.14-.06.16-.06v-.42l-.14.05h0l-.16,0Zm.3-4.58-.26,0h0v.32h.3Zm.4,0-.27,0h0v.31h0l.25,0Zm.39,0-.26,0h0v.31h0l.25,0Zm.39,0-.26,0h0v.3h.05l.24,0Zm-1.18-.57-.28,0h0v.39h0l.26,0Zm.4,0-.28,0h0v.37h0l.26,0Zm.39,0-.28,0h0v.36h0l.26,0Zm.39.05-.27,0h0v.34h0l.25,0ZM11.89,9.6l-.29,0h0v.38h0l.27,0Zm.4.07L12,9.62h0V10h0l.27,0Zm.39.07-.29-.05h0V10h0l.27,0Zm.39.06-.29-.05h0v.33h0l.26,0Zm-1.18-.67-.3-.06v.38h0l.28.05Zm.4.09L12,9.15v.37h0l.28.05Zm.39.08-.3-.06v.35h0l.28.05Zm.39.09-.29-.07v.33h0l.27.05Zm-1.18-.71-.3-.08V9h0l.29.06Zm.4.11L12,8.71v.34h0l.29.06Zm.39.11-.3-.08v.32h0l.29.06Zm.39.12-.29-.09v.29h0l.28.07Zm-1.18-.81-.3-.09V8.5h0l.3.08Zm.4.13L12,8.25v.36h0l.3.08Zm.39.13-.3-.1v.35h0l.3.08Zm.39.13-.29-.1v.33h0l.29.08Zm-1.18-.9-.3-.12V8l.3.09Zm.4.16L12,7.74v.4l.3.1Zm.39.16-.3-.12v.37l.3.1Zm.39.15-.29-.12V8.4l.29.1Zm-.29,3.12h.29V11l-.25,0h0Zm-.4,0h.3V11l-.25,0h0Zm-.39,0h.3V11L12,11h0Zm-.4,0h.3V11l-.25,0h-.05Zm.3.1h-.3v.37h.07l.23,0Zm.4,0H12v.34h.07l.23,0Zm.39,0h-.3v.32h.07l.23,0Zm.39,0h-.29v.29h.29Zm.39-.33h-.29v.25h.29Zm0-.38-.25,0h0V11h.05l.24,0Zm0-.42-.27,0h0v.32h0l.25,0Zm0-.39-.28,0h0v.31h0l.26,0Zm0-.4-.29-.06v.31h0l.27,0Zm0-.35L13.17,9v.27h0l.28.06Zm0-.4-.29-.09v.31h0l.29.08Zm0-.39-.29-.12v.32l.29.09Zm-.29-.5v.28l.29.12V8Zm-.39-.18V8l.29.12V7.79Zm-.4-.17v.31l.3.12v-.3ZM12,7.31v.32l.3.12V7.44Zm-.4-.17v.33l.3.12V7.27Zm-.43.16.34.13V7.09L11.16,7Zm0,.58.34.1V7.54l-.34-.14Zm0,.5.34.09V8.09L11.16,8Zm0,.5L11.5,9V8.57l-.34-.09Zm0,.5.34.06V9.05L11.16,9Zm0,.5.34,0V9.53l-.34,0Zm0,.5.34,0V10l-.34,0Zm0,.42.34,0V10.5l-.34,0Zm0,.49h.34v-.37l-.34,0Zm0,.5.34,0v-.38h-.34Zm0,.43.34,0v-.32l-.34,0Zm0,.5.34,0v-.39l-.34,0Zm0,.5.34-.06v-.39l-.34,0Zm0,.5.34-.08v-.38l-.34.05Zm0,.49.34-.09v-.37l-.34.07Zm0,.5.34-.1v-.39l-.34.1Zm0,.58.34-.14v-.44l-.34.11Zm.34.29v-.32l-.34.13v.34Zm.39-.17V15.1l-.12.05-.18.07v.32Zm.4-.17v-.3l-.13.05-.17.07v.31Zm.39-.18v-.28l-.12.05-.18.07v.29Zm.39-.17v-.27l-.12.05-.17.07V15Zm.39-.42-.12,0-.17.07v.27l.29-.13Zm0-.4-.13,0-.16.05v.32l.14-.06.15-.06Zm0-.4-.15,0-.14,0v.31l.13,0h0l.16,0Zm0-.35-.16,0-.13,0v.26l.12,0,.17,0Zm0-.4-.17,0-.12,0v.32l.11,0,.18,0Zm0-.39-.19,0-.1,0v.3h.1l.19,0Zm0-.42-.2,0h-.09v.33h.09l.2,0Zm0-.38h-.29V12h.08l.21,0Zm0-.34h-.29v.26h.29ZM11.07,6.8l.06,0,2.4,1h0v6.9h0l-2.4,1-.06,0Z"/><path class="cls-6" d="M16.49,12.07h.08l.11,0v-.3l-.12,0h-.07Zm-.29,0h.19v-.31H16.2Zm-.29,0h.19v-.31h-.19Zm-.28,0h.19v-.32h-.19Zm.86.34.08,0h0l.1,0v-.33h-.19Zm-.29,0h.09l.1,0v-.35H16.2Zm-.29,0H16l.1,0v-.36h-.19Zm-.28.05h.08l.11,0v-.38h-.19Zm.86.28.09,0,.1,0v-.31h-.09l-.1,0ZM16.2,13l.1,0,.09,0v-.33H16.3l-.1,0Zm-.29.06.1,0,.09,0v-.35H16l-.11,0Zm-.28.07.09,0,.1,0v-.37h-.09l-.1,0Zm.86.23.1,0,.09,0V13l-.07,0-.12,0Zm-.29.08.11,0,.08,0v-.33l-.07,0-.12,0Zm-.29.09.11,0,.08,0v-.35H16l-.12,0Zm-.28.08.1,0,.09,0v-.37l-.08,0-.11,0Zm.86.14.11,0,.08,0v-.27l-.06,0-.13,0Zm-.29.11.11,0,.08,0v-.3l-.06,0-.13,0Zm-.29.11.12-.05.07,0v-.32l-.05,0-.14,0Zm-.28.11.11-.05.08,0v-.35l-.06,0-.13,0Zm.86.09.12,0,.07,0v-.32l0,0-.15.06Zm-.29.13.12-.05.07,0v-.34l0,0L16.2,14Zm-.29.13.13,0,.06,0V14h0l-.15.06Zm-.28.13.12-.06.07,0v-.36h0l-.15.06Zm.86.06.13-.08.06,0V14.2h0l-.16.08Zm-.29.16.13-.08.06,0v-.35h0l-.16.08Zm-.29.16.19-.11v-.38h0l-.17.07Zm-.28.16.13-.08.06,0v-.41h0l-.16.07Zm.19-4.57-.16,0h0v.33h.19Zm.28,0-.15,0h0v.31h.19Zm.29,0-.16,0h0v.31h.19Zm.29,0-.16,0h0v.3h.19Zm-.86-.58-.17,0h0v.39h0l.15,0Zm.28,0-.17,0h0v.37H16l.14,0Zm.29.05-.17,0h0v.36h0l.15,0Zm.29.05-.18,0h0v.34h0l.15,0Zm-.86-.61-.19,0h0v.38h0l.16,0Zm.28.06-.18,0h0V10h0l.15,0Zm.29.07-.19,0h0V10h0l.16,0Zm.29.07-.19,0h0v.33h0l.16,0Zm-.86-.67-.19-.06v.38h0l.17,0Zm.28.08-.19-.05v.36h0l.16,0Zm.29.09-.19-.06v.35h0l.16,0Zm.29.08-.19-.05v.33h0l.17,0Zm-.86-.7-.19-.08V9h0l.18,0Zm.28.11-.19-.07v.34h0l.17,0Zm.29.11-.19-.07v.31h0l.17,0Zm.29.11-.19-.07v.29h0l.18,0Zm-.86-.8-.19-.09V8.5h0l.19.07Zm.28.13-.19-.09v.36h0l.18.07Zm.29.13-.19-.09v.34h0l.18.07Zm.29.12-.19-.08v.33h0l.18.07Zm-.86-.9-.19-.1V8l.19.09Zm.28.16-.19-.1v.4l.19.08Zm.29.16-.19-.1v.37l.19.08Zm.29.16-.19-.1v.34l.19.08Zm-.19,3.12h.19V11h-.19Zm-.29,0h.19V11l-.14,0H16.2Zm-.29,0h.19V11L16,11h-.05Zm-.28,0h.19V11l-.15,0h0Zm.19.1h-.19v.37h.06l.13,0Zm.28,0h-.19v.34h.19Zm.29,0H16.2v.32h.19Zm.29,0h-.19v.29h.19Zm.28-.33h-.19v.25H17Zm0-.39h-.19V11H17Zm0-.41-.17,0h0v.33h.05l.14,0Zm0-.39-.18,0h0v.31h0l.15,0Zm0-.41-.19-.05v.31h0l.16,0Zm0-.34-.19-.07v.26h0l.17.06Zm0-.4-.19-.08V9h0L17,9Zm0-.39-.19-.11v.31l.19.08Zm-.19-.49v.27l.19.11V8Zm-.28-.17V8l.19.1V7.78Zm-.29-.18V7.8l.19.1V7.61Zm-.29-.17v.32l.19.1V7.43Zm-.28-.17v.33l.19.1V7.26Zm-.31.16.21.11V7.09L15.32,7Zm0,.57.21.1V7.53l-.21-.12Zm0,.5.21.08V8.08L15.32,8Zm0,.5.21.06V8.57l-.21-.09Zm0,.5.21,0V9L15.32,9Zm0,.5.21,0V9.53l-.21,0Zm0,.5.21,0V10l-.21,0Zm0,.43.21,0V10.5l-.21,0Zm0,.48h.21v-.37l-.21,0Zm0,.5.21,0v-.38h-.21Zm0,.43.21,0v-.32l-.21,0Zm0,.49.21,0v-.39l-.21,0Zm0,.5.21-.05v-.39l-.21,0Zm0,.5.21-.06v-.39l-.21.05Zm0,.5.21-.09v-.37l-.21.06Zm0,.5.21-.1v-.38l-.21.08Zm0,.57.21-.12v-.45l-.21.1Zm.21.31v-.32l-.21.12v.33Zm.29-.18v-.3h0l-.18.09v.32Zm.28-.17V15h0l-.18.1v.3Zm.29-.17v-.28h0l-.18.1v.28Zm.29-.17v-.27h0l-.18.1V15Zm.28-.42h0l-.18.1v.26l.19-.11Zm0-.4h0l-.17.07v.31l.13-.07.06,0Zm0-.4h0l-.15.06v.31L16.9,14,17,14Zm0-.35h-.05l-.14,0v.26l.12,0,.07,0Zm0-.41-.07,0-.12,0v.31l.11,0,.08,0Zm0-.39h-.08l-.11,0v.31l.1,0,.09,0Zm0-.42h-.1l-.09,0v.33l.09,0H17Zm0-.38h-.19V12H17Zm0-.34h-.19v.26H17Zm-1.74-4.6.07,0,1.74,1,0,0v6.88l0,0-1.74,1-.07.05Z"/><path class="cls-7" d="M9,10.41a.2.2,0,1,1-.2.2.2.2,0,0,1,.2-.2"/><path class="cls-7" d="M8.61,12a.2.2,0,0,1,.2.2.2.2,0,0,1-.4,0,.2.2,0,0,1,.2-.2"/><path class="cls-7" d="M10.2,10a.2.2,0,1,1,0,.39.2.2,0,0,1-.19-.19.2.2,0,0,1,.19-.2"/><path class="cls-7" d="M9.3,11.16a.35.35,0,1,1,0,.7.35.35,0,0,1,0-.7"/><path class="cls-7" d="M9.79,12.18a.29.29,0,1,1-.29.29.29.29,0,0,1,.29-.29"/><path class="cls-8" d="M14.44,11.69a.25.25,0,1,1-.25.25.25.25,0,0,1,.25-.25"/><path class="cls-8" d="M14.05,12.76a.25.25,0,0,1,0,.5.25.25,0,1,1,0-.5"/><path class="cls-8" d="M14.89,10.9a.2.2,0,0,1,.2.2.2.2,0,0,1-.4,0,.2.2,0,0,1,.2-.2"/><path class="cls-8" d="M12.94,11.28a.35.35,0,0,1,.35.34.35.35,0,0,1-.7,0,.35.35,0,0,1,.35-.34"/></symbol></defs><title>FILTERPRASINA</title><g id="Layer_2" data-name="Layer 2"><g id="Layer_1-2" data-name="Layer 1"><use width="24.09" height="24.09" xlink:href="#_2.04_Filter_za_prašinu"/></g></g></svg>