<svg xmlns="http://www.w3.org/2000/svg" xmlns:xlink="http://www.w3.org/1999/xlink" viewBox="0 0 24.09 24.09"><defs><style>.cls-1{fill:#eb5e29;}.cls-2{fill:url(#linear-gradient);}.cls-3,.cls-4{fill:#fff;}.cls-3{fill-rule:evenodd;}</style><linearGradient id="linear-gradient" x1="7557.35" y1="9005.2" x2="7558.35" y2="9005.2" gradientTransform="matrix(22.68, 0, 0, -22.68, -171379.61, 204223.96)" gradientUnits="userSpaceOnUse"><stop offset="0" stop-color="#7c7c7b"/><stop offset="1" stop-color="#575756"/></linearGradient><symbol id="_4.05_Hidrof_ilno_aluminijmsko_saće" data-name="4.05 Hidrof ilnoaluminijmsko saće" viewBox="0 0 24.09 24.09"><rect class="cls-1" x="1.42" y="1.42" width="22.68" height="22.68"/><rect class="cls-2" width="22.68" height="22.68"/><path class="cls-3" d="M16.35,11.63a13,13,0,0,1,.94,1.26,6.55,6.55,0,0,1,1.26,2.63A2.35,2.35,0,0,1,18,17a2.12,2.12,0,0,1-1.64.75,2.05,2.05,0,0,1-1.54-.66,2.27,2.27,0,0,1-.65-1.54,5.22,5.22,0,0,1,.9-2.15,22,22,0,0,1,1.29-1.8m0-.76a19,19,0,0,0-2.22,3.21,3.32,3.32,0,0,0-.44,1.48,2.71,2.71,0,0,0,1.1,2.18,2.51,2.51,0,0,0,1.57.52,2.61,2.61,0,0,0,2-.88A2.78,2.78,0,0,0,19,15.55a6.22,6.22,0,0,0-1.16-2.67,22.07,22.07,0,0,0-1.52-2M15,16.48a2.35,2.35,0,0,0,.75.76h.09a.24.24,0,0,0,.24-.24.26.26,0,0,0-.16-.22,3.16,3.16,0,0,1-.51-.55,2.14,2.14,0,0,1-.3-.7.24.24,0,1,0-.48,0,2.53,2.53,0,0,0,.37.93"/><path class="cls-3" d="M18.43,13.82c.46,0,.93,0,1.41,0l-1.26.29c0-.09-.1-.19-.15-.27M2.83,17.69A35,35,0,0,1,14.07,14.2a3.88,3.88,0,0,0-.35,1Z"/><path class="cls-4" d="M12.77,11.87a.55.55,0,0,0-.39.16h0a.53.53,0,0,0-.16.38.55.55,0,0,0,.16.39h0a.55.55,0,0,0,.39.16.53.53,0,0,0,.38-.16.55.55,0,0,0,.16-.39.55.55,0,0,0-.54-.54m0-.21a.72.72,0,0,1,.53.22.74.74,0,0,1,.23.53.76.76,0,0,1-.23.54.76.76,0,0,1-.53.22.8.8,0,0,1-.54-.22h0a.8.8,0,0,1-.22-.54.76.76,0,0,1,.22-.53h0a.76.76,0,0,1,.54-.22m-3.11.61a.54.54,0,0,0-.39.17.53.53,0,0,0,0,.76h0a.52.52,0,0,0,.77,0,.53.53,0,0,0,0-.76.56.56,0,0,0-.38-.17m0-.21a.76.76,0,0,1,.53.23.72.72,0,0,1,.22.53.76.76,0,0,1-.22.54h0a.76.76,0,0,1-1.07,0h0a.76.76,0,0,1-.22-.54.72.72,0,0,1,.22-.53h0a.76.76,0,0,1,.54-.23m6.22-3a.51.51,0,0,0-.38.16.55.55,0,0,0-.16.39.53.53,0,0,0,.16.38.51.51,0,0,0,.38.16.55.55,0,0,0,.39-.16.57.57,0,0,0,.16-.38.6.6,0,0,0-.16-.39.55.55,0,0,0-.39-.16m0-.21a.76.76,0,0,1,.54.22.76.76,0,0,1,0,1.07.76.76,0,0,1-.54.22.72.72,0,0,1-.53-.22h0a.74.74,0,0,1,0-1.07.72.72,0,0,1,.53-.22m-3.11.7a.55.55,0,0,0-.39.16.53.53,0,0,0-.16.38.55.55,0,0,0,.55.55.53.53,0,0,0,.38-.16h0a.55.55,0,0,0,.16-.39.55.55,0,0,0-.54-.54m0-.21a.73.73,0,0,1,.53.22.74.74,0,0,1,0,1.07h0a.72.72,0,0,1-.53.22.76.76,0,0,1-.54-.22h0a.76.76,0,0,1,0-1.07.76.76,0,0,1,.54-.22M9.66,10a.53.53,0,0,0-.39.16h0a.53.53,0,0,0-.16.38.55.55,0,0,0,.16.39h0a.58.58,0,0,0,.39.16.59.59,0,0,0,.38-.16.55.55,0,0,0,.16-.39.51.51,0,0,0-.16-.38A.55.55,0,0,0,9.66,10m0-.22a.76.76,0,0,1,.53.23h0a.72.72,0,0,1,.22.53.76.76,0,0,1-.22.54h0a.76.76,0,0,1-1.07,0h0a.76.76,0,0,1-.22-.54A.72.72,0,0,1,9.12,10h0a.76.76,0,0,1,.54-.23m6.22-3a.51.51,0,0,0-.38.16.55.55,0,0,0-.16.39.53.53,0,0,0,.16.38h0a.51.51,0,0,0,.38.16.55.55,0,0,0,.39-.16h0a.57.57,0,0,0,.16-.38.6.6,0,0,0-.16-.39.55.55,0,0,0-.39-.16m0-.21a.76.76,0,0,1,.54.22.76.76,0,0,1,0,1.07h0a.76.76,0,0,1-.54.22.72.72,0,0,1-.53-.22h0a.74.74,0,0,1,0-1.07.72.72,0,0,1,.53-.22m-3.11.7a.55.55,0,0,0-.39.16.53.53,0,0,0-.16.39.53.53,0,0,0,.16.38.55.55,0,0,0,.39.16.55.55,0,0,0,.54-.54.53.53,0,0,0-.16-.39.53.53,0,0,0-.38-.16m0-.21a.72.72,0,0,1,.53.22.74.74,0,0,1,0,1.07.73.73,0,0,1-.53.22.76.76,0,0,1-.54-.22.76.76,0,0,1,0-1.07A.76.76,0,0,1,12.77,7m-3.11.62a.53.53,0,0,0-.39.16h0a.51.51,0,0,0-.16.38.55.55,0,0,0,.16.39.54.54,0,0,0,.77,0,.55.55,0,0,0,.16-.39A.51.51,0,0,0,10,7.8a.55.55,0,0,0-.38-.16m0-.22a.76.76,0,0,1,.53.23h0a.72.72,0,0,1,.22.53.76.76,0,0,1-.22.54h0a.76.76,0,0,1-1.07,0,.76.76,0,0,1-.22-.54.72.72,0,0,1,.22-.53h0a.76.76,0,0,1,.54-.23M14,14.62l-1.39.31-1.17.27-1.94.45c-.61.16-1.18.31-1.72.47l-.13,0V6.41h.09L18.06,5.08h.12V13.6H18V5.31L7.81,6.6v9.28c.49-.15,1-.29,1.59-.43s1.26-.31,1.94-.46l1.18-.26c.47-.11.94-.22,1.39-.31Z"/><path class="cls-4" d="M4.23,17,5,16.77l.85-.29v-3.6a.75.75,0,0,1-.48-.71.73.73,0,0,1,.16-.46.72.72,0,0,1,.32-.25v-.9a.72.72,0,0,1-.32-.25.74.74,0,0,1,0-.92h0a.81.81,0,0,1,.33-.25v-.9A.81.81,0,0,1,5.47,8h0a.79.79,0,0,1-.15-.46.81.81,0,0,1,.15-.46.71.71,0,0,1,.33-.24V6.09h.1L14.39,5V4.66L4.23,6ZM4,17.33V5.76h.1L14.48,4.43h.12v.76h-.09L6,6.27V7L5.94,7a.52.52,0,0,0-.3.2.55.55,0,0,0-.11.33.55.55,0,0,0,.41.53l.08,0V9.3l-.08,0a.52.52,0,0,0-.3.2h0a.55.55,0,0,0,0,.66h0a.55.55,0,0,0,.3.2l.08,0v1.22l-.08,0a.55.55,0,0,0-.3.2.52.52,0,0,0-.11.33.55.55,0,0,0,.11.33.55.55,0,0,0,.3.2l.08,0v3.91l-.08,0L5,17l-.86.3Z"/><path class="cls-4" d="M6,16.41l.71-.22.86-.26V13.2A.78.78,0,0,1,7.26,13a.8.8,0,0,1,0-.93.88.88,0,0,1,.33-.24v-.91a.78.78,0,0,1-.33-.24.8.8,0,0,1,0-.93.78.78,0,0,1,.33-.24V8.56a.78.78,0,0,1-.33-.24.8.8,0,0,1,0-.93.88.88,0,0,1,.33-.24V6.41h.1l8.49-1.08V5L6,6.27Zm-.22.29V6.09l.1,0L16.27,4.76l.12,0v.77H16.3L7.81,6.6v.71l-.08,0a.6.6,0,0,0-.3.19.58.58,0,0,0-.11.34.55.55,0,0,0,.11.33.6.6,0,0,0,.3.19l.08,0V9.63l-.08,0a.6.6,0,0,0-.3.19.55.55,0,0,0-.11.34.55.55,0,0,0,.11.33.6.6,0,0,0,.3.19l.08,0V12l-.08,0a.6.6,0,0,0-.3.19.55.55,0,0,0-.11.33.55.55,0,0,0,.11.34.69.69,0,0,0,.3.2l.08,0V16.1l-.08,0-.94.27-.85.27Z"/></symbol></defs><title>HIDALSACE</title><g id="Layer_2" data-name="Layer 2"><g id="Layer_1-2" data-name="Layer 1"><use width="24.09" height="24.09" xlink:href="#_4.05_Hidrof_ilno_aluminijmsko_saće"/></g></g></svg>