<svg xmlns="http://www.w3.org/2000/svg" xmlns:xlink="http://www.w3.org/1999/xlink" viewBox="0 0 24.09 24.09"><defs><style>.cls-1{fill:#d7bfd4;}.cls-2{fill:url(#linear-gradient);}.cls-3{fill:#fff;}</style><linearGradient id="linear-gradient" x1="7553.42" y1="9005.19" x2="7554.42" y2="9005.19" gradientTransform="matrix(22.68, 0, 0, -22.68, -171291.11, 204224.81)" gradientUnits="userSpaceOnUse"><stop offset="0" stop-color="#7c7c7b"/><stop offset="1" stop-color="#575756"/></linearGradient><symbol id="_3.04_I_feel" data-name="3.04 I feel" viewBox="0 0 24.09 24.09"><rect class="cls-1" x="1.42" y="1.42" width="22.68" height="22.68"/><rect class="cls-2" width="22.68" height="22.68"/><path class="cls-3" d="M15.1,17.24a.41.41,0,0,1-.4-.41.4.4,0,0,1,.4-.41h.55v-.58a.39.39,0,1,1,.78,0v.58H17a.4.4,0,0,1,.39.41.4.4,0,0,1-.39.41h-.55v.57a.39.39,0,1,1-.78,0v-.57m-2-10.95a2.8,2.8,0,0,1,.77,2,2.76,2.76,0,0,1-.77,1.94,2.55,2.55,0,0,1-1.86.81A2.58,2.58,0,0,1,10,10.18,2.76,2.76,0,0,1,9.2,8.24,2.8,2.8,0,0,1,10,6.29h0a2.57,2.57,0,0,1,3.73,0M8.05,13.86a5.24,5.24,0,0,1,3.79-1.64,5.1,5.1,0,0,1,2,.42,5.43,5.43,0,0,1,1.74,1.22.58.58,0,0,0,.84,0,.63.63,0,0,0,0-.87,6.33,6.33,0,0,0-2.13-1.48l-.2-.09a4.59,4.59,0,0,0,.41-.36,4.11,4.11,0,0,0,0-5.64,3.7,3.7,0,0,0-5.4,0h0a4.11,4.11,0,0,0,0,5.64,3.42,3.42,0,0,0,.4.36A6.58,6.58,0,0,0,7.22,13,6.92,6.92,0,0,0,5.3,17.81a.6.6,0,1,0,1.19,0A5.67,5.67,0,0,1,8.05,13.86Z"/></symbol></defs><title>IFEEL</title><g id="Layer_2" data-name="Layer 2"><g id="Layer_1-2" data-name="Layer 1"><use width="24.09" height="24.09" xlink:href="#_3.04_I_feel"/></g></g></svg>