<svg xmlns="http://www.w3.org/2000/svg" xmlns:xlink="http://www.w3.org/1999/xlink" viewBox="0 0 24.09 24.09"><defs><style>.cls-1{fill:#ea5d29;}.cls-2{fill:url(#linear-gradient);}.cls-3{fill:#fff;}</style><linearGradient id="linear-gradient" x1="7552.1" y1="9005.2" x2="7553.1" y2="9005.2" gradientTransform="matrix(22.68, 0, 0, -22.68, -171257.39, 204220.5)" gradientUnits="userSpaceOnUse"><stop offset="0" stop-color="#7c7c7b"/><stop offset="1" stop-color="#575756"/></linearGradient><symbol id="_4.14_Inverter_sinusnog_talasa" data-name="4.14 Invertersinusnog talasa" viewBox="0 0 24.09 24.09"><rect class="cls-1" x="1.42" y="1.42" width="22.68" height="22.68"/><rect class="cls-2" width="22.68" height="22.68"/><path class="cls-3" d="M6.07,8.85V8.52H4.87V8.4h1.2V8.06l.68.4ZM16.14,8.4h-4V8.06l-.68.4.68.39V8.52h4Zm.51,2.92-.94,2.48h1.84v.11H15.66l-1,2.64c-.33.87-.8,1.35-1.33,1.35s-1-.48-1.33-1.35l-1-2.64H7.21l-1,2.64c-.33.87-.8,1.35-1.33,1.35v-.47c.31,0,.64-.39.89-1l1-2.48H4.87V13.8H6.76l0-.14V6.81h.12V8.4h4.34V6.93h.12v6.73l0,.14H15.2l1-2.65c.33-.87.8-1.34,1.33-1.34v.47C17.24,10.28,16.91,10.67,16.65,11.32ZM10.94,13.8,10,11.32c-.25-.65-.59-1-.89-1s-.64.39-.89,1l-1,2.48Zm.33-.45V8.52H6.93v4.83l.84-2.2c.33-.87.8-1.34,1.33-1.34s1,.47,1.33,1.34Zm3.89.56H11.48l.95,2.48c.25.65.58,1,.89,1s.64-.39.89-1ZM12.42,6.63h0l-.3.13-.06-.31.43-.19h.34V7.77h-.4Zm1.46-.4c.38,0,.53.22.53.4A.35.35,0,0,1,14.2,7h0a.4.4,0,0,1,.27.37c0,.28-.23.47-.61.47s-.59-.23-.59-.43A.39.39,0,0,1,13.53,7h0a.38.38,0,0,1-.21-.33c0-.27.24-.44.56-.44Zm0,1.28A.16.16,0,0,0,14,7.36a.24.24,0,0,0-.2-.22.19.19,0,0,0-.14.19.18.18,0,0,0,.17.18Zm0-1a.14.14,0,0,0-.15.15c0,.08.09.14.19.17A.16.16,0,0,0,14,6.67a.15.15,0,0,0-.15-.16ZM15.2,7.8c-.43,0-.59-.39-.59-.78s.17-.79.59-.79.6.4.6.78-.19.79-.6.79Zm0-.32c.1,0,.17-.14.17-.47s-.06-.46-.18-.46S15,6.69,15,7s.06.47.17.47Zm.93-1.29a.22.22,0,0,1,.24.22.23.23,0,0,1-.24.23.21.21,0,0,1-.23-.22.22.22,0,0,1,.23-.23Zm0,.12c-.05,0-.06.06-.06.11s0,.11.06.11.07,0,.07-.11,0-.11-.07-.11Z"/></symbol></defs><title>INVSINTAL</title><g id="Layer_2" data-name="Layer 2"><g id="Layer_1-2" data-name="Layer 1"><use width="24.09" height="24.09" xlink:href="#_4.14_Inverter_sinusnog_talasa"/></g></g></svg>