<svg xmlns="http://www.w3.org/2000/svg" xmlns:xlink="http://www.w3.org/1999/xlink" viewBox="0 0 24.09 24.09"><defs><style>.cls-1{fill:#86bb50;}.cls-2{fill:url(#linear-gradient);}.cls-3{fill:#fff;fill-rule:evenodd;}</style><linearGradient id="linear-gradient" x1="7552.1" y1="9005.2" x2="7553.1" y2="9005.2" gradientTransform="matrix(22.68, 0, 0, -22.68, -171257.39, 204220.5)" gradientUnits="userSpaceOnUse"><stop offset="0" stop-color="#7c7c7b"/><stop offset="1" stop-color="#575756"/></linearGradient><symbol id="_2.03_Jonizator" data-name="2.03 Jonizator" viewBox="0 0 24.09 24.09"><rect class="cls-1" x="1.42" y="1.42" width="22.68" height="22.68"/><rect class="cls-2" width="22.68" height="22.68"/><path class="cls-3" d="M14.76,9.32H8V8h6.75ZM11.38,2.84m0,0a5.81,5.81,0,1,0,5.79,5.83A5.82,5.82,0,0,0,11.38,2.84Zm6.84,14.24H14.63v-.74h3.59Zm-1.8-3.46,0,0a3.11,3.11,0,0,0,0,6.22,3.11,3.11,0,1,0,0-6.22Zm-9.73,2H4V15H6.69ZM5.38,13m0,0a2.31,2.31,0,1,0,2.28,2.33A2.31,2.31,0,0,0,5.38,13Z"/></symbol></defs><title>JONIZATOR</title><g id="Layer_2" data-name="Layer 2"><g id="Layer_1-2" data-name="Layer 1"><use width="24.09" height="24.09" xlink:href="#_2.03_Jonizator"/></g></g></svg>