<svg xmlns="http://www.w3.org/2000/svg" xmlns:xlink="http://www.w3.org/1999/xlink" viewBox="0 0 24.1 24.09"><defs><style>.cls-1{fill:#eb5e29;}.cls-2{fill:url(#linear-gradient);}.cls-3{fill:#fff;}</style><linearGradient id="linear-gradient" x1="7550.79" y1="9005.2" x2="7551.79" y2="9005.2" gradientTransform="matrix(22.68, 0, 0, -22.68, -171227.64, 204220.5)" gradientUnits="userSpaceOnUse"><stop offset="0" stop-color="#7c7c7b"/><stop offset="1" stop-color="#575756"/></linearGradient><symbol id="_4.09_Klizna_šasija" data-name="4.09 Klizna šasija" viewBox="0 0 24.09 24.09"><rect class="cls-1" x="1.42" y="1.42" width="22.68" height="22.68"/><rect class="cls-2" width="22.68" height="22.68"/><path class="cls-3" d="M16.69,8.53h.24s.29,0,.29.27.16,2.46.1,4A12.58,12.58,0,0,1,17,15.56h-.29Zm-11.85,0h7.58v7H4.84ZM12.07,9H6.29l-.81.8v4.47l.81.81h5.78ZM7,14.35H9.51v.14H7Zm0-.28H9.51v.14H7Zm0-.28H9.51v.14H7Zm0-.28H9.51v.14H7Zm0-.28H9.51v.14H7ZM7,13H9.51v.14H7Zm0-.28H9.51v.14H7Zm0-.28H9.51v.14H7Zm0-.28H9.51v.14H7Zm0-.28H9.51V12H7Zm0-.28H9.51v.14H7Zm0-.29H9.51v.15H7ZM7,11H9.51v.15H7Zm0-.28H9.51v.14H7Zm0-.28H9.51v.14H7Zm0-.28H9.51v.14H7Zm0-.28H9.51V10H7Zm5.4,5.19h4.27v-.48H12.42Zm3.09-.48h.17V8.9h-.17Zm-.5,0h.17V8.9H15Zm-.5,0h.17V8.9h-.17Zm-.5,0h.17V8.9H14Zm-.5,0h.17V8.9h-.17Zm-.51,0h.17V8.9H13Zm-.49,0h.16V8.9h-.16ZM12.42,9.8h3.29v0h0l.23.08a.37.37,0,0,1,.16.34.47.47,0,0,1-.21.42l-.15.08-.05,0h0l0,.13v-.13H12.42V11h3.32a.7.7,0,0,0,.32-.14.78.78,0,0,0,.32-.64.65.65,0,0,0-.33-.6,1.13,1.13,0,0,0-.33-.1h-3.3Zm0,2.41h3.29v0h0l.23.08a.39.39,0,0,1,.16.35.47.47,0,0,1-.21.42l-.15.08h-.06l0,.13v-.14H12.42v.27h3.32a.86.86,0,0,0,.32-.14.78.78,0,0,0,.32-.64.68.68,0,0,0-.33-.61.75.75,0,0,0-.33-.09h-3.3Zm7.07-2,1.38,1.38L19.49,13v.19h.19l1.58-1.58-1.58-1.57h-.19Zm1.58,1.25h-3l-.13.14.13.13h3l.13-.13Z"/></symbol></defs><title>KLIZNASASIJA</title><g id="Layer_2" data-name="Layer 2"><g id="Layer_1-2" data-name="Layer 1"><use width="24.1" height="24.09" xlink:href="#_4.09_Klizna_šasija"/></g></g></svg>