<svg xmlns="http://www.w3.org/2000/svg" xmlns:xlink="http://www.w3.org/1999/xlink" viewBox="0 0 24.09 24.09"><defs><style>.cls-1{fill:#eb5e29;}.cls-2{fill:url(#linear-gradient);}.cls-3{fill:#fff;}</style><linearGradient id="linear-gradient" x1="7557.35" y1="9005.2" x2="7558.35" y2="9005.2" gradientTransform="matrix(22.68, 0, 0, -22.68, -171379.61, 204223.96)" gradientUnits="userSpaceOnUse"><stop offset="0" stop-color="#7c7c7b"/><stop offset="1" stop-color="#575756"/></linearGradient><symbol id="_4.15_Ugrađena_pumpa_za_kondez" data-name="4.15 Ugrađena pumpaza kondez" viewBox="0 0 24.09 24.09"><rect class="cls-1" x="1.42" y="1.42" width="22.68" height="22.68"/><rect class="cls-2" width="22.68" height="22.68"/><path class="cls-3" d="M16.06,4.3A1.45,1.45,0,0,1,16.79,4v.18a1.33,1.33,0,0,0-.64.24,2.53,2.53,0,0,1-1.44.44,3,3,0,0,1-.43,0l-.23,0a6,6,0,0,1-.8-.22,6.42,6.42,0,0,0-2.14-.38,6.1,6.1,0,0,0-2.82.66l-.1-.15A6.09,6.09,0,0,1,11.11,4a6.67,6.67,0,0,1,2.19.39c.26.08.51.16.75.21l.23,0a3,3,0,0,0,.43,0,2.43,2.43,0,0,0,1.35-.41m-5.27,9.42a2,2,0,0,0-1.21.51l1.21,1.21Zm-1.39.69a2,2,0,0,0-.48,1.21H10.6Zm-.48,1.47a2,2,0,0,0,.52,1.18l1.19-1.18Zm.71,1.36a2.06,2.06,0,0,0,1.16.46V16.08Zm2.63-3A2,2,0,0,0,11,13.73v1.73ZM11,17.7a2,2,0,0,0,1.17-.48L11,16.06Zm.18-1.82L12.39,17a2,2,0,0,0,.5-1.16Zm1.68-.26a2,2,0,0,0-.47-1.19l-1.18,1.19Zm5.09,3a3.52,3.52,0,0,0-2.2-.05c.55.05,1.06.66,1.4,1s.48.4.77.19a.72.72,0,0,0,0-1.12m-1.53-1.16c-.14-.1-.27,0-.37.11s-.39.46-.65.5a1.71,1.71,0,0,0,1-.08.34.34,0,0,0,0-.53m-.61,2.37a.35.35,0,0,0,.23-.48,1.66,1.66,0,0,0-.95-.45c.23.13.33.49.42.69s.13.27.3.24m-9-5.29A2.11,2.11,0,0,0,6,14.34c-.35,0-.79,0-.87.14l.13.12A2,2,0,0,1,6,14.53a1.69,1.69,0,0,1,.81.19,1.71,1.71,0,0,0,.47.13,1.54,1.54,0,0,1,0-.17,1.12,1.12,0,0,1-.44-.13m8,3.11v1.48H4.44V2.84h9.84V4.46l-.23,0V3.06H4.66V18.91H9.59a3.42,3.42,0,0,1-2.23-3.2,3.5,3.5,0,0,1,.12-.86.84.84,0,0,0,0-.17,3.4,3.4,0,0,1,6.52.05V5.06l.23,0V17.66Zm-4,.47a2.42,2.42,0,1,0-2.41-2.42,2.42,2.42,0,0,0,2.41,2.42m.93-8.61a2.36,2.36,0,0,0,1.85-.87l-.15-.1a2.18,2.18,0,0,1-1.7.79A4.67,4.67,0,0,1,10.23,9a3.49,3.49,0,0,0-1.15-.27,1.61,1.61,0,0,0-1.28.64l.15.1a1.47,1.47,0,0,1,1.13-.56,3.8,3.8,0,0,1,1.09.25,4.68,4.68,0,0,0,1.65.35M9.26,6.67a1.49,1.49,0,0,1,.89-.35,1.72,1.72,0,0,1,.71.18,1,1,0,0,0,.39.11,2.48,2.48,0,0,0,2.1-.5L13.25,6a2.35,2.35,0,0,1-1.95.48h0a.85.85,0,0,1-.34-.1,2,2,0,0,0-.78-.18,1.7,1.7,0,0,0-1,.39l.12.13"/></symbol></defs><title>KONDEZPUMPA</title><g id="Layer_2" data-name="Layer 2"><g id="Layer_1-2" data-name="Layer 1"><use width="24.09" height="24.09" xlink:href="#_4.15_Ugrađena_pumpa_za_kondez"/></g></g></svg>