<svg xmlns="http://www.w3.org/2000/svg" xmlns:xlink="http://www.w3.org/1999/xlink" viewBox="0 0 24.09 24.09"><defs><style>.cls-1{fill:#eb5e29;}.cls-2{fill:url(#linear-gradient);}.cls-3{fill:#fff;}</style><linearGradient id="linear-gradient" x1="7554.72" y1="9005.2" x2="7555.72" y2="9005.2" gradientTransform="matrix(22.68, 0, 0, -22.68, -171316.92, 204220.5)" gradientUnits="userSpaceOnUse"><stop offset="0" stop-color="#7c7c7b"/><stop offset="1" stop-color="#575756"/></linearGradient><symbol id="_4.01_Led_displej" data-name="4.01 Led displej" viewBox="0 0 24.09 24.09"><rect class="cls-1" x="1.42" y="1.42" width="22.68" height="22.68"/><rect class="cls-2" width="22.68" height="22.68"/><path class="cls-3" d="M13.46,10.19h-.39v2.29h.39a1,1,0,0,0,.8-.31,1.21,1.21,0,0,0,.29-.86,1,1,0,0,0-1.09-1.12Z"/><path class="cls-3" d="M17.84,7.39h-13A.61.61,0,0,0,4.25,8v6.66a.6.6,0,0,0,.59.61h13a.59.59,0,0,0,.58-.61V8A.6.6,0,0,0,17.84,7.39ZM9.35,13.1h-2V9.58h.72v2.9H9.35Zm2.45,0h-2V9.58h1.92v.61h-1.2V11h1.12v.61H10.52v.85H11.8Zm3-.5a1.75,1.75,0,0,1-1.29.5H12.35V9.58h1.16c1.2,0,1.8.57,1.8,1.72A1.72,1.72,0,0,1,14.8,12.6Z"/></symbol></defs><title>LEDDISP</title><g id="Layer_2" data-name="Layer 2"><g id="Layer_1-2" data-name="Layer 1"><use width="24.09" height="24.09" xlink:href="#_4.01_Led_displej"/></g></g></svg>