<svg xmlns="http://www.w3.org/2000/svg" xmlns:xlink="http://www.w3.org/1999/xlink" viewBox="0 0 24.09 24.09"><defs><style>.cls-1{fill:#eb5e29;}.cls-2{fill:url(#linear-gradient);}.cls-3{fill:#fff;}</style><linearGradient id="linear-gradient" x1="7557.35" y1="9005.2" x2="7558.35" y2="9005.2" gradientTransform="matrix(22.68, 0, 0, -22.68, -171379.61, 204223.96)" gradientUnits="userSpaceOnUse"><stop offset="0" stop-color="#7c7c7b"/><stop offset="1" stop-color="#575756"/></linearGradient><symbol id="_4.03_Memorija_pozicije_krilca" data-name="4.03 Memorijapozicije krilca" viewBox="0 0 24.09 24.09"><rect class="cls-1" x="1.42" y="1.42" width="22.68" height="22.68"/><rect class="cls-2" width="22.68" height="22.68"/><path class="cls-3" d="M17.25,5.19H6.07V4.25H17.25Zm.36,1.4V17.77h.94V6.59ZM15.47,5.9l-8,8.89.5.5,8.89-7.95ZM16,17.17,14.41,17l.22.53a3.23,3.23,0,0,1-.69.07A3.6,3.6,0,0,1,11,16l.53-.23-1.26-.94-.19,1.56.55-.23A4,4,0,0,0,13.94,18a4.11,4.11,0,0,0,.85-.1l.23.56ZM7.76,12l-1-1.24-.21.53A3.34,3.34,0,0,1,6,10.81a3.58,3.58,0,0,1-1-3.17l.54.21L5.36,6.3l-1.24,1,.56.22a4,4,0,0,0,1.08,3.6,3.74,3.74,0,0,0,.66.53l-.22.55Z"/></symbol></defs><title>MEMPOZKRIL</title><g id="Layer_2" data-name="Layer 2"><g id="Layer_1-2" data-name="Layer 1"><use width="24.09" height="24.09" xlink:href="#_4.03_Memorija_pozicije_krilca"/></g></g></svg>