<svg xmlns="http://www.w3.org/2000/svg" xmlns:xlink="http://www.w3.org/1999/xlink" viewBox="0 0 24.09 24.09"><defs><style>.cls-1{fill:#f3bb00;}.cls-2{fill:url(#linear-gradient);}.cls-3{fill:#fff;}</style><linearGradient id="linear-gradient" x1="7554.72" y1="9005.2" x2="7555.72" y2="9005.2" gradientTransform="matrix(22.68, 0, 0, -22.68, -171316.92, 204220.5)" gradientUnits="userSpaceOnUse"><stop offset="0" stop-color="#7c7c7b"/><stop offset="1" stop-color="#575756"/></linearGradient><symbol id="_5.02_Režim_mirovanja" data-name="5.02 Režim mirovanja" viewBox="0 0 24.09 24.09"><rect class="cls-1" x="1.42" y="1.42" width="22.68" height="22.68"/><rect class="cls-2" width="22.68" height="22.68"/><path class="cls-3" d="M11.7,5.22l0,.31L11,6.88c-.09.14-.17.28-.26.41h0l1.18-.11,0,.41-1.77.15,0-.3.78-1.36.26-.41h0l-1.09.1,0-.41m-2,1,0,.29.76-.07h0l-.18.28-.55,1,0,.21L9.35,8l0-.28-.81.07h0l.18-.28.53-.93,0-.22m-2.69.93,0,.19.49,0H7l-.12.18-.35.62v.14l.8-.07,0-.19-.53,0h0l.12-.19.35-.61,0-.14m7.05,9.54c4.84-2.85,4.85-9.24.27-13.12.6,5.09-.85,9.39-4.7,7.88.36.94.67.82,1,1.21-.16.41-1.13.94-1.13.94a3.05,3.05,0,0,0,.94.77,1.37,1.37,0,0,1-1.32-.59,7.41,7.41,0,0,1-4.67.39c3.14,4.58,7.19,3.95,9.61,2.52"/></symbol></defs><title>MIROVANJE</title><g id="Layer_2" data-name="Layer 2"><g id="Layer_1-2" data-name="Layer 1"><use width="24.09" height="24.09" xlink:href="#_5.02_Režim_mirovanja"/></g></g></svg>