<svg xmlns="http://www.w3.org/2000/svg" xmlns:xlink="http://www.w3.org/1999/xlink" viewBox="0 0 24.1 24.09"><defs><style>.cls-1{fill:#816daf;}.cls-2{fill:url(#linear-gradient);}.cls-3{fill:#fff;fill-rule:evenodd;}</style><linearGradient id="linear-gradient" x1="7550.79" y1="9005.2" x2="7551.79" y2="9005.2" gradientTransform="matrix(22.68, 0, 0, -22.68, -171227.64, 204220.5)" gradientUnits="userSpaceOnUse"><stop offset="0" stop-color="#7c7c7b"/><stop offset="1" stop-color="#575756"/></linearGradient><symbol id="_7.02_Inteligento_odleđivanje_spoljne_jedinice" data-name="7.02 Inteligentoodleđivanjespoljne jedinice" viewBox="0 0 24.09 24.09"><rect class="cls-1" x="1.42" y="1.42" width="22.68" height="22.68"/><rect class="cls-2" width="22.68" height="22.68"/><path class="cls-3" d="M16.3,17.69l-.31.18v-.08l.31-.18v-.24l-.31.18v-.07l.31-.18v-.39l-.25.15v.14l-.06,0V17.1l-.12.07v-.08L16,17v-.28l-.32.19v.36l-.06,0V17l-.2.12v.36l-.06,0v-.36l-.33.19,0-.05.33-.2L15,16.9l.07,0,.31.17.2-.12-.31-.17.07,0,.31.18.33-.2-.25-.14-.12.08-.07,0,.13-.07-.13-.07.07,0,.12.07.24-.14-.33-.19-.31.19-.06,0,.31-.18L15.35,16l-.31.18-.06,0,.31-.18L15,15.76l0,0,.33.18v-.35l.06,0v.36l.21.12v-.36l.06,0v.36l.33.19V16l-.13-.07v-.08l.13.08v-.14l.06,0V16l.24.13v-.37L16,15.54v-.08l.31.18v-.23L16,15.23v-.08l.32.18V15h.07v.38l.31-.18v.07l-.31.19v.23l.32-.18v.08l-.31.18v.38L16.6,16v-.15l.07,0v.15l.12-.07v.08l-.12.06v.28l.32-.19v-.36l.07,0V16l.2-.12v-.36l.07,0v.36l.33-.19,0,.06-.33.19.31.18-.06,0L17.29,16l-.2.12.31.18-.06,0L17,16.14l-.33.19.24.14.13-.07.06,0-.12.08.12.07-.07,0-.12-.07-.24.13.33.19.31-.18.07,0-.31.18.2.11.31-.18.07,0-.31.18.33.19,0,.06-.33-.19v.36l-.07,0v-.36L17.06,17v.36l-.06,0v-.36l-.34-.19V17l.12.07v.08l-.13-.07v.14l-.07,0v-.14l-.24-.14v.38l.32.17v.08l-.32-.18v.24l.31.18v.07l-.31-.17v.38H16.3Zm-.25-1V17l.25-.14v-.27Zm.31.14.24.13V16.7l-.24-.13Zm-.58-.34.24.14.24-.14L16,16.37Zm.61,0,.25.14.23-.14-.24-.14Zm-.33-.2.23.14v-.28L16.05,16Zm.3-.13v.27l.24-.14V16Zm.7-5.19.1-.21a3.5,3.5,0,0,0,.15-.62A3,3,0,0,0,17.18,9a3,3,0,0,0-.2-.52,4,4,0,0,0-.54-.84,4,4,0,0,0-.33-.37,5.61,5.61,0,0,0-2-1.28l.19.32.15.27c.06.1.11.21.16.31s.1.19.14.28.09.21.13.32.09.19.13.29.07.2.1.3.08.22.11.33a2.68,2.68,0,0,0,.07.27c0,.13.06.25.08.37a2,2,0,0,1,0,.24c0,.13.05.27.06.4a1.34,1.34,0,0,1,0,.2c0,.15,0,.3,0,.44a4.49,4.49,0,0,1,0,.64,4.86,4.86,0,0,1-.1.55c0,.1-.05.19-.08.29a5.15,5.15,0,0,0,1.5-.61,2.39,2.39,0,0,0,.33-.25m.88-.68a1.77,1.77,0,0,1-.6,1.11h0a2.1,2.1,0,0,1-.33.26,5.3,5.3,0,0,1-1.5.6,6.57,6.57,0,0,1-1.19.2l-.34,0c0-.19.09-.38.14-.57s.09-.38.13-.57.06-.26.06-.26c-.26.09-.53.17-.8.24l-1.42.31-.48.09c-.67.14-1.35.27-2,.39l-.39.07h0l2.34,2.56.33.36c.38.41.75.82,1.15,1.21,0-.12.07-.24.1-.37.08-.28.16-.56.23-.85a3.36,3.36,0,0,0,3.25-1.19,3.75,3.75,0,0,0,.36-.5,3.6,3.6,0,0,0,.29-.55c.08-.16.16-.31.23-.48s.15-.38.22-.58,0-.11,0-.16a10.17,10.17,0,0,0,.23-1.35m-4.11.37-.21.13v-.06l.21-.12v-.15l-.21.12v0l.21-.12v-.26l-.16.1v.1l-.05,0v-.1l-.08.05v-.05l.08,0v-.18l-.21.13v.23l-.05,0v-.24l-.13.08v.24l-.05,0v-.24l-.22.12,0,0,.22-.13L13,10.16l.05,0,.2.12.14-.08-.21-.11,0,0,.2.12L13.6,10l-.16-.09-.08.05,0,0,.08,0-.08,0,0,0,.08.05.16-.1-.22-.12-.21.12,0,0,.21-.12-.14-.08L13,9.68l0,0,.21-.12-.22-.12,0,0,.22.13V9.26l0,0v.24l.14.08V9.36l0,0v.24l.22.13V9.56l-.08-.05v0l.08,0V9.42l.05,0v.1l.15.08V9.38l-.2-.12v0l.21.12V9.17l-.21-.12V9l.21.12V8.87h0v.26l.2-.12v.05l-.2.12v.16l.2-.12v0l-.2.12v.25L14,9.54v-.1l0,0v.1l.08,0v0l-.08.05v.18l.21-.12V9.38l0,0v.24l.14-.08V9.27l0,0v.24l.22-.13,0,0-.22.12.21.12,0,0-.21-.12-.13.08.2.12,0,0-.21-.11-.22.12.17.1.08-.05,0,0-.08.05.08,0,0,0-.08,0L14.1,10l.22.12.2-.12.05,0-.21.12.13.07.21-.11.05,0-.21.12.22.12,0,0-.22-.12v.24l0,0v-.24l-.13-.07v.24l0,0v-.24l-.22-.12v.18l.09,0v.05l-.09-.05v.1l-.05,0v-.09l-.16-.09v.25l.21.11v.06l-.21-.12v.15l.21.12v.05l-.21-.12v.26h-.05ZM13.66,10v.18l.16-.1V9.94Zm.21.09.16.09V10l-.16-.09Zm-.39-.23.17.09.15-.09-.16-.09Zm.41,0,.17.09.15-.09-.16-.09Zm-.22-.13.16.09V9.68l-.15-.09Zm.2-.09v.18L14,9.77V9.59Zm3.88-1.34-.13.07v0l.13-.07v-.1l-.12.07v0l.12-.07V8l-.1.06v.06l0,0V8.1l-.05,0v0l.06,0V8L17.48,8v.15h0V8l-.08.05v.15l0,0V8.11l-.13.08,0,0,.14-.07L17.2,8h0l.13.07L17.44,8,17.31,8l0,0,.13.07.13-.08-.1,0-.05,0,0,0,0,0,0,0h0l.05,0,.1,0-.14-.08-.12.07h0l.13-.08-.09,0-.13.07h0l.12-.08-.13-.08v0l.14.08V7.45h0v.15l.08,0V7.51l0,0v.15l.14.07V7.64l-.06,0v0l.06,0V7.55h0v.06l.1.06V7.52l-.13-.07v0l.13.07v-.1l-.13-.07v0l.13.07V7.2h0v.16l.13-.07v0l-.13.07v.1l.13-.08v0l-.13.07v.16l.1-.06V7.56h0v.06l.05,0v0l-.05,0v.11L18,7.67V7.52h0v.15l.08,0V7.46l0,0v.15l.14-.08v0l-.13.09.13.07h0l-.13-.07-.09,0,.13.07,0,0-.13-.07-.14.08.1,0,0,0,0,0-.05,0,.05,0,0,0,0,0-.1,0,.14.08.13-.07h0L18.08,8l.08,0L18.29,8l0,0-.13.07.14.08,0,0-.13-.08v.15h0V8.09L18.06,8v.15l0,0V8L17.9,8v.11l.05,0v0l-.05,0v.05h0V8.08L17.77,8v.16l.13.07v0l-.13-.07v.1l.13.07v0l-.13-.07V8.5h0Zm-.11-.41v.12l.1-.06V7.87Zm.13.06.1.06V7.93l-.1-.06Zm-.24-.14.1.06.1-.06-.1-.06Zm.25,0,.11.06L18,7.85l-.1-.06Zm-.14-.08.1.06V7.71l-.1-.06Zm.13-.06v.12l.1-.06V7.65Zm-7.23,4c0-.1,0-.21,0-.31a2.34,2.34,0,0,0-.05-.3c0-.1,0-.18,0-.25s0-.15,0-.2v0h0a.64.64,0,0,1-.2,0L10,10.5a.49.49,0,0,1-.13-.12.71.71,0,0,1-.1-.14l-.08-.15c0-.05,0-.09,0-.14a.27.27,0,0,1,0-.12s0-.06,0-.08v0l-2.62-.2h0l-.14.08v.18a1.11,1.11,0,0,1,0,.17l-.06.18a.85.85,0,0,1-.3.32l-.24.09-.21,0H6c-.07,0-.2.09-.2.13v.14c0,.1,0,.21,0,.34a3,3,0,0,0,0,.41,4,4,0,0,0,.06.47,8,8,0,0,0,.33,1.48A5.77,5.77,0,0,0,6.87,15a3.4,3.4,0,0,0,1,1.07,2.4,2.4,0,0,0,1.33.4,4.19,4.19,0,0,0,.33-.32l0,0a4,4,0,0,0,.59-.9,4.13,4.13,0,0,0,.34-1.08L8.65,12.06Z"/></symbol></defs><title>ODLEDJIVANJESJ</title><g id="Layer_2" data-name="Layer 2"><g id="Layer_1-2" data-name="Layer 1"><use width="24.1" height="24.09" xlink:href="#_7.02_Inteligento_odleđivanje_spoljne_jedinice"/></g></g></svg>