<svg xmlns="http://www.w3.org/2000/svg" xmlns:xlink="http://www.w3.org/1999/xlink" viewBox="0 0 24.09 24.09"><defs><style>.cls-1{fill:#d7bfd4;}.cls-2{fill:url(#linear-gradient);}.cls-3{fill:#fff;}</style><linearGradient id="linear-gradient" x1="7554.72" y1="9005.2" x2="7555.72" y2="9005.2" gradientTransform="matrix(22.68, 0, 0, -22.68, -171316.92, 204220.5)" gradientUnits="userSpaceOnUse"><stop offset="0" stop-color="#7c7c7b"/><stop offset="1" stop-color="#575756"/></linearGradient><symbol id="_3.14_Režim_Odvaživanja" data-name="3.14 Režim Odvaživanja" viewBox="0 0 24.09 24.09"><rect class="cls-1" x="1.42" y="1.42" width="22.68" height="22.68"/><rect class="cls-2" width="22.68" height="22.68"/><path class="cls-3" d="M11.34,4.38a7,7,0,1,0,7,7,7,7,0,0,0-7-7m-5.9,7A5.88,5.88,0,0,1,6.65,7.76L15,16a5.89,5.89,0,0,1-9.52-4.65M15.79,15.2,7.44,6.92a5.89,5.89,0,0,1,8.35,8.28m-4.48.94A3.15,3.15,0,0,0,13.7,15L9,10.35c-.18.36-.34.72-.48,1.05,0,.1-.07.19-.11.28l0,.07a4.61,4.61,0,0,0-.22.76l0,.16h0a2.46,2.46,0,0,0,0,.26,3.3,3.3,0,0,0,3.16,3.2m-2-4.56a.27.27,0,0,1,.41,0,2.3,2.3,0,0,0,0,2.83c-.26.19-.41,0-.41,0a2.8,2.8,0,0,1,0-2.83m5.11,1.36a3.51,3.51,0,0,1-.09.65L9.75,9c.46-.84.92-1.6,1.23-2.09.1-.17.18-.31.24-.4a.44.44,0,0,1,.06-.1s0,0,0,0v0l0,0h0l.47.77c.88,1.46,2.68,4.56,2.67,5.8"/></symbol></defs><title>ODVLAZIVANJE</title><g id="Layer_2" data-name="Layer 2"><g id="Layer_1-2" data-name="Layer 1"><use width="24.09" height="24.09" xlink:href="#_3.14_Režim_Odvaživanja"/></g></g></svg>