<svg xmlns="http://www.w3.org/2000/svg" xmlns:xlink="http://www.w3.org/1999/xlink" viewBox="0 0 24.09 24.09"><defs><style>.cls-1{fill:#eb5e29;}.cls-2{fill:url(#linear-gradient);}.cls-3{fill:#fff;}</style><linearGradient id="linear-gradient" x1="7557.35" y1="9005.2" x2="7558.35" y2="9005.2" gradientTransform="matrix(22.68, 0, 0, -22.68, -171379.61, 204223.96)" gradientUnits="userSpaceOnUse"><stop offset="0" stop-color="#7c7c7b"/><stop offset="1" stop-color="#575756"/></linearGradient><symbol id="_4.07_Unutrašnje_ožebljena_bakarna_cev" data-name="4.07 Unutrašnje ožebljena bakarna cev" viewBox="0 0 24.09 24.09"><rect class="cls-1" x="1.42" y="1.42" width="22.68" height="22.68"/><rect class="cls-2" width="22.68" height="22.68"/><path class="cls-3" d="M14.5,13.72l5.34-2.9-.19-.36L15.7,12.63a2.74,2.74,0,0,0,.88-2.37,2.38,2.38,0,0,0-2.07-1.7,9.08,9.08,0,0,0-3.76.27l5.39-2.77L16,5.69,8,9.82a16,16,0,0,0-1.49.77l-.58.3,0,0a9,9,0,0,0-2.39,2.12,2.7,2.7,0,0,0-.37,3l0,0a3.47,3.47,0,0,0,2.6.86,13.27,13.27,0,0,0,4.55-1h0l0,0a20,20,0,0,0,2.25-1A15.3,15.3,0,0,0,14.5,13.72ZM8.33,10.08,8.45,10A3.78,3.78,0,0,0,8,13.87a2.49,2.49,0,0,0,2.37,1.67c-.48.19-1,.36-1.44.5a3.23,3.23,0,0,1-.79-.15,2.66,2.66,0,0,1-1.65-2,3.42,3.42,0,0,1,.75-3.28Zm2,1c0,1,0,1.91,1.67,2.42a5.18,5.18,0,0,0,1.66.25l-1.37.75a3.11,3.11,0,0,1-1.38-.18A2.5,2.5,0,0,1,9.53,13h0a2.29,2.29,0,0,1-.17-.46,3.75,3.75,0,0,1,.73-3.08,8.56,8.56,0,0,1,.83-.23,2.27,2.27,0,0,0-.59,1.51h0C10.34,10.84,10.34,11,10.34,11.07ZM9.18,12.56a3.54,3.54,0,0,0,.18.49h0a2.69,2.69,0,0,0,1.49,1.44,3.2,3.2,0,0,0,1.09.2l-1.17.64a2.37,2.37,0,0,1-2.6-1.53,3.66,3.66,0,0,1,.62-3.91c.33-.14.67-.26,1-.37A3.84,3.84,0,0,0,9.18,12.56Zm4.89,1a4.9,4.9,0,0,1-2-.21c-1.51-.46-1.52-1.27-1.53-2.24,0-.12,0-.24,0-.36a2.24,2.24,0,0,1,.69-1.58c.31-.07.61-.12.91-.16a2.09,2.09,0,0,0-.33,1.78,2.44,2.44,0,0,0,1.32,1.56,3.62,3.62,0,0,0,2.05.29,8.25,8.25,0,0,1-1,.87ZM14.43,9a2,2,0,0,1,1.75,1.4,2.37,2.37,0,0,1-.81,2,3.48,3.48,0,0,1-2.18-.25A2.32,2.32,0,0,1,12,10.7a1.93,1.93,0,0,1,.43-1.77A6.57,6.57,0,0,1,14.43,9ZM3.49,15.86a2.29,2.29,0,0,1,.36-2.57A7.21,7.21,0,0,1,5,12.11a3.81,3.81,0,0,0-.14,2.55A2.32,2.32,0,0,0,7,16.47l.81-.14c-1.13,0-2.33-.18-2.79-1.73a3.64,3.64,0,0,1,.31-2.77,12.82,12.82,0,0,1,1.15-.78l.39-.2A3.51,3.51,0,0,0,6.31,14a2.86,2.86,0,0,0,1.77,2.1,2.92,2.92,0,0,0,.4.1C6.34,16.75,4.38,16.77,3.49,15.86Z"/></symbol></defs><title>OZBAKCEV</title><g id="Layer_2" data-name="Layer 2"><g id="Layer_1-2" data-name="Layer 1"><use width="24.09" height="24.09" xlink:href="#_4.07_Unutrašnje_ožebljena_bakarna_cev"/></g></g></svg>