<svg xmlns="http://www.w3.org/2000/svg" xmlns:xlink="http://www.w3.org/1999/xlink" viewBox="0 0 24.09 24.09"><defs><style>.cls-1{fill:#ea5d29;}.cls-2{fill:url(#linear-gradient);}.cls-3{fill:#fff;}</style><linearGradient id="linear-gradient" x1="7554.72" y1="9005.2" x2="7555.72" y2="9005.2" gradientTransform="matrix(22.68, 0, 0, -22.68, -171316.92, 204220.5)" gradientUnits="userSpaceOnUse"><stop offset="0" stop-color="#7c7c7b"/><stop offset="1" stop-color="#575756"/></linearGradient><symbol id="_4.10_Panel_koji_se_lako_održava" data-name="4.10 Panel koji se lako održava" viewBox="0 0 24.09 24.09"><rect class="cls-1" x="1.42" y="1.42" width="22.68" height="22.68"/><rect class="cls-2" width="22.68" height="22.68"/><path class="cls-3" d="M16.65,13.2c0,.09,0,.14,0,.14s.13,4.2-2.93,4.2c-3.42,0-3.25-3.78-3.25-3.88l-.15-2.46c0-.3-.09-.78.24-.78s.53.21.64.56l.18,1.14a3.29,3.29,0,0,0,.33,1.1V8.41a.58.58,0,0,1,.6-.56.58.58,0,0,1,.6.56V11.6h0V7.87a.58.58,0,0,1,.6-.56.59.59,0,0,1,.6.56v3.6h0v-3a.61.61,0,0,1,1.21,0V11.7l0,0V9.35c0-.31.14-.56.48-.56s.47.25.47.56l.26,3.85m1.42.22L16.89,12,17,13.23v.15a7.82,7.82,0,0,1-.05,1Zm-7.94-2.26V11a1,1,0,0,1,.15-.73.39.39,0,0,1,.31-.13.88.88,0,0,1,.86.73v0l.08.5V8.24a.81.81,0,0,1,.83-.79.78.78,0,0,1,.45.15A.83.83,0,0,1,13,7.15l-.48-.59L7.87,10.32l2.39,3ZM8.39,9.33h-2v.22H8.11Zm5.27-2h.12a.37.37,0,0,0-.15,0Zm-2.54-.22H6.38v.22h4.46Zm4.16,2.23v0h0Zm1.45.19h3V9.33h-3Zm.48,2.2h2.51v-.22H17Zm-3-4.62a.69.69,0,0,1,.16.22h5.38V7.13Zm-5.81,4.4h-2v.22H8.55ZM18.14,14h1.58v-.22H18.41Zm-7.86,0-.14-.18H6.38V14h3.9Z"/></symbol></defs><title>PANELODRZ</title><g id="Layer_2" data-name="Layer 2"><g id="Layer_1-2" data-name="Layer 1"><use width="24.09" height="24.09" xlink:href="#_4.10_Panel_koji_se_lako_održava"/></g></g></svg>