<svg xmlns="http://www.w3.org/2000/svg" xmlns:xlink="http://www.w3.org/1999/xlink" viewBox="0 0 24.1 24.09"><defs><style>.cls-1{fill:#eb5e29;}.cls-2{fill:url(#linear-gradient);}.cls-3{fill:#fff;}</style><linearGradient id="linear-gradient" x1="7549.49" y1="9005.19" x2="7550.49" y2="9005.19" gradientTransform="matrix(22.68, 0, 0, -22.68, -171204.99, 204228.26)" gradientUnits="userSpaceOnUse"><stop offset="0" stop-color="#7c7c7b"/><stop offset="1" stop-color="#575756"/></linearGradient><symbol id="_4.02_Pozadinsko_osvetljenje" data-name="4.02 Pozadinsko osvetljenje" viewBox="0 0 24.09 24.09"><rect class="cls-1" x="1.42" y="1.42" width="22.68" height="22.68"/><rect class="cls-2" width="22.68" height="22.68"/><path class="cls-3" d="M13.88,16.62H12.24V14.45h1.64m-1.39,1.91h1.14V14.71H12.49Zm-.37.26H10.48V14.45h1.64m-1.39,1.91h1.14V14.71H10.73Zm-.37.26H8.71V14.45h1.65M9,16.36h1.14V14.71H9Zm4.66,2.07H9a2,2,0,0,1-1.66-2.16V6.41A2,2,0,0,1,9,4.25h4.59A2,2,0,0,1,15.3,6.41v9.86a2,2,0,0,1-1.67,2.16M9,4.64c-.71,0-1.28.8-1.28,1.77v9.86c0,1,.57,1.76,1.28,1.76h4.59c.71,0,1.29-.79,1.29-1.76V6.41c0-1-.58-1.77-1.29-1.77Zm4.84,9.64H12.24V12.11h1.64M12.49,14h1.14V12.37H12.49Zm1.39-2.08H12.24V9.77h1.64m-1.39,1.9h1.14V10H12.49Zm-.37,2.61H10.48V12.11h1.64M10.73,14h1.14V12.37H10.73Zm1.39-2.08H10.48V9.77h1.64m-1.39,1.9h1.14V10H10.73Zm-.37,2.61H8.71V12.11h1.65M9,14h1.14V12.37H9Zm1.39-2.08H8.71V9.77h1.65m4-.83H8.18V6.06h6.15M8.43,8.68h5.65V6.32H8.43Z"/></symbol></defs><title>POZSV</title><g id="Layer_2" data-name="Layer 2"><g id="Layer_1-2" data-name="Layer 1"><use width="24.1" height="24.09" xlink:href="#_4.02_Pozadinsko_osvetljenje"/></g></g></svg>