<svg xmlns="http://www.w3.org/2000/svg" xmlns:xlink="http://www.w3.org/1999/xlink" viewBox="0 0 24.09 24.09"><defs><style>.cls-1{fill:#d7bfd4;}.cls-2{fill:url(#linear-gradient);}.cls-3{fill:#fff;}</style><linearGradient id="linear-gradient" x1="7557.35" y1="9005.2" x2="7558.35" y2="9005.2" gradientTransform="matrix(22.68, 0, 0, -22.68, -171379.63, 204223.96)" gradientUnits="userSpaceOnUse"><stop offset="0" stop-color="#7c7c7b"/><stop offset="1" stop-color="#575756"/></linearGradient><symbol id="_3.07_Prijatano_izduvavanje_vazduhuha" data-name="3.07 Prijatanoizduvavanjevazduhuha" viewBox="0 0 24.09 24.09"><rect class="cls-1" x="1.42" y="1.42" width="22.68" height="22.68"/><rect class="cls-2" width="22.68" height="22.68"/><path class="cls-3" d="M18.5,6.85H6.87l-.35-.2L5,5.8a.23.23,0,0,0-.34.2v.85h-.5A1.35,1.35,0,0,0,2.83,8.19v3.58a1.35,1.35,0,0,0,1.35,1.34H14.91l1.17,1.1-1,.56a.23.23,0,0,0,0,.4l1.5.85,1.5.86a.23.23,0,0,0,.34-.2V13.22a.2.2,0,0,0,0-.11h.09a1.34,1.34,0,0,0,1.34-1.34V8.19A1.34,1.34,0,0,0,18.5,6.85ZM4.18,12.43a.66.66,0,0,1-.67-.66V8.19a.67.67,0,0,1,.67-.66h.51V9.46a.23.23,0,0,0,.35.19l.62-.36L7,10.52H5a.55.55,0,0,0-.55.55v.39A.56.56,0,0,0,5,12h8.75l.44.41Zm13.24,1-.3-.31H18Zm1.75-1.65a.66.66,0,0,1-.67.66h-2L16.1,12h1.45a.56.56,0,0,0,.55-.56v-.39a.55.55,0,0,0-.55-.55H9.21l-2-2.14L8,7.91a.23.23,0,0,0,0-.38H18.5a.67.67,0,0,1,.67.66Z"/></symbol></defs><title>PRIJATANVAZDUH</title><g id="Layer_2" data-name="Layer 2"><g id="Layer_1-2" data-name="Layer 1"><use width="24.09" height="24.09" xlink:href="#_3.07_Prijatano_izduvavanje_vazduhuha"/></g></g></svg>