<svg xmlns="http://www.w3.org/2000/svg" xmlns:xlink="http://www.w3.org/1999/xlink" viewBox="0 0 24.09 24.09"><defs><style>.cls-1{fill:#d7bfd4;}.cls-2{fill:url(#linear-gradient);}.cls-3{fill:#fff;}</style><linearGradient id="linear-gradient" x1="7557.35" y1="9005.2" x2="7558.35" y2="9005.2" gradientTransform="matrix(22.68, 0, 0, -22.68, -171379.63, 204223.96)" gradientUnits="userSpaceOnUse"><stop offset="0" stop-color="#7c7c7b"/><stop offset="1" stop-color="#575756"/></linearGradient><symbol id="_3.06_Prijatno_hlađenje" data-name="3.06 Prijatno hlađenje" viewBox="0 0 24.09 24.09"><rect class="cls-1" x="1.42" y="1.42" width="22.68" height="22.68"/><rect class="cls-2" width="22.68" height="22.68"/><path class="cls-3" d="M17.7,17.14a1.7,1.7,0,0,1-1.41-.69.94.94,0,0,0-.69-.28h0a.94.94,0,0,0-.69.28,1.68,1.68,0,0,1-1.41.69A1.71,1.71,0,0,1,12,16.45a.91.91,0,0,0-.68-.28h0a.94.94,0,0,0-.69.28,1.8,1.8,0,0,1-2.83,0,.93.93,0,0,0-.69-.28h0a.94.94,0,0,0-.69.28A1.7,1.7,0,0,1,5,17.14a1.71,1.71,0,0,1-1.42-.69.93.93,0,0,0-.69-.28l0-.71A1.66,1.66,0,0,1,4.1,16a1,1,0,0,0,.88.45A1,1,0,0,0,5.86,16a1.72,1.72,0,0,1,2.48,0,1,1,0,0,0,.88.45A1,1,0,0,0,10.1,16a1.72,1.72,0,0,1,2.48,0,1,1,0,0,0,.88.45,1,1,0,0,0,.88-.45,1.72,1.72,0,0,1,2.48,0,1,1,0,0,0,.88.45,1,1,0,0,0,.88-.45,1.65,1.65,0,0,1,1.26-.53l0,.71,0-.36,0,.36a.92.92,0,0,0-.68.28A1.71,1.71,0,0,1,17.7,17.14Zm-1.29-4.06a2.45,2.45,0,1,1-3.93-1.95V7a1.48,1.48,0,0,1,2.95,0v4.12A2.46,2.46,0,0,1,16.41,13.08Zm-.71,0a1.76,1.76,0,0,0-1-1.56V9.77H13.19v1.75a1.74,1.74,0,1,0,2.51,1.56Zm.9-6.39H15.55v.55H16.6Zm-.19.69h-.86v.56h.86Zm0,.7h-.86v.55h.86Zm0,.69h-.86v.56h.86Zm.19.7H15.55V10H16.6Zm-6.14.44.06.24-.23.06-.2-.13v.24l-.28-.17V9.91l-.11-.06v.41l-.28-.17V9.68l-.16-.1L9,9.74l0,.43L8.71,9.9l-.27.16v.19l.34.23v.34l-.34-.22v.12l.19.14v.33l-.19-.12v.25l-.16.17-.17-.17v-.25l-.19.12v-.33l.19-.14V10.6l-.34.22v-.34l.34-.23v-.2l-.26-.16-.34.27.08-.43-.27-.16-.18.1v.42l-.28.17V9.85l-.11.06v.24l-.28.17v-.24l-.2.13L6,10.15l.06-.24.21-.12-.2-.12.28-.17.21.12.1-.07-.35-.19.29-.17L7,9.38l.19-.11V9l-.41-.18.41-.15V8.33L7,8.22l-.35.2-.29-.17.35-.2L6.59,8l-.21.11L6.1,7.93l.2-.12-.21-.12L6,7.46l.23-.06.2.12V7.28l.28.17v.24l.11.06V7.34l.28.17v.42L7.35,8l.23-.14,0-.46.33.3.25-.16V7.35l-.34-.22V6.79L8.11,7V6.88l-.19-.13V6.41l.19.12V6.28l.17-.17.16.17v.25l.19-.12v.34l-.19.13V7l.34-.21v.34l-.34.22v.22l.25.15L9,7.45,9,7.88,9.22,8l.19-.1V7.51l.28-.17v.41l.11-.06V7.45l.28-.17v.24l.2-.12.23.06-.06.23-.21.12.2.12-.28.17L10,8l-.1.06.35.2-.29.17-.35-.2-.17.09v.34l.39.17L9.4,9v.32l.17.1.35-.19.29.17-.35.19.1.07.21-.11.28.16-.2.12Zm-2-1.65.19.11.28-.16-.47-.29Zm-.79,0,.29.17.13-.08,0,0V7.94Zm.1.71V8.65L7.47,8.5v.59Zm.36.44-.22-.13-.28.16.5.3ZM8.54,9V8.66l-.25-.15-.1.06L8,8.66V9l.25.15ZM9,9.4l-.27-.17-.24.14v.34Zm.16-.92-.28.16v.29l.28.17Z"/></symbol></defs><title>PRIJATNOHLADJENJE</title><g id="Layer_2" data-name="Layer 2"><g id="Layer_1-2" data-name="Layer 1"><use width="24.09" height="24.09" xlink:href="#_3.06_Prijatno_hlađenje"/></g></g></svg>