<svg xmlns="http://www.w3.org/2000/svg" xmlns:xlink="http://www.w3.org/1999/xlink" viewBox="0 0 24.09 24.09"><defs><style>.cls-1{fill:#816daf;}.cls-2{fill:url(#linear-gradient);}.cls-3{fill:#fff;fill-rule:evenodd;}</style><linearGradient id="linear-gradient" x1="7554.72" y1="9005.2" x2="7555.72" y2="9005.2" gradientTransform="matrix(22.68, 0, 0, -22.68, -171316.92, 204220.5)" gradientUnits="userSpaceOnUse"><stop offset="0" stop-color="#7c7c7b"/><stop offset="1" stop-color="#575756"/></linearGradient><symbol id="_7.01_Širok_raspon_voltaže" data-name="7.01 Širok rasponvoltaže" viewBox="0 0 24.09 24.09"><rect class="cls-1" x="1.42" y="1.42" width="22.68" height="22.68"/><rect class="cls-2" width="22.68" height="22.68"/><path class="cls-3" d="M18.94,11.52a3.35,3.35,0,0,0,.12-.89c0-2.69-3.16-4.24-7.07-3.46-3.07.61-5.67,2.48-6.65,4.57h-1v.14h.91a4,4,0,0,0-.34,1.58c0,2.69,3.16,4.25,7.06,3.47,3.41-.68,6.25-2.91,6.92-5.26h.82v-.15ZM8.74,8.57A7.11,7.11,0,0,1,9.88,8a9.73,9.73,0,0,1,1.89-.56,8.06,8.06,0,0,1,1.52-.17,7.89,7.89,0,0,1,1.52.09A5.68,5.68,0,0,1,16.67,8a3.39,3.39,0,0,1,1,.83h0L17,8.74l-.29.32h0a3.52,3.52,0,0,0-.31-.35l.19-.18-.25.13a2.5,2.5,0,0,0-.45-.33A3.6,3.6,0,0,0,15.3,8a5.61,5.61,0,0,0-1-.27A6.34,6.34,0,0,0,13,7.67a8,8,0,0,0-1.32.15,9.44,9.44,0,0,0-1.63.48,6.5,6.5,0,0,0-1,.51h0l-.41,0,.09-.27h0Zm1.33-.23a8.45,8.45,0,0,1,1.62-.48A8,8,0,0,1,13,7.71a6.22,6.22,0,0,1,1.31.08l.16,0a3.65,3.65,0,0,1,1.78.88L13,10.41,12,8.91,8.59,11.75,8.16,11l-.6.71h-1A5.62,5.62,0,0,1,9.73,8.49Zm6.61,3.22v-.05H14.91l-.27-.5-.46.45,0-.67,2.17-2A2.23,2.23,0,0,1,17,10.36,2.9,2.9,0,0,1,16.68,11.56Zm-6.08,0,.1-.27.75-.41.22.5-.73.88.13-1.06Zm1-1L8.12,12.47,11.9,9.28l1,1.45,2.14-1.11-2.78,2.55Zm-1.4,1.07-.15.19,0-.09Zm-3.66.25H7.62l.52-.61.35.59L6.66,13.39a2.26,2.26,0,0,1-.22-1A2.78,2.78,0,0,1,6.51,11.85Zm.21,1.66,3.14-1.74L10,12l.48-.61,0,0-.21.56.59-.45-.15,1.19,1-1.17.47,1.07,1.14-1.06L14,11l0,.8.53-.54.23.41h1.81A7,7,0,0,1,11.71,15C9.39,15.41,7.43,14.78,6.72,13.51ZM9.2,15.34a3.54,3.54,0,0,0,.48.05,4.12,4.12,0,0,1-.48-.05ZM8,16.16H8a6.05,6.05,0,0,1-1.16-.59,4.58,4.58,0,0,1-.61-.52,2.94,2.94,0,0,1-.74-2.52A4.41,4.41,0,0,1,6,11.1,6.45,6.45,0,0,1,7.32,9.6c.41-.35.66-.53,1-.79h0l-.09.28.41,0a2.69,2.69,0,0,0-.27.2,3.16,3.16,0,0,1,.27-.2,5.87,5.87,0,0,0-.89.65A5.15,5.15,0,0,0,6.71,11a3.33,3.33,0,0,0-.44,1.24,2.41,2.41,0,0,0,.17,1.29v0l-.33.28.37-.2a2.91,2.91,0,0,0,1.07,1.13,3.49,3.49,0,0,0,1,.43l-.28-.1.28.1.11.56-.71.4Zm1.35-.24-.13-.58a5.75,5.75,0,0,0,1.54.1A9.05,9.05,0,0,0,13.07,15a9.7,9.7,0,0,0,1.67-.8A7.54,7.54,0,0,0,16.18,13a4.65,4.65,0,0,0,.8-1.18,3.14,3.14,0,0,0,.27-.92V10.8a1.34,1.34,0,0,0,0-.2,2.25,2.25,0,0,0,0-.26v-.1a.29.29,0,0,1,0-.09c0-.06,0-.13,0-.18A2.32,2.32,0,0,0,17,9.38l.3-.33.62.09h0a3.08,3.08,0,0,1,.35.83,3.39,3.39,0,0,1,.07,1A3.61,3.61,0,0,1,18,12.08a5.43,5.43,0,0,1-.93,1.44A7.7,7.7,0,0,1,15.38,15a9.91,9.91,0,0,1-2,1,10.09,10.09,0,0,1-2.84.53,9.82,9.82,0,0,1-1.39-.05c-.17,0-.34,0-.51-.08h0Z"/></symbol></defs><title>RASPONVOLTAZE</title><g id="Layer_2" data-name="Layer 2"><g id="Layer_1-2" data-name="Layer 1"><use width="24.09" height="24.09" xlink:href="#_7.01_Širok_raspon_voltaže"/></g></g></svg>