<svg xmlns="http://www.w3.org/2000/svg" xmlns:xlink="http://www.w3.org/1999/xlink" viewBox="0 0 24.09 24.09"><defs><style>.cls-1{fill:#816daf;}.cls-2{fill:url(#linear-gradient);}.cls-3{fill:#fff;fill-rule:evenodd;}</style><linearGradient id="linear-gradient" x1="7554.72" y1="9005.2" x2="7555.72" y2="9005.2" gradientTransform="matrix(22.68, 0, 0, -22.68, -171316.92, 204220.5)" gradientUnits="userSpaceOnUse"><stop offset="0" stop-color="#7c7c7b"/><stop offset="1" stop-color="#575756"/></linearGradient><symbol id="_7.03_Auto_restart" data-name="7.03 Auto restart" viewBox="0 0 24.09 24.09"><rect class="cls-1" x="1.42" y="1.42" width="22.68" height="22.68"/><rect class="cls-2" width="22.68" height="22.68"/><path class="cls-3" d="M14.64,11.81c-.47,0-.87-.28-.87-.62s.4-.62.87-.62H17c.48,0,.88.28.88.62s-.4.62-.88.62M8,11.81c.48,0,.88-.28.88-.62s-.4-.62-.88-.62H5.7c-.47,0-.87.28-.87.62s.4.62.87.62m5.38,6.62c.32,0,.59-.42.59-.92V15.08c0-.49-.27-.91-.59-.91s-.6.42-.6.91v2.43c0,.5.27.92.6.92m4.49-2.06a.48.48,0,0,0,.35-.13.86.86,0,0,0-.2-1.08l-1.65-1.72a1,1,0,0,0-.7-.34.47.47,0,0,0-.34.13c-.23.24-.14.74.2,1.09L14.88,16a1,1,0,0,0,.69.33m-8.47,0A1,1,0,0,0,7.8,16l1.65-1.72a1.15,1.15,0,0,0,.31-.62.53.53,0,0,0-.12-.47.45.45,0,0,0-.34-.13,1.05,1.05,0,0,0-.7.34L7,15.16c-.34.35-.43.84-.2,1.08a.47.47,0,0,0,.34.13m4-7.86c.32,0,.59-.42.59-.92V5.16c0-.49-.27-.91-.59-.91s-.6.42-.6.91V7.59c0,.5.27.92.6.92m2.29.74a1,1,0,0,0,.7-.34l1.65-1.72a.86.86,0,0,0,.2-1.08A.48.48,0,0,0,15.57,6a1,1,0,0,0-.69.33L13.23,8a1.16,1.16,0,0,0-.32.62.56.56,0,0,0,.12.47.47.47,0,0,0,.34.13m-4.07,0a.45.45,0,0,0,.34-.13.53.53,0,0,0,.12-.47A1.15,1.15,0,0,0,9.45,8L7.8,6.31A1,1,0,0,0,7.1,6a.47.47,0,0,0-.34.13c-.23.24-.14.73.2,1.08L8.6,8.91a1,1,0,0,0,.7.34"/></symbol></defs><title>RESTART</title><g id="Layer_2" data-name="Layer 2"><g id="Layer_1-2" data-name="Layer 1"><use width="24.09" height="24.09" xlink:href="#_7.03_Auto_restart"/></g></g></svg>