<svg xmlns="http://www.w3.org/2000/svg" xmlns:xlink="http://www.w3.org/1999/xlink" viewBox="0 0 24.09 24.09"><defs><style>.cls-1{fill:#86bb50;}.cls-2{fill:url(#linear-gradient);}.cls-3{fill:#fff;fill-rule:evenodd;}</style><linearGradient id="linear-gradient" x1="7554.72" y1="9005.2" x2="7555.72" y2="9005.2" gradientTransform="matrix(22.68, 0, 0, -22.68, -171316.92, 204220.5)" gradientUnits="userSpaceOnUse"><stop offset="0" stop-color="#7c7c7b"/><stop offset="1" stop-color="#575756"/></linearGradient><symbol id="_2.01_Samočišćenje" data-name="2.01 Samočišćenje" viewBox="0 0 24.09 24.09"><rect class="cls-1" x="1.42" y="1.42" width="22.68" height="22.68"/><rect class="cls-2" width="22.68" height="22.68"/><path class="cls-3" d="M14.7,14.83H14a.21.21,0,0,0-.2.21v3.39H12V15a.21.21,0,0,0-.21-.21h-.64a.21.21,0,0,0-.2.21v3.39H9V15a.21.21,0,0,0-.19-.21H8.11A.23.23,0,0,0,7.9,15v3.39H5.3a6.82,6.82,0,0,0,.27-2V12.28H17.1v4.16a7.06,7.06,0,0,0,.26,2H14.89V15a.21.21,0,0,0-.19-.21m2.67-4.21a.28.28,0,0,1-.27.27H5.56a.27.27,0,0,1-.26-.27V8.83a.27.27,0,0,1,.26-.27h4.75V5c0-.52.41-.77.93-.77h.18c.52,0,.93.25.93.77V8.56H17.1a.28.28,0,0,1,.27.27Z"/></symbol></defs><title>SAMOCISCENJE</title><g id="Layer_2" data-name="Layer 2"><g id="Layer_1-2" data-name="Layer 1"><use width="24.09" height="24.09" xlink:href="#_2.01_Samočišćenje"/></g></g></svg>