<svg xmlns="http://www.w3.org/2000/svg" xmlns:xlink="http://www.w3.org/1999/xlink" viewBox="0 0 24.09 24.09"><defs><style>.cls-1{fill:#d7bfd4;}.cls-2{fill:url(#linear-gradient);}.cls-3{fill:#fff;}</style><linearGradient id="linear-gradient" x1="7557.35" y1="9005.2" x2="7558.35" y2="9005.2" gradientTransform="matrix(22.68, 0, 0, -22.68, -171379.61, 204223.96)" gradientUnits="userSpaceOnUse"><stop offset="0" stop-color="#7c7c7b"/><stop offset="1" stop-color="#575756"/></linearGradient><symbol id="_3.08_Sprečava_izduvavanje_hladnog_vazduha_u_režimu_grejanja" data-name="3.08 Sprečava izduvavanjehladnog vazduhau režimu grejanja" viewBox="0 0 24.09 24.09"><rect class="cls-1" x="1.42" y="1.42" width="22.68" height="22.68"/><rect class="cls-2" width="22.68" height="22.68"/><path class="cls-3" d="M19.84,11h-17l.57-.67H9.16l-.1-.08a.9.9,0,0,1-.47-.78c0-.37.39-.56.67-.72a1.72,1.72,0,0,0,.3-.19,2.48,2.48,0,0,0-.29-.17C9,8.22,8.55,8,8.59,7.56s.3-.54.56-.72.33-.25.35-.33-.17-.43-.8-.86a.29.29,0,0,1-.08-.42.32.32,0,0,1,.43-.09c.79.54,1.14,1,1,1.49a1.28,1.28,0,0,1-.59.71,1.76,1.76,0,0,0-.31.26,1.17,1.17,0,0,0,.35.22c.29.15.68.35.64.77s-.35.52-.63.68c-.11.06-.34.19-.36.25s.16.16.24.22.4.31.42.57h.71l-.1-.08A.9.9,0,0,1,10,9.45c0-.37.39-.56.67-.72A1.5,1.5,0,0,0,11,8.54c-.07,0-.21-.12-.3-.17C10.37,8.22,10,8,10,7.56a1.09,1.09,0,0,1,.56-.72c.14-.1.34-.25.36-.33s-.18-.43-.8-.86A.31.31,0,0,1,10,5.23a.32.32,0,0,1,.43-.09c.79.54,1.15,1,1.06,1.49a1.28,1.28,0,0,1-.59.71,1.76,1.76,0,0,0-.31.26,1.05,1.05,0,0,0,.35.22c.29.15.68.35.64.77s-.36.52-.64.68c-.11.06-.34.19-.35.25s.16.16.24.22.4.31.42.57H12l-.11-.08a.92.92,0,0,1-.47-.78c0-.37.39-.56.67-.72a1.72,1.72,0,0,0,.3-.19,2.48,2.48,0,0,0-.29-.17c-.3-.15-.71-.37-.68-.81s.31-.54.56-.72.34-.25.35-.33-.17-.43-.8-.86a.3.3,0,0,1-.08-.42.32.32,0,0,1,.43-.09c.79.54,1.15,1,1.06,1.49a1.28,1.28,0,0,1-.59.71A1.24,1.24,0,0,0,12,7.6a1.11,1.11,0,0,0,.34.22c.29.15.69.35.64.77s-.35.52-.63.68c-.11.06-.34.19-.36.25a1.33,1.33,0,0,0,.24.22.93.93,0,0,1,.43.57h.71l-.11-.08a.92.92,0,0,1-.47-.78c0-.37.39-.56.67-.72a1.72,1.72,0,0,0,.3-.19,2.48,2.48,0,0,0-.29-.17c-.3-.15-.71-.37-.68-.81s.31-.54.56-.72.34-.25.35-.33-.17-.43-.8-.86a.29.29,0,0,1-.08-.42.32.32,0,0,1,.43-.09c.79.54,1.15,1,1.06,1.49a1.34,1.34,0,0,1-.6.71,1.36,1.36,0,0,0-.3.26,1,1,0,0,0,.34.22c.29.15.69.35.64.77s-.35.52-.63.68c-.11.06-.34.19-.36.25a1.06,1.06,0,0,0,.24.22.88.88,0,0,1,.42.57h5.2Zm-17,.93h17l-.56-.67H3.4Zm0,.93h17l-.56-.67H3.4ZM19.7,17.35a.31.31,0,0,1-.3.24h-.07a18.76,18.76,0,0,1-2.54-.76.29.29,0,0,1,.15.33.31.31,0,0,1-.3.24h-.06c-3.43-.73-4.28-2.83-4.48-3.62h-.43A4.51,4.51,0,0,0,14.82,17a.32.32,0,0,1,.2.39.31.31,0,0,1-.29.22l-.1,0A5.11,5.11,0,0,1,11,13.77h-.41A4.29,4.29,0,0,0,13.22,17a.3.3,0,0,1,.15.41.31.31,0,0,1-.28.18.27.27,0,0,1-.12,0,4.91,4.91,0,0,1-3-3.79H9.49c.1.8.49,2.72,1.91,3.22a.31.31,0,0,1-.11.6l-.1,0c-1.8-.64-2.23-2.94-2.33-3.8h-6l.57-.67H19.28l.56.67h-5.9c.16.64,1,2.17,5.53,3.21A.31.31,0,0,1,19.7,17.35Zm-3-.57c-2.72-1.08-3.29-2.37-3.39-3h-.57c.23.75,1.07,2.4,4,3Z"/></symbol></defs><title>SIHVURG</title><g id="Layer_2" data-name="Layer 2"><g id="Layer_1-2" data-name="Layer 1"><use width="24.09" height="24.09" xlink:href="#_3.08_Sprečava_izduvavanje_hladnog_vazduha_u_režimu_grejanja"/></g></g></svg>