<svg xmlns="http://www.w3.org/2000/svg" xmlns:xlink="http://www.w3.org/1999/xlink" viewBox="0 0 24.09 24.09"><defs><style>.cls-1{fill:#d7bfd4;}.cls-2{fill:url(#linear-gradient);}.cls-3{fill:#fff;fill-rule:evenodd;}</style><linearGradient id="linear-gradient" x1="7557.35" y1="9005.2" x2="7558.35" y2="9005.2" gradientTransform="matrix(22.68, 0, 0, -22.68, -171379.61, 204223.96)" gradientUnits="userSpaceOnUse"><stop offset="0" stop-color="#7c7c7b"/><stop offset="1" stop-color="#575756"/></linearGradient><symbol id="_3.10_Snažno_smanjenje_vlage_u_vazduhu" data-name="3.10 Snažno smanjenjevlage u vazduhu" viewBox="0 0 24.09 24.09"><rect class="cls-1" x="1.42" y="1.42" width="22.68" height="22.68"/><rect class="cls-2" width="22.68" height="22.68"/><path class="cls-3" d="M13.47,17.8l.4-.14.58,1.6-.4.14Zm2.94-1.92.28-.33L18,16.64l-.27.33ZM4.69,6,5,5.71,6.26,6.8,6,7.13ZM18,12.73l.08-.42,1.67.3-.07.42ZM2.93,10.07,3,9.65l1.68.3-.08.42ZM17.8,9.21l-.14-.4,1.6-.58.14.4ZM3.42,14.45l-.15-.4,1.6-.58.15.4ZM15.87,6.27,15.55,6l1.09-1.3L17,5ZM6,18l-.32-.27,1.09-1.3.33.27Zm6.28.09.42-.08L13,19.68l-.41.07ZM9.65,3l.42-.07.3,1.67L10,4.68Zm5.9,13.69.32-.28L17,17.72l-.33.27ZM5.71,5,6,4.69,7.13,6l-.33.27Zm12,8.91.14-.4,1.6.58-.14.4ZM3.27,8.63l.15-.4L5,8.81l-.15.4Zm14.81,1.74L18,10l1.68-.3.07.42ZM3,13l-.07-.42,1.67-.3.08.42Zm13.69-5.9-.28-.33,1.31-1.09L18,6ZM5,17l-.27-.33L6,15.55l.27.33ZM12.73,4.68l-.42-.08.3-1.67L13,3ZM10.07,19.75l-.42-.07L10,18l.42.08ZM11.33,8a15.75,15.75,0,0,1,1.08,1.44,7.53,7.53,0,0,1,1.45,3,2.74,2.74,0,0,1-.64,1.73,2.48,2.48,0,0,1-3.67.11,2.66,2.66,0,0,1-.74-1.78,6.21,6.21,0,0,1,1-2.47c.2-.3.73-1.12,1.49-2.06m0-.88a21.74,21.74,0,0,0-2.55,3.69,3.78,3.78,0,0,0-.51,1.7A3.1,3.1,0,0,0,9.54,15a2.87,2.87,0,0,0,1.8.6,3,3,0,0,0,2.26-1,3.24,3.24,0,0,0,.81-2.11A7.19,7.19,0,0,0,13.08,9.4a24.34,24.34,0,0,0-1.75-2.31M9.78,13.54a2.9,2.9,0,0,0,.87.88l.1,0a.28.28,0,0,0,.28-.28.34.34,0,0,0-.18-.26,3,3,0,0,1-.59-.62,2.33,2.33,0,0,1-.34-.8.28.28,0,0,0-.56,0,3.12,3.12,0,0,0,.42,1.06m1.56-8.29a6,6,0,0,1,5.95,6.09,6,6,0,0,1-5.95,6.09,6,6,0,0,1-5.95-6.09,6,6,0,0,1,6-6.09M13.87,5l-.4-.15.58-1.59.4.14ZM8.63,19.4l-.4-.14.58-1.6.4.15Zm2.5-1.26h.42v1.7h-.42Zm0-15.31h.42V4.54h-.42Zm3.43,14.51.36-.22.85,1.48-.36.21ZM6.9,4.08l.37-.21.85,1.47-.37.21ZM17.12,14.93l.22-.37,1.47.85-.21.37ZM3.87,7.27l.21-.37,1.47.85-.21.37Zm14.27,3.86h1.7v.42h-1.7Zm-15.31,0H4.54v.42H2.83Zm14.51-3-.22-.36L18.6,6.9l.21.37ZM4.08,15.78l-.21-.37,1.47-.85.21.37ZM14.92,5.56l-.36-.22.85-1.47.36.21ZM7.27,18.81,6.9,18.6l.85-1.47.37.21Zm1-15.39.4-.15.58,1.6L8.81,5Z"/></symbol></defs><title>SMANJENJEVLAGEUVAZDUHU</title><g id="Layer_2" data-name="Layer 2"><g id="Layer_1-2" data-name="Layer 1"><use width="24.09" height="24.09" xlink:href="#_3.10_Snažno_smanjenje_vlage_u_vazduhu"/></g></g></svg>