<svg xmlns="http://www.w3.org/2000/svg" xmlns:xlink="http://www.w3.org/1999/xlink" viewBox="0 0 24.09 24.09"><defs><style>.cls-1{fill:#d7bfd4;}.cls-2{fill:url(#linear-gradient);}.cls-3{fill:#fff;}</style><linearGradient id="linear-gradient" x1="7553.42" y1="9005.19" x2="7554.42" y2="9005.19" gradientTransform="matrix(22.68, 0, 0, -22.68, -171291.11, 204224.81)" gradientUnits="userSpaceOnUse"><stop offset="0" stop-color="#7c7c7b"/><stop offset="1" stop-color="#575756"/></linearGradient><symbol id="_3.16_Širok_ugao_protoka_vazduha" data-name="3.16 Širok ugao protoka vazduha" viewBox="0 0 24.09 24.09"><rect class="cls-1" x="1.42" y="1.42" width="22.68" height="22.68"/><rect class="cls-2" width="22.68" height="22.68"/><path class="cls-3" d="M10.17,17.84l.48-4.94.91.59,0,0A7.62,7.62,0,0,0,12,11.28c0-.12,0-.25,0-.37a9.94,9.94,0,0,0-.09-1.34c0-.08,0-.17,0-.25a6,6,0,0,0-.46-1.49,2,2,0,0,0-.13-.25,2.7,2.7,0,0,0-.54-.67l.16.09a2.69,2.69,0,0,1,.29.16l.28.19a6.49,6.49,0,0,1,.9.84c.09.1.17.21.26.32a5,5,0,0,1,.89,1.92l.06.27.06.26a5.63,5.63,0,0,1,.13,1.69c0,.19-.05.37-.08.56s0,.29-.07.45-.06.29-.09.43-.08.31-.13.46l0,.09.7.45Z"/><path class="cls-3" d="M8.77,7a4.93,4.93,0,0,0-1.9,2.45c0,.12-.1.26-.14.39l-.12.39a6.63,6.63,0,0,0-.16.89,4.44,4.44,0,0,0,0,.63l-1,.2L8,15.72l0,0,.88-4.6-.72.16a7.37,7.37,0,0,1,.45-2.12,2.48,2.48,0,0,1,.13-.35,2.6,2.6,0,0,1,.1-.25,6.67,6.67,0,0,1,.37-.76l.2-.31c.3-.43.79-.89,1.35-.74a3.12,3.12,0,0,0-2,.19"/><path class="cls-3" d="M18.71,8.18,18.46,12,15,10l.86-.42-.08-.12a7,7,0,0,0-1.34-1.53,3.55,3.55,0,0,0-.31-.23,3.62,3.62,0,0,0-.32-.22l-.35-.2a4.76,4.76,0,0,0-1.17-.4l-.21,0-.19,0h-.57a4.66,4.66,0,0,0-.63.12,4,4,0,0,1,.56-.25l.19-.07.18,0,.18-.06L12,6.46l.23-.06.28-.06A6.48,6.48,0,0,1,14,6.26l.31,0a7.15,7.15,0,0,1,.92.19l.39.13a5.41,5.41,0,0,1,1.71,1L17.6,8a4.58,4.58,0,0,1,.44.53Z"/></symbol></defs><title>SUPROTOKV</title><g id="Layer_2" data-name="Layer 2"><g id="Layer_1-2" data-name="Layer 1"><use width="24.09" height="24.09" xlink:href="#_3.16_Širok_ugao_protoka_vazduha"/></g></g></svg>