<svg xmlns="http://www.w3.org/2000/svg" xmlns:xlink="http://www.w3.org/1999/xlink" viewBox="0 0 24.09 24.09"><defs><style>.cls-1{fill:#d7bfd4;}.cls-2{fill:url(#linear-gradient);}.cls-3{fill:#fff;}</style><linearGradient id="linear-gradient" x1="7553.42" y1="9005.19" x2="7554.42" y2="9005.19" gradientTransform="matrix(22.68, 0, 0, -22.68, -171291.11, 204224.81)" gradientUnits="userSpaceOnUse"><stop offset="0" stop-color="#7c7c7b"/><stop offset="1" stop-color="#575756"/></linearGradient><symbol id="_3.17_Dovod_svežeg_vazduha" data-name="3.17 Dovod svežeg vazduha" viewBox="0 0 24.09 24.09"><rect class="cls-1" x="1.42" y="1.42" width="22.68" height="22.68"/><rect class="cls-2" width="22.68" height="22.68"/><path class="cls-3" d="M3.45,12.38a4.11,4.11,0,0,0,2.74,1,7.13,7.13,0,0,0,3.64-1C10.94,11.77,12,11,13,10.28a11.77,11.77,0,0,1,2.81-1.36A8.82,8.82,0,0,0,13,9.86c-1.09.56-2.09,1.27-3.15,1.89a8.37,8.37,0,0,1-3.47,1.3A4.55,4.55,0,0,1,3.45,12.38Z"/><path class="cls-3" d="M2.83,10.47a3.73,3.73,0,0,0,1.5,1.2,3.84,3.84,0,0,0,2.48.13A12.2,12.2,0,0,0,10.38,10c-1.17.36-2.28.9-3.46,1.24a4.65,4.65,0,0,1-2.34.13A4.57,4.57,0,0,1,2.83,10.47Z"/><path class="cls-3" d="M9.1,13.76a5.74,5.74,0,0,0,1.37-.2,7.7,7.7,0,0,0,1.72-.8c1.15-.7,2.17-1.59,3.35-2.22A5.63,5.63,0,0,1,17.4,9.9a2,2,0,0,1,1.65.43,1.33,1.33,0,0,1,.15,1.53,1.35,1.35,0,0,1-1.55.54.86.86,0,0,1-.62-1A.59.59,0,0,1,18,11.1a.65.65,0,0,0-1.09.28,1.07,1.07,0,0,0,.65,1.27,1.65,1.65,0,0,0,2.28-1.84c-.26-1.37-1.75-1.61-2.91-1.37a8.56,8.56,0,0,0-3.37,1.87A19.16,19.16,0,0,1,11.23,13,6.47,6.47,0,0,1,9.1,13.76Z"/></symbol></defs><title>SVEZVAZDUH</title><g id="Layer_2" data-name="Layer 2"><g id="Layer_1-2" data-name="Layer 1"><use width="24.09" height="24.09" xlink:href="#_3.17_Dovod_svežeg_vazduha"/></g></g></svg>