<svg xmlns="http://www.w3.org/2000/svg" xmlns:xlink="http://www.w3.org/1999/xlink" viewBox="0 0 24.09 24.09"><defs><style>.cls-1{fill:#f3bb00;}.cls-2{fill:url(#linear-gradient);}.cls-3{fill:#fff;fill-rule:evenodd;}</style><linearGradient id="linear-gradient" x1="7557.35" y1="9005.2" x2="7558.35" y2="9005.2" gradientTransform="matrix(22.68, 0, 0, -22.68, -171379.63, 204223.96)" gradientUnits="userSpaceOnUse"><stop offset="0" stop-color="#7c7c7b"/><stop offset="1" stop-color="#575756"/></linearGradient><symbol id="_5.01_Tajmer" data-name="5.01 Tajmer" viewBox="0 0 24.09 24.09"><rect class="cls-1" x="1.42" y="1.42" width="22.68" height="22.68"/><rect class="cls-2" width="22.68" height="22.68"/><path class="cls-3" d="M11.81,11.62a.78.78,0,0,1,.27,1,.71.71,0,0,1-1,.28.78.78,0,0,1-.27-1,.72.72,0,0,1,1-.28m.16-.27a.28.28,0,0,0,.38-.11l1-1.78a.31.31,0,0,0-.11-.4.27.27,0,0,0-.37.11l-1,1.78a.3.3,0,0,0,.1.4m-2.5-.74a.42.42,0,0,0-.59.17.46.46,0,0,0,.16.61l.85.51a.42.42,0,0,0,.59-.17.47.47,0,0,0-.16-.61l-.85-.51m3,4.79a3.83,3.83,0,0,0,2.34-4.78,3.61,3.61,0,0,0-4.58-2.44A3.84,3.84,0,0,0,8,13a3.6,3.6,0,0,0,4.57,2.44m3.09-5a4.71,4.71,0,0,1-2.87,5.86,4.42,4.42,0,0,1-5.61-3A4.68,4.68,0,0,1,10,7.4,4.42,4.42,0,0,1,15.61,10.39Zm.45-3.14L15,6.2l-.43.49,1.09,1m-.32,0-.64-.63-.91,1,.64.63M7,8.75a3.62,3.62,0,0,0-1.61,2.82,3.76,3.76,0,0,0,1.4,3.55,4.51,4.51,0,0,1-1-3.46A5.14,5.14,0,0,1,7,8.75m-1.68,1a2.35,2.35,0,0,0-1,1.82,2.43,2.43,0,0,0,.9,2.29,3,3,0,0,1-.66-2.24,3.29,3.29,0,0,1,.8-1.87m10,5.7a3.56,3.56,0,0,0,1.91-2.6,3.8,3.8,0,0,0-1-3.7,4.56,4.56,0,0,1,.63,3.57,5.07,5.07,0,0,1-1.56,2.73m1.79-.82A2.3,2.3,0,0,0,18.35,13a2.44,2.44,0,0,0-.63-2.38,2.94,2.94,0,0,1,.4,2.3,3.33,3.33,0,0,1-1,1.76"/></symbol></defs><title>TAJMER</title><g id="Layer_2" data-name="Layer 2"><g id="Layer_1-2" data-name="Layer 1"><use width="24.09" height="24.09" xlink:href="#_5.01_Tajmer"/></g></g></svg>