<svg xmlns="http://www.w3.org/2000/svg" xmlns:xlink="http://www.w3.org/1999/xlink" viewBox="0 0 24.09 24.09"><defs><style>.cls-1{fill:#eb5e29;}.cls-2{fill:url(#linear-gradient);}.cls-3{fill:#fff;}</style><linearGradient id="linear-gradient" x1="7552.1" y1="9005.2" x2="7553.1" y2="9005.2" gradientTransform="matrix(22.68, 0, 0, -22.68, -171257.39, 204220.5)" gradientUnits="userSpaceOnUse"><stop offset="0" stop-color="#7c7c7b"/><stop offset="1" stop-color="#575756"/></linearGradient><symbol id="_4.08_Jedinstveni_tihi_dizajn" data-name="4.08 Jedinstveni tihi dizajn" viewBox="0 0 24.09 24.09"><rect class="cls-1" x="1.42" y="1.42" width="22.68" height="22.68"/><rect class="cls-2" width="22.68" height="22.68"/><path class="cls-3" d="M10.61,10.71V11.8H9.11V9.15H6.41v6h2.7V12.36h1.5v1.09h.67V10.71ZM8.87,15H6.66v-.17H8.87Zm0-.32H6.66v-.17H8.87Zm0-.32H6.66v-.17H8.87Zm0-.32H6.66v-.17H8.87Zm0-.32H6.66V13.5H8.87Zm0-.32H6.66v-.17H8.87Zm0-.33H6.66v-.17H8.87Zm0-.32H6.66v-.17H8.87Zm0-.32H6.66v-.17H8.87Zm0-.32H6.66v-.17H8.87Zm0-.32H6.66v-.17H8.87Zm0-.32H6.66v-.17H8.87Zm0-.32H6.66v-.17H8.87Zm0-.32H6.66v-.17H8.87Zm0-.32H6.66v-.17H8.87Zm0-.32H6.66V10H8.87Zm0-.32H6.66V9.65H8.87Zm0-.32H6.66V9.32H8.87Zm10.81,1.56h-.35a14.21,14.21,0,0,0,.23-2.55c0-1.3-.23-1.52-.5-1.52s-.51.22-.51,1.52a14.17,14.17,0,0,0,.24,2.55h-.26v.74H17.11V11h-.18v-.67a.42.42,0,0,0-.42-.42H15.36V9.78A.41.41,0,0,0,15,9.37H13.06a.41.41,0,0,0-.41.41v.16h-.81a.42.42,0,0,0-.41.42V13.8a.41.41,0,0,0,.41.41h.89v-.12h2.55v.12h1.23a.41.41,0,0,0,.42-.41v-.67h.18v-.77h1.42v.69h.25a14,14,0,0,0-.23,2.53c0,1.3.23,1.52.51,1.52s.5-.22.5-1.52a14,14,0,0,0-.23-2.53h.35Zm-6.95,0h2.55v.2H12.73Zm0,.44h2.55v.19H12.73Zm0,.43h2.55v.2H12.73Zm0,.44h2.55v.19H12.73Zm0,.43h2.55v.2H12.73Zm2.55,1.06H12.73v-.19h2.55Zm0-.43H12.73v-.2h2.55Zm0-2.61H12.73v-.19h2.55Z"/></symbol></defs><title>TIHIDIZAJN</title><g id="Layer_2" data-name="Layer 2"><g id="Layer_1-2" data-name="Layer 1"><use width="24.09" height="24.09" xlink:href="#_4.08_Jedinstveni_tihi_dizajn"/></g></g></svg>