<svg xmlns="http://www.w3.org/2000/svg" xmlns:xlink="http://www.w3.org/1999/xlink" viewBox="0 0 24.09 24.09"><defs><style>.cls-1{fill:#d7bfd4;}.cls-2{fill:url(#linear-gradient);}.cls-3{fill:#fff;}</style><linearGradient id="linear-gradient" x1="7557.35" y1="9005.2" x2="7558.35" y2="9005.2" gradientTransform="matrix(22.68, 0, 0, -22.68, -171379.61, 204223.96)" gradientUnits="userSpaceOnUse"><stop offset="0" stop-color="#7c7c7b"/><stop offset="1" stop-color="#575756"/></linearGradient><symbol id="_3.11_Režim_tihog_rada" data-name="3.11 Režim tihog rada" viewBox="0 0 24.09 24.09"><rect class="cls-1" x="1.42" y="1.42" width="22.68" height="22.68"/><rect class="cls-2" width="22.68" height="22.68"/><path class="cls-3" d="M11.34,19.22a.36.36,0,0,1-.26-.11L4.36,12.39a.35.35,0,0,1-.08-.4.38.38,0,0,1,.34-.22h2.1V3.83a.36.36,0,0,1,.36-.37.37.37,0,0,1,.37.37v8.3a.38.38,0,0,1-.37.37H5.5l5.84,5.84,5.84-5.84H15.59a.37.37,0,0,1-.36-.37V3.83a.37.37,0,1,1,.73,0v7.94h2.1a.38.38,0,0,1,.34.22.39.39,0,0,1-.08.4L11.6,19.11A.4.4,0,0,1,11.34,19.22ZM14.32,9l-.65.56a2.51,2.51,0,0,1,.06.55,2.39,2.39,0,0,1-1.08,2,2.2,2.2,0,0,1,0,.56v.1a1.7,1.7,0,0,1-3,1.08.36.36,0,1,1,.56-.46A1,1,0,0,0,12,12.77v-.11a.85.85,0,0,0-.08-.49l0-.06h0s0,0,0-.05v0s0,0,0,0v0a0,0,0,0,1,0,0v0a0,0,0,0,0,0,0l0,0s0,0,0,0l0,0,0,0,0,0h0l0,0,0,0h0a1.66,1.66,0,0,0,1-1.49L8.83,13.72a.36.36,0,0,1-.24.09.34.34,0,0,1-.27-.13.35.35,0,0,1,0-.51L10,11.76V10a1.35,1.35,0,0,1,2.61-.5l.21-.18a1.66,1.66,0,0,0-3.13.77,1.62,1.62,0,0,0,.17.72.37.37,0,1,1-.66.32,2.48,2.48,0,0,1-.24-1,2.39,2.39,0,0,1,4.42-1.26l.48-.41a.36.36,0,0,1,.51,0A.37.37,0,0,1,14.32,9Zm-3.6,2.14L12,10.06v0a.63.63,0,0,0-.63-.62.62.62,0,0,0-.62.62Z"/></symbol></defs><title>TIHRAD</title><g id="Layer_2" data-name="Layer 2"><g id="Layer_1-2" data-name="Layer 1"><use width="24.09" height="24.09" xlink:href="#_3.11_Režim_tihog_rada"/></g></g></svg>