<svg xmlns="http://www.w3.org/2000/svg" xmlns:xlink="http://www.w3.org/1999/xlink" viewBox="0 0 24.09 24.09"><defs><style>.cls-1{fill:#79b0e0;}.cls-2{fill:url(#linear-gradient);}.cls-3{fill:#fff;}</style><linearGradient id="linear-gradient" x1="7552.1" y1="9005.2" x2="7553.1" y2="9005.2" gradientTransform="matrix(22.68, 0, 0, -22.68, -171257.39, 204220.5)" gradientUnits="userSpaceOnUse"><stop offset="0" stop-color="#7c7c7b"/><stop offset="1" stop-color="#575756"/></linearGradient><symbol id="_6.01_Turbo" data-name="6.01 Turbo" viewBox="0 0 24.09 24.09"><rect class="cls-1" x="1.42" y="1.42" width="22.68" height="22.68"/><rect class="cls-2" width="22.68" height="22.68"/><path class="cls-3" d="M6.62,11.77H5.76v2.6H5.11v-2.6H4.25v-.55H6.62m2.86,0H8.83v1.86c0,.51-.19.76-.58.76s-.6-.26-.6-.78V11.22H7v1.83c0,.92.41,1.38,1.22,1.38S9.48,14,9.48,13m2.58.43c-.17-.28-.32-.44-.46-.48h0a1,1,0,0,0,.5-.33.85.85,0,0,0,.18-.55c0-.57-.36-.85-1.08-.85H10.14v3.15h.64V13.15H11a.31.31,0,0,1,.2.07,1.39,1.39,0,0,1,.24.33l.47.82h.74m-1.52-2.64c.33,0,.49.14.49.42a.45.45,0,0,1-.14.35.49.49,0,0,1-.36.14h-.32v-.91Zm3,2.64a1.16,1.16,0,0,0,.8-.25.85.85,0,0,0,.29-.69.72.72,0,0,0-.19-.51.87.87,0,0,0-.51-.24h0a.85.85,0,0,0,.42-.27A.67.67,0,0,0,15,12a.65.65,0,0,0-.26-.54,1.31,1.31,0,0,0-.77-.19H12.93v3.15m.92-2.65q.51,0,.51.36a.42.42,0,0,1-.13.31.54.54,0,0,1-.35.11h-.3v-.78ZM14,13a.62.62,0,0,1,.39.11.4.4,0,0,1,.14.31.42.42,0,0,1-.14.33.56.56,0,0,1-.38.12h-.38V13Zm1.52-.16A1.64,1.64,0,0,0,15.88,14a1.35,1.35,0,0,0,1.06.45A1.38,1.38,0,0,0,18,14a1.72,1.72,0,0,0,.41-1.2A1.71,1.71,0,0,0,18,11.61a1.31,1.31,0,0,0-1-.45,1.41,1.41,0,0,0-1.1.47,1.73,1.73,0,0,0-.42,1.21m.9-.8a.68.68,0,0,1,.6-.29.65.65,0,0,1,.57.28,1.29,1.29,0,0,1,.21.78,1.19,1.19,0,0,1-.21.75.75.75,0,0,1-1.18,0,1.23,1.23,0,0,1-.21-.75A1.2,1.2,0,0,1,16.37,12Zm-1-.65s.06,0,.06-.07v-.26a0,0,0,0,1,0,0h0l.14.14s0,0,0,0,0,0,0,0a.06.06,0,0,0,0-.09l-.26-.27v-.24l0,0h0l.27.28a.05.05,0,0,0,.05,0h.05a.11.11,0,0,0,0-.08l-.1-.38a0,0,0,0,1,0,0h0l.18.11s0,0,0,0l.09.37a.06.06,0,0,0,.06.05h0a0,0,0,0,0,0,0,0,0,0,0,0,0,0l-.05-.19a0,0,0,0,1,0,0h0l.22.13h0a.05.05,0,0,0,.05,0,.07.07,0,0,0,0-.09l-.22-.13a0,0,0,0,1,0,0,0,0,0,0,1,0,0l.18,0a.07.07,0,0,0,.05-.08.06.06,0,0,0-.06-.05h0l-.35.1h0l-.19-.11a0,0,0,0,1,0,0,0,0,0,0,1,0,0l.37-.11s0,0,0-.05h0v0a.06.06,0,0,0-.06,0l-.36-.1,0,0s0,0,0,0l.19-.11h0l.35.1h0a.06.06,0,0,0,.06-.05.06.06,0,0,0-.05-.08l-.18-.05,0,0a0,0,0,0,1,0,0l.22-.13a.05.05,0,0,0,0-.08.07.07,0,0,0-.05,0h0l-.22.13h0a0,0,0,0,1,0,0l.05-.19a0,0,0,0,0,0-.05,0,0,0,0,0,0,0h0a.06.06,0,0,0-.06,0L16,9.57h0l-.18.11h0s0,0,0,0l.1-.38a.11.11,0,0,0,0-.08h-.05l-.05,0-.27.28h0s0,0,0,0V9.23L15.74,9a.06.06,0,0,0,0-.09l0,0,0,0L15.52,9h0l0,0V8.73a.05.05,0,0,0-.06-.06.06.06,0,0,0-.06.06V9l0,0h0l-.13-.14,0,0-.05,0a.07.07,0,0,0,0,.09l.26.27v.24s0,0,0,0h0L15,9.21l0,0h0a.08.08,0,0,0,0,.08l.09.38s0,0,0,0h0l-.19-.11h0l-.1-.37a.06.06,0,0,0-.06,0h0s0,0,0,0a.07.07,0,0,0,0,.05l0,.19s0,0,0,0h0l-.21-.13h0a.07.07,0,0,0-.06,0,.06.06,0,0,0,0,.08l.21.13s0,0,0,0l0,0-.18.05s0,0,0,0a0,0,0,0,0,0,.05.06.06,0,0,0,.06.05h0l.36-.1h0l.18.11s0,0,0,0l0,0-.37.1a.06.06,0,0,0-.06,0v0a.07.07,0,0,0,.06,0l.37.11s0,0,0,0l0,0-.18.11h0l-.36-.1h0a.06.06,0,0,0-.06.05,0,0,0,0,0,0,0l0,0,.18,0a0,0,0,0,1,0,0s0,0,0,0l-.21.13a.07.07,0,0,0,0,.09.06.06,0,0,0,.06,0h0l.21-.13h0s0,0,0,0l0,.19a.07.07,0,0,0,0,0s0,0,0,0h0a.06.06,0,0,0,.06-.05l.1-.37v0l.19-.11h0s0,0,0,0l-.09.39a.06.06,0,0,0,0,.07h0a.05.05,0,0,0,0,0l.27-.28h0l0,0v.24l-.26.27a.07.07,0,0,0,0,.09s0,0,.05,0a0,0,0,0,0,0,0L15.3,11h0a0,0,0,0,1,0,0v.26a.07.07,0,0,0,.06.07m.1-1.23.11.07h0l.06.24a0,0,0,0,1,0,0h0l-.17-.18h0v-.13l0,0h0Zm-.17,0v.16h0l-.16.18h0s0,0,0,0l.06-.24h0l.11-.07h0Zm-.21-.23h0l.11.06a0,0,0,0,1,0,0s0,0,0,0l-.11.06h0l-.23-.07,0,0s0,0,0,0l.23-.06Zm.57,0,.23.06s0,0,0,0a0,0,0,0,1,0,0l-.23.07h0l-.1-.06a0,0,0,0,1,0,0l0,0,.1-.06h0Zm0-.4s0,0,0,0l-.06.24v0l-.1.06h0s0,0,0,0V9.72l.17-.18h0Zm-.5,0,.16.18s0,0,0,0v.13s0,0,0,0h0l-.11-.06v0l-.06-.24a0,0,0,0,1,0,0h0Zm-1.93.18s0,0,0,0V9.55s0,0,0,0h0l.07.07h0s0,0,0,0l-.14-.14h0V9.29s0,0,0,0h0l.15.16h0s0,0,0,0l-.06-.21h0l.1.06h0l.05.2,0,0h0a0,0,0,0,0,0,0s0,0,0,0l0-.11h0l.12.07h0s0,0,0,0a0,0,0,0,0,0,0l-.12-.07v0h0l.1,0s0,0,0,0a0,0,0,0,0,0,0h0l-.19.06h0l-.1-.06v0h0l.2-.06,0,0h0a0,0,0,0,0,0,0l-.2,0v0a0,0,0,0,1,0,0l.1-.06h0l.19,0h0l0,0a0,0,0,0,0,0-.05l-.1,0v0h0l.12-.07s0,0,0-.05,0,0,0,0h0l-.12.07h0v0l0-.1a0,0,0,0,0,0,0l0,0h0l0,0-.05.2h0l-.1.06h0s0,0,0,0l.06-.21a.06.06,0,0,0,0,0h0s0,0,0,0l-.15.15h0V8.57h0l.14-.15s0,0,0-.05h0l-.07.08h0V8.29a0,0,0,0,0,0,0s0,0,0,0v.14h0l-.08-.08h0a0,0,0,0,0,0,.05l.15.15h0v.12h0l-.15-.15,0,0h0a.06.06,0,0,0,0,0l0,.21s0,0,0,0h0l-.1-.06h0l-.05-.2s0,0,0,0h0l0,0v0l0,.1v0h0l-.12-.07h0l0,0a0,0,0,0,0,0,.05l.11.07h0v0l-.1,0,0,0a0,0,0,0,0,0,0s0,0,0,0h0l.19,0h0l.1.06h0v0l-.2,0a0,0,0,0,0,0,0h0s0,0,0,0l.2.06h0v0l-.1.06h0l-.19-.06h0a0,0,0,0,0,0,0s0,0,0,0l0,0,.1,0h0v0l-.11.07s0,0,0,0,0,0,0,0h0l.12-.07h0l0,.11v0l0,0h0a.05.05,0,0,0,0,0l.05-.2h0l.1-.06h0s0,0,0,0l0,.21s0,0,0,0h.05l.15-.16h0s0,0,0,0v.12h0l-.15.14a0,0,0,0,0,0,0h0l.07-.07h0s0,0,0,0v.14a0,0,0,0,0,0,0m.06-.66.06,0h0l0,.12v0h0l-.09-.1h0V9.07h0Zm-.1,0h0v.07h0l-.09.1h0s0,0,0,0l0-.12h0l.06,0Zm-.11-.12h0l.05,0V9h0l-.05,0h0L13,9h0V9l.13,0Zm.31,0,.12,0s0,0,0,0h0l-.12,0h0l-.06,0h0V9l.06,0Zm0-.22v0l0,.13h0l-.06,0h0V8.83h0l.09-.09h0Zm-.27,0,.09.09h0V8.9h0l-.06,0h0l0-.13v0h0Z"/></symbol></defs><title>TURBO</title><g id="Layer_2" data-name="Layer 2"><g id="Layer_1-2" data-name="Layer 1"><use width="24.09" height="24.09" xlink:href="#_6.01_Turbo"/></g></g></svg>