<svg xmlns="http://www.w3.org/2000/svg" xmlns:xlink="http://www.w3.org/1999/xlink" viewBox="0 0 24.09 24.09"><defs><style>.cls-1{fill:#d7bfd4;}.cls-2{fill:url(#linear-gradient);}.cls-3{fill:#fff;}</style><linearGradient id="linear-gradient" x1="7557.35" y1="9005.2" x2="7558.35" y2="9005.2" gradientTransform="matrix(22.68, 0, 0, -22.68, -171379.61, 204223.96)" gradientUnits="userSpaceOnUse"><stop offset="0" stop-color="#7c7c7b"/><stop offset="1" stop-color="#575756"/></linearGradient><symbol id="_3.09_Ventilator_veliko_prečnika" data-name="3.09 Ventilator veliko prečnika" viewBox="0 0 24.09 24.09"><rect class="cls-1" x="1.42" y="1.42" width="22.68" height="22.68"/><rect class="cls-2" width="22.68" height="22.68"/><path class="cls-3" d="M19,13.66h0Zm.17,0h0a.41.41,0,0,0,.19-.14h0A1.45,1.45,0,0,0,19.6,13a5.27,5.27,0,0,0,.15-1.55,5,5,0,0,0-.19-1.24,2.08,2.08,0,0,0-.46-.82c-.17-.17-.3-.13-.37-.06H19v0h0a2,2,0,0,1,.47.85,5,5,0,0,1,.19,1.25,5.53,5.53,0,0,1-.12,1.41,1.57,1.57,0,0,1-.38.8M14.89,13h0m0,.06h0m-5.41.71,4.84-.09v0l-4.8.06a.43.43,0,0,0,0,.07m-.25.09H9l.06,0a.32.32,0,0,0,.17,0M8.75,9.44h.31a.22.22,0,0,0-.31,0m5.48,0h0m0,0h0m.05,0h0M15,10.91h0m-.5,2.85Zm-.07-4.28a1,1,0,0,1,.2.18,2.52,2.52,0,0,1,.48,1.41,4.52,4.52,0,0,1-.09,1.71,2.79,2.79,0,0,1-.2.54h0a1.35,1.35,0,0,1-.2.28.1.1,0,0,1,0,.05h.17a1.05,1.05,0,0,0,.21-.31,4.33,4.33,0,0,0,.32-1.81,4.78,4.78,0,0,0-.18-1.22,2,2,0,0,0-.45-.8l0,0Zm-.22-.1.05,0v0h.21l-.09,0a.43.43,0,0,0-.17,0m0,.09h-.14l-4.82.07,0,0,5-.06m0,0h-.06m.55.54a.41.41,0,0,0,0-.09L9.54,10l0,.1Zm.17.49s0-.06,0-.1l-5.23.07a.29.29,0,0,1,0,.09Zm.08.41h0v0h0v0L9.8,10.9a.38.38,0,0,1,0,.1l5.24-.07m0,0h0m0,.42h0l-5.23.07v.09Zm0,.43v-.08h0l-5.23.06v.17Zm0,.43v0h0v0h0v0h0v0h0l-5.22.06a1.41,1.41,0,0,0,0,.2Zm-.12.63v0h0v-.07l-5.19.06s0,.08,0,.12Zm-.09.25h0v0h0l-5.15.07a.19.19,0,0,0,0,.08l5.14-.06m-.15.3h0v0h0l-5.1.07a.14.14,0,0,0,0,.07Zm.33-1h0m-6-2.87a2.48,2.48,0,0,1,.41.8h0A5.26,5.26,0,0,1,9.7,11.6a5.84,5.84,0,0,1-.12,1.45,1.76,1.76,0,0,1-.31.74h.07l0,0a1.38,1.38,0,0,0,.24-.53,5.58,5.58,0,0,0,.16-1.6,4.77,4.77,0,0,0-.2-1.28,2.1,2.1,0,0,0-.43-.81Zm10,.1-4.19.05a.43.43,0,0,1,0,.07l4.19-.06a.21.21,0,0,1,0-.06m.1,3.81L15,13.49a.18.18,0,0,0,0,.07l4.21-.06.05-.07m.15-.3-4.22,0,0,.09,4.22-.06,0-.08m-4.17-2.88,4.18-.05,0-.1-4.18.06,0,.09m.12.48,4.18-.06s0-.06,0-.09l-4.18.06s0,.06,0,.09m.05.43,4.18-.05V11l-4.19.06a.28.28,0,0,1,0,.09m0,.4,4.19-.06v-.09l-4.18.06v.09m0,.42,4.19-.05c0-.06,0-.12,0-.17l-4.19.06a.86.86,0,0,1,0,.16m0,.42,4.2-.06c0-.07,0-.13,0-.19l-4.2,0a1.36,1.36,0,0,1,0,.2m4.11.45-4.21.06a.76.76,0,0,1,0,.11L19.43,13l0-.11m-4.18-.09,4.21-.06a1.42,1.42,0,0,0,0-.2l-4.21.06a1.42,1.42,0,0,1,0,.2M4,9.46c.29,0,.55.25.73.67a4,4,0,0,1,.3,1.57,4,4,0,0,1-.3,1.58c-.18.41-.44.67-.73.67s-.55-.26-.74-.67A4,4,0,0,1,3,11.7a4,4,0,0,1,.29-1.57c.19-.42.45-.67.74-.67m0-.1c-.29,0-.56.27-.75.68a3.82,3.82,0,0,0-.34,1.66,3.84,3.84,0,0,0,.34,1.67c.2.42.48.68.78.68s.58-.26.78-.68a3.84,3.84,0,0,0,.34-1.67A3.82,3.82,0,0,0,4.82,10h0c-.2-.41-.46-.66-.75-.68Zm.33,0A1.38,1.38,0,0,1,4.9,10h0a4,4,0,0,1,.34,1.7,4,4,0,0,1-.34,1.7h0a1.38,1.38,0,0,1-.56.64H4.4c.29,0,.54-.25.72-.65a4.35,4.35,0,0,0,.3-1.7A4.33,4.33,0,0,0,5.12,10c-.18-.4-.43-.65-.72-.65ZM4,9.28H4.4a.67.67,0,0,1,.48.22l3.75-.06c.07-.1.26-.3.55,0l4.89-.07h0a.41.41,0,0,1,.31-.1.54.54,0,0,1,.24.1l3.94,0c.07-.1.27-.28.55,0a2.24,2.24,0,0,1,.48.85,5.2,5.2,0,0,1,.2,1.27A5.51,5.51,0,0,1,19.68,13a1.53,1.53,0,0,1-.26.56h0a.42.42,0,0,1-.42.18.6.6,0,0,1-.21-.08l-4,.07a.4.4,0,0,1-.25.09h0a.39.39,0,0,1-.22-.05l-5,.09A.4.4,0,0,1,9,14a.55.55,0,0,1-.23-.09h0l-4,.07a.65.65,0,0,1-.43.17H4a1.11,1.11,0,0,1-.83-.72h0a4,4,0,0,1-.35-1.7A4,4,0,0,1,3.18,10c.21-.43.5-.7.82-.72H4m5.12.47-4,.05,0,.07,4-.06,0-.06m.1,3.9-4.21.06,0,.07,4.21,0,0-.08m.15-.31-4.2.06v0l0,.05,4.2-.05,0-.09M5.35,10.4l4.07-.06,0-.09-4.07.05,0,.1m.1.49,4.09-.06s0-.07,0-.1l-4.09.06s0,.06,0,.1m0,.44,4.1-.06a.28.28,0,0,0,0-.09l-4.09.06v.09m0,.41,4.11-.06v-.1l-4.1.06v.1Zm0,.43,4.12-.06c0-.06,0-.11,0-.17L5.5,12c0,.06,0,.12,0,.17m0,.42,4.14-.06c0-.06,0-.13,0-.19l-4.13.06,0,.19m4.05.47-4.17.06a.49.49,0,0,0,0,.11l4.18-.06,0-.11M5.36,13l4.16-.06c0-.06,0-.13,0-.2l-4.15.06c0,.07,0,.14,0,.2m-1.06.82H3.79a.4.4,0,0,0,.25.09.51.51,0,0,0,.26-.09m.3-.35-1.11,0,0,.07h1l0-.08m.15-.31-1.41,0,0,.08H4.71a.36.36,0,0,1,0-.09M3.82,9.61h.43A.42.42,0,0,0,4,9.54a.44.44,0,0,0-.22.07m-.43.53,1.28,0,0-.09H3.44l0,.1m-.17.49,1.63,0,0-.1-1.57,0,0,.1m-.08.45,1.8,0s0-.06,0-.09L3.15,11s0,.06,0,.1m0,.4,1.87,0v-.1l-1.86,0a.28.28,0,0,0,0,.09m0,.44,1.88,0v-.16l-1.88,0v.17m0,.42,1.8,0a1.36,1.36,0,0,0,0-.2l-1.84,0a1.36,1.36,0,0,0,0,.2m1.7.5-1.59,0,0,.11L4.8,13a.49.49,0,0,0,0-.11M3.21,12.7l1.67,0a1.29,1.29,0,0,1,0-.19l-1.76,0c0,.06,0,.13,0,.19m6.61-.07,5.2-.07a.13.13,0,0,0,0-.06h0s0,0,0,0h0v0h0l-5.22.07a1.36,1.36,0,0,1,0,.2"/><path class="cls-3" d="M16.48,6.7l1.12.82-1.28-.37s-6.47-1.77-6.87,3.6c.5-.28,1-.52,1.47-.76L8.77,12.84l-.18.24-.19-.22-2-2.28,1.28.3a4.65,4.65,0,0,1,.49-2,4.82,4.82,0,0,1,2.22-2.13,7.25,7.25,0,0,1,3-.71,6.73,6.73,0,0,1,3.08.66M7.42,16l-1.11-.82,1.28.37s6.47,1.77,6.87-3.6c-.5.28-1,.52-1.48.76l2.16-2.85.17-.24.2.22,2,2.28-1.27-.3a4.8,4.8,0,0,1-.5,2,4.85,4.85,0,0,1-2.21,2.13,7.26,7.26,0,0,1-3.05.71A6.73,6.73,0,0,1,7.42,16"/></symbol></defs><title>VENTVPRECNIK</title><g id="Layer_2" data-name="Layer 2"><g id="Layer_1-2" data-name="Layer 1"><use width="24.09" height="24.09" xlink:href="#_3.09_Ventilator_veliko_prečnika"/></g></g></svg>