<svg xmlns="http://www.w3.org/2000/svg" xmlns:xlink="http://www.w3.org/1999/xlink" viewBox="0 0 24.09 24.09"><defs><style>.cls-1{fill:#ca9e67;}.cls-2{fill:url(#linear-gradient);}.cls-3{fill:#fff;}</style><linearGradient id="linear-gradient" x1="7557.35" y1="9005.2" x2="7558.35" y2="9005.2" gradientTransform="matrix(22.68, 0, 0, -22.68, -171379.63, 204223.96)" gradientUnits="userSpaceOnUse"><stop offset="0" stop-color="#7c7c7b"/><stop offset="1" stop-color="#575756"/></linearGradient><symbol id="_1.01_Wi_FI" data-name="1.01 Wi FI" viewBox="0 0 24.09 24.09"><rect class="cls-1" x="1.42" y="1.42" width="22.68" height="22.68"/><rect class="cls-2" width="22.68" height="22.68"/><path class="cls-3" d="M10.55,16.77a1.23,1.23,0,0,1,0-1.7,1.13,1.13,0,0,1,.82-.36h0a1.17,1.17,0,0,1,.82.35h0a1.23,1.23,0,0,1,0,1.7,1.11,1.11,0,0,1-1.64,0M8.79,14.2a4.22,4.22,0,0,1,.72-.64h0a3.32,3.32,0,0,1,1.77-.65,2.93,2.93,0,0,1,1.34.29,4.77,4.77,0,0,1,1.34,1l.78-.82a5.7,5.7,0,0,0-1.67-1.24,3.69,3.69,0,0,0-1.83-.39,4.45,4.45,0,0,0-2.35.84h0a5.88,5.88,0,0,0-.94.84m-1.1-1.62A6.24,6.24,0,0,1,8,10.8a5.94,5.94,0,0,1,3-1.08,5.37,5.37,0,0,1,2.44.45,8.38,8.38,0,0,1,2.44,1.67l.74-.86A9.61,9.61,0,0,0,13.89,9.1,6.34,6.34,0,0,0,11,8.57,7.09,7.09,0,0,0,7.42,9.83,7.85,7.85,0,0,0,6,11.05m-1-1.58A8.5,8.5,0,0,1,6.78,8.09a10.19,10.19,0,0,1,2-1,7.9,7.9,0,0,1,3.88-.31,10.23,10.23,0,0,1,5,2.66l.73-.87a11.31,11.31,0,0,0-5.58-2.93A8.91,8.91,0,0,0,8.44,6,10.52,10.52,0,0,0,6.21,7.1a10.75,10.75,0,0,0-2,1.57"/></symbol></defs><title>WIFI</title><g id="Layer_2" data-name="Layer 2"><g id="Layer_1-2" data-name="Layer 1"><use width="24.09" height="24.09" xlink:href="#_1.01_Wi_FI"/></g></g></svg>