<svg xmlns="http://www.w3.org/2000/svg" xmlns:xlink="http://www.w3.org/1999/xlink" viewBox="0 0 24.09 24.09"><defs><style>.cls-1{fill:#eb5e29;}.cls-2{fill:url(#linear-gradient);}.cls-3{fill:#fff;fill-rule:evenodd;}</style><linearGradient id="linear-gradient" x1="7557.35" y1="9005.2" x2="7558.35" y2="9005.2" gradientTransform="matrix(22.68, 0, 0, -22.68, -171379.61, 204223.96)" gradientUnits="userSpaceOnUse"><stop offset="0" stop-color="#7c7c7b"/><stop offset="1" stop-color="#575756"/></linearGradient><symbol id="_4.06_Kućište_zaštićeno_od_rđanja" data-name="4.06 Kućište zaštićeno od rđanja" viewBox="0 0 24.09 24.09"><rect class="cls-1" x="1.42" y="1.42" width="22.68" height="22.68"/><rect class="cls-2" width="22.68" height="22.68"/><path class="cls-3" d="M10,6.26h3v.16H10Zm0,1.48h3V7.9H10Zm0,1.48h3v.16H10Zm0,1.48h3v.17H10Zm3-5.76H10V4.79h3Zm-3,7.24h3v.17H10ZM17.76,8l.09.94.43.2-.43.19-.09.94-.09-.94-.43-.19.43-.2ZM16.71,11.1l0,.41.2.09-.2.09,0,.41,0-.41-.2-.09.2-.09ZM8.2,4.79a4.67,4.67,0,0,1-3.48,7.8,4.61,4.61,0,0,1-1.89-.4v-.25A4.44,4.44,0,0,0,7.88,4.79Zm4,11H10.94v.41h1.29Zm2.45-5.92,0,.41.19.09-.19.09,0,.41,0-.41-.19-.09.19-.09Zm.77,6.37.06.7.32.15-.32.15-.06.69-.07-.69L15.06,17l.32-.15Zm-.24-2.14V12l-1.12-.61v3Zm.21.14-.07,0-1.26.46v1.07H12.43v.61h-1.7v-.61H2.83v-.23h11V4.79h.23V11.2l1.28.69.05,0ZM17,13.31l.13,1.32.61.28-.61.27L17,16.5l-.12-1.32-.61-.27.61-.28Zm2.28-1.47.09.94.43.2-.43.19-.09.94-.09-.94L18.8,13l.43-.2Z"/></symbol></defs><title>ZASODRDJA</title><g id="Layer_2" data-name="Layer 2"><g id="Layer_1-2" data-name="Layer 1"><use width="24.09" height="24.09" xlink:href="#_4.06_Kućište_zaštićeno_od_rđanja"/></g></g></svg>