<svg xmlns="http://www.w3.org/2000/svg" xmlns:xlink="http://www.w3.org/1999/xlink" viewBox="0 0 24.09 24.09"><defs><style>.cls-1{fill:#eb5e29;}.cls-2{fill:url(#linear-gradient);}.cls-3{fill:#fff;}</style><linearGradient id="linear-gradient" x1="7552.1" y1="9005.2" x2="7553.1" y2="9005.2" gradientTransform="matrix(22.68, 0, 0, -22.68, -171257.39, 204220.5)" gradientUnits="userSpaceOnUse"><stop offset="0" stop-color="#7c7c7b"/><stop offset="1" stop-color="#575756"/></linearGradient><symbol id="_4.17_Žičani_kontroler" data-name="4.17 Žičani kontroler" viewBox="0 0 24.09 24.09"><rect class="cls-1" x="1.42" y="1.42" width="22.68" height="22.68"/><rect class="cls-2" width="22.68" height="22.68"/><path class="cls-3" d="M16.36,8.08H12.82a1.1,1.1,0,0,0-1.1,1.1v2H9.13v.68h-.2v-.68H8.69v.68h-.2v-.68H8.25v.68H8v-.68H7.81v.68H7.6v-.68H7.24a.62.62,0,0,0-.61.61v6a.61.61,0,0,0,.61.61h9.39a.61.61,0,0,0,.62-.61v-6a.62.62,0,0,0-.62-.61H12.16v-2a.67.67,0,0,1,.66-.67h3.54a1.1,1.1,0,0,0,1.1-1.1V6.06c-.14-.11-.28-.22-.43-.32V7.41a.67.67,0,0,1-.67.67M9.43,17.42a.18.18,0,0,1-.18.18H7.79a.18.18,0,0,1-.18-.18v-.16a.18.18,0,0,1,.18-.18H9.25a.18.18,0,0,1,.18.18Zm0-1a.18.18,0,0,1-.18.18H7.79a.18.18,0,0,1-.18-.18v-.16a.18.18,0,0,1,.18-.18H9.25a.18.18,0,0,1,.18.18Zm2.33,1a.18.18,0,0,1-.18.18H10.12a.18.18,0,0,1-.18-.18v-.16a.18.18,0,0,1,.18-.18h1.46a.18.18,0,0,1,.18.18Zm0-1a.18.18,0,0,1-.18.18H10.12a.18.18,0,0,1-.18-.18v-.16a.18.18,0,0,1,.18-.18h1.46a.18.18,0,0,1,.18.18Zm2.33,1a.18.18,0,0,1-.18.18H12.46a.18.18,0,0,1-.19-.18v-.16a.18.18,0,0,1,.19-.18h1.45a.18.18,0,0,1,.18.18Zm0-1a.18.18,0,0,1-.18.18H12.46a.18.18,0,0,1-.19-.18v-.16a.18.18,0,0,1,.19-.18h1.45a.18.18,0,0,1,.18.18Zm2.33,1a.18.18,0,0,1-.18.18H14.78a.18.18,0,0,1-.18-.18v-.16a.18.18,0,0,1,.18-.18h1.46a.18.18,0,0,1,.18.18Zm0-1a.18.18,0,0,1-.18.18H14.78a.18.18,0,0,1-.18-.18v-.16a.18.18,0,0,1,.18-.18h1.46a.18.18,0,0,1,.18.18Zm0-1.26H7.6v-3h8.86Z"/></symbol></defs><title>ZICANIKONTROLER</title><g id="Layer_2" data-name="Layer 2"><g id="Layer_1-2" data-name="Layer 1"><use width="24.09" height="24.09" xlink:href="#_4.17_Žičani_kontroler"/></g></g></svg>